<svg width="128" height="128" viewBox="0 0 128 128" fill="none" xmlns="http://www.w3.org/2000/svg">
<rect width="128" height="128" rx="24" fill="url(#paint0_linear_94_165)"/>
<rect x="4" y="4" width="120" height="120" rx="20" stroke="black" stroke-opacity="0.25" stroke-width="8"/>
<g filter="url(#filter0_d_94_165)">
<path d="M74.0812 24C75.2369 24 76.3362 24.4999 77.0958 25.3709L81.1599 30.031C82.1736 31.1933 83.7675 31.6485 85.3029 31.5028C87.3168 31.3117 90.0867 31.4341 91.7625 33.1279C93.1018 34.4816 94.3307 35.7609 95.2605 36.7402C96.3252 37.8617 96.6253 39.5005 96.0472 40.9347L95.6974 41.8024C95.3364 42.698 95.3116 43.6941 95.6275 44.6066L97.1029 48.8675C97.3617 49.6148 97.3932 50.4217 97.1934 51.1869C95.8418 56.363 90.4483 77.0244 89.7371 79.8623C88.134 86.2584 87.0375 88.732 82.4813 91.9727C77.9252 95.2132 69.6571 100.841 68.3065 101.694C66.9565 102.547 65.2686 104 63.7498 104C62.2312 104 60.5441 102.547 59.1942 101.694C57.8442 100.842 49.5746 95.2134 45.0184 91.9727C40.4622 88.732 39.3656 86.2584 37.7625 79.8623C37.0511 77.0242 31.6572 56.3606 30.306 51.186C30.1062 50.4208 30.1379 49.6148 30.3967 48.8675L31.8722 44.6062C32.1881 43.6939 32.1634 42.6981 31.8026 41.8026L31.4529 40.9345C30.8751 39.5004 31.1753 37.8615 32.2397 36.7401C33.1693 35.7607 34.398 34.4814 35.7371 33.1279C37.4122 31.4348 40.1806 31.3118 42.1945 31.5025C43.7317 31.648 45.3282 31.192 46.343 30.0283L50.4048 25.3709C51.1644 24.4999 52.2637 24 53.4194 24H74.0812ZM63.7498 73.7852C63.2866 73.7855 60.3236 74.8434 57.9461 76.0869C55.5679 77.3308 53.8438 78.2101 53.2928 78.5586C52.7425 78.9072 53.0782 79.5644 53.5799 79.9229C54.0818 80.2814 60.8257 85.5592 61.4803 86.1426C62.1346 86.726 63.096 87.6893 63.7498 87.6895C64.4037 87.6895 65.3657 86.7261 66.0203 86.1426C66.6755 85.5587 73.4173 80.2818 73.9197 79.9229C74.4214 79.5643 74.7576 78.9072 74.2068 78.5586C73.6559 78.2101 71.9324 77.3308 69.5545 76.0869C67.1763 74.8432 64.2124 73.7852 63.7498 73.7852ZM63.7498 36.1934C63.7294 36.1935 62.3843 36.2028 60.3748 36.8799C58.3499 37.5621 56.1559 38.415 55.1434 38.415C54.5016 38.4148 51.2595 37.8345 48.9652 37.4084C47.52 37.14 46.0435 37.6716 45.133 38.8256C42.5997 42.0369 37.7225 48.4427 37.7225 50.1631C37.7226 52.4868 38.8421 53.1005 39.9676 54.3086C41.0934 55.517 46.0089 60.7918 46.6404 61.4697C47.2719 62.1474 48.5854 63.1753 47.8123 65.0244C47.0395 66.8734 45.8999 69.226 47.1678 71.6123C48.4361 73.9988 50.6086 75.5924 52.0008 75.3291C53.3929 75.0656 56.6626 73.3387 57.8651 72.5498C59.0674 71.7609 62.8777 68.5836 62.8777 67.3682C62.877 66.1528 58.9385 63.9714 58.2108 63.4756C57.483 62.98 54.1641 61.061 54.0955 60.3076C54.0275 59.5542 54.0534 59.3328 55.033 57.4717C56.0124 55.6105 57.7765 53.1272 57.4832 51.4746C57.1896 49.8222 54.3445 48.9625 52.3143 48.1875C50.2842 47.4126 46.3749 45.9492 45.8865 45.7217C45.3984 45.494 45.5248 45.2765 47.0037 45.1348C48.4829 44.993 52.6803 44.4299 54.5731 44.9629C56.4656 45.4961 59.6998 46.3081 59.9617 46.7383C60.2233 47.1679 60.4539 47.1831 60.1854 48.666C59.9164 50.1498 58.532 57.2695 58.3973 58.5352C58.2628 59.7999 58.0001 60.6365 59.3494 60.9482C60.6985 61.26 62.9692 61.8017 63.7498 61.8018C64.5303 61.8018 66.8019 61.26 68.1512 60.9482C69.5002 60.6364 69.2368 59.7999 69.1024 58.5352C68.9678 57.2694 67.584 50.1498 67.3152 48.666C67.0464 47.1828 67.2771 47.1682 67.5389 46.7383C67.8008 46.3081 71.034 45.4961 72.9266 44.9629C74.8192 44.4298 79.0168 44.993 80.4959 45.1348C81.9753 45.2765 82.1016 45.494 81.6131 45.7217C81.1244 45.9494 77.2153 47.4127 75.1854 48.1875C73.155 48.9625 70.31 49.8223 70.0164 51.4746C69.7232 53.1272 71.4871 55.6105 72.4666 57.4717C73.4462 59.3329 73.472 59.5542 73.4041 60.3076C73.3352 61.0611 70.0168 62.98 69.2889 63.4756C68.5607 63.9717 64.6226 66.153 64.6219 67.3682C64.6219 68.5836 68.4332 71.7609 69.6356 72.5498C70.8382 73.3387 74.1066 75.0654 75.4988 75.3291C76.891 75.5925 79.0645 73.9988 80.3328 71.6123C81.6005 69.2261 80.4603 66.8733 79.6873 65.0244C78.9143 63.1754 80.2279 62.1474 80.8592 61.4697C81.4904 60.7923 86.4059 55.5173 87.532 54.3086C88.6576 53.1005 89.7771 52.4868 89.7772 50.1631C89.7772 48.4425 84.8992 42.0359 82.3661 38.8249C81.4557 37.671 79.98 37.1399 78.535 37.4083C76.2402 37.8345 72.9971 38.415 72.3563 38.415C71.3437 38.415 69.1498 37.5621 67.1248 36.8799C65.1 36.1977 63.7498 36.1934 63.7498 36.1934Z" fill="url(#paint1_linear_94_165)"/>
</g>
<defs>
<filter id="filter0_d_94_165" x="14.1763" y="12" width="99.1469" height="112" filterUnits="userSpaceOnUse" color-interpolation-filters="sRGB">
<feFlood flood-opacity="0" result="BackgroundImageFix"/>
<feColorMatrix in="SourceAlpha" type="matrix" values="0 0 0 0 0 0 0 0 0 0 0 0 0 0 0 0 0 0 127 0" result="hardAlpha"/>
<feOffset dy="4"/>
<feGaussianBlur stdDeviation="8"/>
<feComposite in2="hardAlpha" operator="out"/>
<feColorMatrix type="matrix" values="0 0 0 0 0 0 0 0 0 0 0 0 0 0 0 0 0 0 0.5 0"/>
<feBlend mode="normal" in2="BackgroundImageFix" result="effect1_dropShadow_94_165"/>
<feBlend mode="normal" in="SourceGraphic" in2="effect1_dropShadow_94_165" result="shape"/>
</filter>
<linearGradient id="paint0_linear_94_165" x1="64" y1="0" x2="64" y2="128" gradientUnits="userSpaceOnUse">
<stop stop-color="#FF8A37"/>
<stop offset="1" stop-color="#831F38"/>
</linearGradient>
<linearGradient id="paint1_linear_94_165" x1="63.75" y1="24" x2="63.75" y2="104" gradientUnits="userSpaceOnUse">
<stop stop-color="white"/>
<stop offset="1" stop-color="#DD8975"/>
</linearGradient>
</defs>
</svg>
