<svg width="128" height="128" viewBox="0 0 128 128" fill="none" xmlns="http://www.w3.org/2000/svg">
<rect width="128" height="128" rx="24" fill="url(#paint0_linear_166_13)"/>
<rect x="4" y="4" width="120" height="120" rx="20" stroke="black" stroke-opacity="0.25" stroke-width="8"/>
<g filter="url(#filter0_d_166_13)">
<path d="M45.7925 70.6271L48.3122 77.3975L52.0981 82.3488L60.9864 83.9929L65.2386 84.3429L72.4986 82.5848L75.6261 79.6796L45.7925 70.6271Z" fill="#09204D"/>
<path d="M83.4031 60.6463L82.5126 57.7842L79.9681 53.1299L77.0573 50.1557L73.9669 48.0166L71.2841 46.9965L68.0648 45.8865L62.7642 45.5594L59.421 46.1435L56.6939 46.9565L51.8545 49.7017L48.8302 52.9729L46.0411 57.3631L44.9443 61.0994L44.739 66.7687L45.7852 70.6339L48.0924 75.0342L49.7186 77.1593L51.9691 79.1594L54.7788 81.0015L58.2437 82.4626L64.0416 83.1216L67.0701 83.2037L71.5503 81.9806L75.5559 79.8495L78.1325 77.7183L80.1311 75.4082L82.9563 70.0479L83.5795 66.3807L83.4031 60.6463Z" fill="#09204D"/>
<path d="M62.8695 48.1357L60.4951 50.418L64.3679 51.9402L67.249 48.4768L62.8695 48.1357Z" fill="#0E56D7"/>
<path d="M64.3656 51.9362L71.8635 51.7152L67.2467 48.4728L64.3656 51.9362Z" fill="#1053D1"/>
<path d="M71.3101 48.4458L67.2506 48.4698L71.8674 51.7122L76.1364 51.4422L71.3101 48.4458Z" fill="#0B4FBF"/>
<path d="M76.1288 51.4462L73.7017 48.2028L77.0606 50.153L76.1288 51.4462Z" fill="#0B48B0"/>
<path d="M79.3481 53.4363L76.1348 51.45L77.0666 50.1569L79.3481 53.4363Z" fill="#0C45A7"/>
<path d="M76.1286 51.4459L75.5909 53.6682L78.5298 54.8073L76.1286 51.4459Z" fill="#0F46AF"/>
<path d="M76.1286 51.4459L79.342 53.4322L78.5299 54.8073L76.1286 51.4459Z" fill="#0C47AD"/>
<path d="M71.8671 51.716L76.1361 51.4459L75.5985 53.6682L71.8671 51.716Z" fill="#0E4FC3"/>
<path d="M71.8673 51.7159L68.494 54.6763L72.8353 56.7366L71.8673 51.7159Z" fill="#174DCA"/>
<path d="M64.3656 51.9359L71.8635 51.7148L68.4901 54.6752L64.3656 51.9359Z" fill="#1650D4"/>
<path d="M75.592 53.666L77.6332 57.5045L78.5309 54.8052L75.592 53.666Z" fill="#1246B2"/>
<path d="M77.6351 57.5063L78.5328 54.807L80.672 59.7376L77.6351 57.5063Z" fill="#133EA1"/>
<path d="M78.5328 54.806L81.7926 57.1203L80.672 59.7366L78.5328 54.806Z" fill="#103D98"/>
<path d="M79.348 53.436L79.9774 53.131L81.7957 57.1255L79.348 53.436Z" fill="#0B3785"/>
<path d="M81.7936 57.1265L82.52 57.7865L79.9753 53.132L81.7936 57.1265Z" fill="#0B3685"/>
<path d="M81.7938 57.1267L79.3461 53.4372L78.534 54.8124L81.7938 57.1267ZM77.0645 50.1578L79.3461 53.4372L79.9755 53.1372L77.0645 50.1578Z" fill="#0C3B91"/>
<path d="M83.2483 62.877L82.5219 57.7783L83.4124 60.6407L83.237 62.877H83.2483Z" fill="#0B3279"/>
<path d="M81.7934 57.1262L83.2463 62.8849L82.5199 57.7863L81.7934 57.1262Z" fill="#0F388D"/>
<path d="M80.6687 59.7366L83.2423 62.879L81.7894 57.1202L80.6687 59.7366Z" fill="#0D3481"/>
<path d="M83.238 62.8767L83.4134 60.6404L83.5899 66.3751L83.2493 62.8767H83.238Z" fill="#0B2E71"/>
<path d="M82.8149 67.4171L83.5868 66.383L83.2463 62.8845L82.8149 67.4171Z" fill="#0E2F77"/>
<path d="M82.9594 70.0472L82.3423 70.3353L83.5827 66.3798L82.9594 70.0472Z" fill="#0E2969"/>
<path d="M82.3403 70.3372L83.5807 66.3817L82.8088 67.4158L82.3403 70.3372Z" fill="#0C2A69"/>
<path d="M82.815 67.4171L83.2464 62.8845L81.9245 64.3957L82.815 67.4171Z" fill="#123180"/>
<path d="M82.3404 70.3371L82.8089 67.4158L80.259 71.5693L82.3404 70.3371Z" fill="#112B70"/>
<path d="M80.6687 59.7365L83.2423 62.8788L81.9204 64.39L80.6687 59.7365Z" fill="#12378C"/>
<path d="M82.8151 67.417L81.9245 64.3956L80.58 68.1161L82.8151 67.417Z" fill="#122E7B"/>
<path d="M80.1321 75.4076L82.3404 70.335L80.2745 74.0324L80.1321 75.4076Z" fill="#11296C"/>
<path d="M80.2766 74.0275L82.3425 70.3301L80.2611 71.5622L80.2766 74.0275Z" fill="#142A72"/>
<path d="M82.3408 70.3371L80.1325 75.4067L82.9579 70.046L82.3408 70.3371ZM78.1347 77.72L80.1325 75.4097L80.2749 74.0345L78.1347 77.72ZM75.5549 79.8512L78.1347 77.72L75.4105 78.9341L75.5549 79.8512Z" fill="#112768"/>
<path d="M60.517 81.3276L57.9135 81.9457L57.9929 80.1835L60.517 81.3276Z" fill="#1C226A"/>
<path d="M46.0505 57.3563L46.7687 57.0983L44.9536 61.0928L46.0505 57.3563Z" fill="#182B7A"/>
<path d="M44.9464 61.0967L46.3209 60.8486L46.7615 57.1022L44.9464 61.0967Z" fill="#1F308D"/>
<path d="M45.0289 65.8971L44.9464 61.0995L46.3209 60.8514L45.0289 65.8971Z" fill="#1E2B7F"/>
<path d="M75.5921 53.666L72.8288 56.7342L77.633 57.5042L75.5921 53.666ZM51.4779 50.5198L55.0047 48.1807L51.8566 49.6988L51.4779 50.5198Z" fill="#1346B5"/>
<path d="M51.8597 49.696L56.6993 46.9507L55.008 48.1798L51.8597 49.696Z" fill="#1244AC"/>
<path d="M55.0068 48.1858L59.4254 46.1436L56.6981 46.9567L55.0068 48.1858Z" fill="#0E4AB6"/>
<path d="M71.8671 51.7159L72.8349 56.7362L75.5982 53.668L71.8671 51.7159ZM57.6999 47.9447L61.8169 46.3446L59.4272 46.1366L57.6999 47.9447Z" fill="#0E4BBA"/>
<path d="M62.7665 45.5555L59.4231 46.1396L61.813 46.3476L62.7665 45.5555Z" fill="#0A4EBC"/>
<path d="M65.9343 46.3056L61.819 46.3446L62.7725 45.5525" fill="#0C54CC"/>
<path d="M73.7043 48.2058L71.3051 48.4529L76.1313 51.4532L73.7043 48.2058ZM65.9309 46.3146L71.2896 46.9987L68.0701 45.8885L65.9309 46.3146Z" fill="#0B4BB4"/>
<path d="M73.704 48.2059L71.2893 46.9967L73.9723 48.0168L73.704 48.2059Z" fill="#0C3889"/>
<path d="M45.7924 70.6269L47.3804 71.89L45.0381 65.8896L45.7924 70.6269ZM67.6572 82.5576L69.0501 79.3794L63.9745 80.7005L67.6572 82.5576ZM69.0501 79.3794L73.2931 80.5205L73.55 77.3403L69.0501 79.3794Z" fill="#202575"/>
<path d="M75.4167 78.9279L73.549 77.3457L78.0615 74.4393L75.4167 78.9279Z" fill="#1B2773"/>
<path d="M78.0584 74.4373L75.4136 78.9259L78.1378 77.7117L80.278 74.0262L78.0584 74.4373Z" fill="#15276D"/>
<path d="M73.9723 48.0159L73.704 48.2049L77.0628 50.1551L73.9723 48.0159ZM71.3048 48.4519L73.704 48.2049L71.2893 46.9957L71.3048 48.4519Z" fill="#0C409D"/>
<path d="M62.7662 45.5555L65.928 46.3086L68.0672 45.8826L62.7662 45.5555ZM71.2867 46.9927L65.928 46.3086L71.3022 48.4489L71.2867 46.9927Z" fill="#0B4CB7"/>
<path d="M65.934 46.3055L67.2487 48.4698L71.3082 48.4458L65.934 46.3055Z" fill="#0B55CE"/>
<path d="M65.9342 46.3055L67.2489 48.4698L62.8694 48.1288L65.9342 46.3055Z" fill="#0A52C5"/>
<path d="M61.817 46.3456L62.8674 48.1299L65.9322 46.3066L61.817 46.3456Z" fill="#0951C4"/>
<path d="M57.6999 47.9458L61.8172 46.3496L62.8677 48.1338L57.6999 47.9458Z" fill="#0B50C4"/>
<path d="M55.0068 48.1858L57.698 47.9478L59.4254 46.1476L55.0068 48.1858ZM57.698 47.9478L60.4914 50.4181L62.8648 48.1358L57.698 47.9478Z" fill="#0F4DBF"/>
<path d="M57.7002 47.9457L53.1526 52.0792L55.009 48.1837L57.7002 47.9457Z" fill="#1546B6"/>
<path d="M53.1495 52.0761L56.0512 52.5432L57.6971 47.9426L53.1495 52.0761Z" fill="#1549BD"/>
<path d="M56.049 52.5463L57.6948 47.9457L60.4882 50.416L56.049 52.5463Z" fill="#144BC3"/>
<path d="M48.8364 52.9661L49.0129 54.6283L51.4822 50.5178L48.8364 52.9661Z" fill="#173794"/>
<path d="M46.7624 57.1065L48.8334 52.974L49.0099 54.6362L46.7624 57.1065Z" fill="#192F84"/>
<path d="M49.0118 54.6364L51.4811 50.5259L53.1518 52.0821L49.0118 54.6364Z" fill="#1A389B"/>
<path d="M48.8572 58.1965L49.0068 54.6321L46.7593 57.1024L48.8572 58.1965Z" fill="#1D3089"/>
<path d="M48.8571 58.1965L49.0067 54.6321L51.9239 56.9274L48.8571 58.1965Z" fill="#1E389F"/>
<path d="M51.932 56.9265L53.1549 52.0769L49.0148 54.6312L51.932 56.9265Z" fill="#1C40AF"/>
<path d="M51.9319 56.9265L53.1547 52.0769L56.0564 52.544L51.9319 56.9265Z" fill="#1E41B7"/>
<path d="M46.3187 60.8467L46.7593 57.1002L48.8572 58.1944L46.3187 60.8467Z" fill="#192C7D"/>
<path d="M67.6571 82.5678L71.5585 81.9807L73.2931 80.5306L67.6571 82.5678ZM44.7502 66.7668L45.0381 65.8948L44.9556 61.0945L44.7502 66.7668ZM46.33 60.8495L45.0381 65.8948L47.3804 71.8951L46.234 64.9447L46.33 60.8495Z" fill="#162467"/>
<path d="M47.3712 71.8973L49.3039 72.1603L47.9501 69.0979L47.3712 71.8973Z" fill="#1A236A"/>
<path d="M75.4166 78.9275L73.2921 80.5276L71.5575 81.9777L75.5631 79.8466L75.4166 78.9275ZM64.0457 83.1167L67.0742 83.1987L71.5544 81.9757L67.653 82.5627L64.0457 83.1167ZM49.1769 75.3743L51.2075 75.7523L49.3059 72.1521L49.1769 75.3743Z" fill="#132668"/>
<path d="M57.9991 80.1877L54.56 77.6215L53.1309 78.9546L57.9197 81.9498L57.9991 80.1877ZM45.7924 70.6321L48.0996 75.0324L47.3774 71.8952L45.7924 70.6321ZM44.7462 66.7669L45.7924 70.6321L45.034 65.8948L44.7462 66.7669ZM63.9694 80.7077L57.995 80.1867L60.5189 81.3307L57.9156 81.9488L54.7819 81.0027L58.2468 82.4638L64.0447 83.1228L67.6561 82.5688L63.9694 80.7077ZM49.3069 72.1572L47.3784 71.8942L49.182 75.3764L49.3069 72.1572ZM46.231 64.9418L47.3784 71.8942L47.9572 69.094L46.231 64.9418ZM51.2086 75.7524L49.1779 75.3744L48.1007 75.0294L49.7269 77.1545L51.9773 79.1546L54.7839 81.0007L53.133 78.9556L51.2086 75.7524Z" fill="#1B2268"/>
<path d="M46.3187 60.8465L49.046 64.9361L48.8572 58.1942L46.3187 60.8465Z" fill="#212A81"/>
<path d="M46.2361 64.9467L47.9583 69.1003L49.0563 64.9427L46.2361 64.9467Z" fill="#21267A"/>
<path d="M47.949 69.0972L49.047 64.9397L50.4101 68.2251L47.949 69.0972Z" fill="#262781"/>
<path d="M49.311 72.1574L54.5407 75.2988L50.4182 68.2229L49.311 72.1574Z" fill="#272379"/>
<path d="M48.1038 75.0273L49.1841 75.3723L47.3815 71.8901L48.1038 75.0273ZM59.6501 76.8344L57.9991 80.1826L63.9735 80.7037L59.6501 76.8344ZM49.311 72.1532L51.2127 75.7534L53.133 78.9536L54.5621 77.6205L54.5404 75.2983L49.311 72.1532Z" fill="#1E226D"/>
<path d="M73.5497 77.3475L73.2927 80.5279L75.4174 78.9277L73.5497 77.3475ZM64.4059 76.8904L63.9715 80.7079L69.0495 79.3868L68.8689 75.0952L64.4059 76.8904Z" fill="#222475"/>
<path d="M46.2361 64.9467H49.0561L46.3289 60.8574L46.2361 64.9467ZM68.8747 75.0973L69.0553 79.3885L73.5551 77.3494L68.8747 75.0973Z" fill="#23277D"/>
<path d="M68.8644 75.0975L71.761 72.5552L73.5452 77.3498L68.8644 75.0975Z" fill="#1E2776"/>
<path d="M73.5491 77.3478L75.7388 70.92L71.765 72.5533L73.5491 77.3478Z" fill="#222B86"/>
<path d="M78.0584 74.4376L73.5459 77.3439L75.7356 70.9161L78.0584 74.4376Z" fill="#192974"/>
<path d="M80.2666 71.5671L75.7396 70.922L78.0625 74.4434L80.2821 74.0324L80.2666 71.5671Z" fill="#172A75"/>
<path d="M80.5762 68.1068L75.7344 70.9162L80.2614 71.5613L82.8113 67.4067L80.5762 68.1068Z" fill="#172D7D"/>
<path d="M46.7624 57.1062L48.8333 52.974L46.0473 57.3643L46.7624 57.1062ZM78.7701 62.2215L80.5758 68.1149L81.9172 64.3947L78.7701 62.2215Z" fill="#18338A"/>
<path d="M81.9174 64.387L80.6657 59.7334L78.767 62.2137L81.9174 64.387Z" fill="#153791"/>
<path d="M75.7365 70.9173L80.5782 68.108L75.8861 66.0837L75.7365 70.9173Z" fill="#1B318B"/>
<path d="M75.7368 70.9174L71.3491 66.6208L71.7629 72.5506L75.7368 70.9174Z" fill="#242D8D"/>
<path d="M68.8647 75.0975L65.4955 72.2062L71.7612 72.5552L68.8647 75.0975Z" fill="#2A2B8F"/>
<path d="M49.3111 72.1571L50.4182 68.2229L47.9573 69.095L49.3111 72.1571ZM65.5007 72.2021L64.4069 76.8904L68.8676 75.0953L65.5007 72.2021Z" fill="#27267F"/>
<path d="M58.5257 73.1673L55.2834 71.5691L54.5374 75.3026L59.6494 76.8427L64.4076 76.8948L58.5257 73.1673Z" fill="#2D2381"/>
<path d="M64.4072 76.8878L65.499 72.2012L58.5253 73.1603L64.4072 76.8878Z" fill="#2F2485"/>
<path d="M49.0531 64.937L50.4513 60.6085L48.8643 58.1952L49.0531 64.937Z" fill="#233196"/>
<path d="M51.9319 56.9264L58.0718 55.1921L54.8285 61.6139L51.9319 56.9264Z" fill="#293CB7"/>
<path d="M75.7368 70.9173L71.3491 66.6208L75.8864 66.0837L75.7368 70.9173Z" fill="#25339C"/>
<path d="M80.5761 68.1072L78.7703 62.2135L75.884 66.083L80.5761 68.1072Z" fill="#19348F"/>
<path d="M71.7643 72.5575L66.7461 67.855L71.3505 66.6278L71.7643 72.5575Z" fill="#2A309A"/>
<path d="M65.5006 72.2074L71.7664 72.5565L66.7482 67.8539L65.5006 72.2074Z" fill="#302B96"/>
<path d="M65.5009 72.2074L62.0698 69.4991L66.7484 67.8539L65.5009 72.2074Z" fill="#3630A7"/>
<path d="M51.4779 50.5258L51.8566 49.7028L48.8323 52.974L51.4779 50.5258ZM77.6351 57.5102L78.7701 62.2215L80.6687 59.7413L77.6351 57.5102Z" fill="#173DA2"/>
<path d="M51.932 56.9261L54.8286 61.6137L50.4523 60.6086L51.932 56.9261Z" fill="#2A36A8"/>
<path d="M50.4461 60.6064L54.8224 61.6116L51.8629 66.1291L50.4461 60.6064Z" fill="#312E9F"/>
<path d="M58.0715 55.1964L60.4955 50.4178L56.0562 52.5481L58.0715 55.1964Z" fill="#184DCD"/>
<path d="M49.0531 64.9366L51.8682 66.1308L50.4163 68.2221L49.0531 64.9366Z" fill="#272986"/>
<path d="M51.87 66.1367L50.4182 68.228L54.5406 75.3039L55.2867 71.5704L51.87 66.1367Z" fill="#2C2584"/>
<path d="M55.2856 71.5676L55.7417 64.9938L51.869 66.1339L55.2856 71.5676Z" fill="#32268B"/>
<path d="M55.2854 71.5676L62.0702 69.4983L55.7415 64.9938L55.2854 71.5676Z" fill="#372999"/>
<path d="M62.065 69.4973L61.4036 64.4147L55.7363 64.9927L62.065 69.4973Z" fill="#392DA5"/>
<path d="M61.4042 64.4167L66.1902 62.6825L66.7444 67.8541L61.4042 64.4167Z" fill="#3338BC"/>
<path d="M58.5253 73.1673L65.499 72.2082L62.0679 69.4999L58.5253 73.1673Z" fill="#362896"/>
<path d="M58.5256 73.1673L55.2833 71.5691L62.0681 69.4999L58.5256 73.1673Z" fill="#35268F"/>
<path d="M58.0714 55.1964L62.2269 55.6225L60.4954 50.4178L58.0714 55.1964Z" fill="#2648D3"/>
<path d="M64.3658 51.936L60.493 50.4138L62.2246 55.6185L64.3658 51.936Z" fill="#1057DC"/>
<path d="M64.3657 51.9359L68.4902 54.6753L62.2245 55.6184L64.3657 51.9359Z" fill="#1653DA"/>
<path d="M62.2194 55.6162L68.3654 58.7756L66.1871 62.6771L62.2194 55.6162Z" fill="#2B46D5"/>
<path d="M68.3696 58.7766L68.4893 54.6741L62.2235 55.6172L68.3696 58.7766Z" fill="#244AD7"/>
<path d="M68.3691 58.7766L68.4888 54.6741L72.8301 56.7343L68.3691 58.7766Z" fill="#2547CF"/>
<path d="M62.2196 55.6162L66.1873 62.6771L59.2291 59.2987L62.2196 55.6162Z" fill="#333CC5"/>
<path d="M61.4044 64.417L66.1903 62.6827L59.2322 59.3043L61.4044 64.417Z" fill="#3833B6"/>
<path d="M66.192 62.6768L72.3287 61.5896L68.3703 58.7753L66.192 62.6768Z" fill="#2A41C6"/>
<path d="M72.827 56.7362L72.3244 61.5928L68.366 58.7785L72.827 56.7362Z" fill="#2045C1"/>
<path d="M72.8268 56.7362L75.7233 60.5497L72.3242 61.5928L72.8268 56.7362Z" fill="#1B43B7"/>
<path d="M77.6354 57.5063L72.8308 56.7362L75.7274 60.5497L77.6354 57.5063Z" fill="#1742AF"/>
<path d="M53.1598 52.0759L55.0171 48.1757L51.4903 50.5148L53.1598 52.0759ZM77.6454 57.5042L75.7376 60.5474L78.7835 62.2155L77.6454 57.5042Z" fill="#1740A9"/>
<path d="M75.8913 66.0871L78.7775 62.2176L75.7313 60.5494L75.8913 66.0871Z" fill="#1B3CA4"/>
<path d="M75.8916 66.0871L75.7316 60.5494L72.3325 61.5926L75.8916 66.0871Z" fill="#1F3DAD"/>
<path d="M51.9319 56.9262L58.0713 55.1921L56.0562 52.5439L51.9319 56.9262ZM66.1919 62.6785L71.3512 66.6228L72.3293 61.5915L66.1919 62.6785Z" fill="#2543C3"/>
<path d="M66.7492 67.8472L71.3536 66.62L66.1951 62.6755L66.7492 67.8472Z" fill="#2E37B2"/>
<path d="M58.0714 55.196L59.2364 59.3046L62.2269 55.6221L58.0714 55.196Z" fill="#2D40C7"/>
<path d="M58.0715 55.196L54.8282 61.6178L59.2366 59.3046L58.0715 55.196Z" fill="#3537B8"/>
<path d="M59.2375 59.3064L55.7424 64.9971L61.4097 64.419L59.2375 59.3064Z" fill="#3931B0"/>
<path d="M61.4046 64.417L62.0661 69.4996L66.7448 67.8544L61.4046 64.417ZM55.7353 64.995L59.2304 59.3043L54.8221 61.6176L55.7353 64.995Z" fill="#3735B8"/>
<path d="M51.8699 66.1371L54.8295 61.6195L55.7427 64.9969L51.8699 66.1371Z" fill="#342892"/>
<path d="M54.7798 81.0076L57.9135 81.9576L53.1247 78.9625L54.7798 81.0076ZM54.5538 77.6294L57.9929 80.1955L59.6439 76.8473L54.5321 75.3073L54.5538 77.6294ZM63.9673 80.7166L64.4017 76.8993L59.6439 76.8473L63.9673 80.7166ZM69.0429 79.3915L67.6499 82.5697L73.2859 80.5326L69.0429 79.3915Z" fill="#232372"/>
<path d="M49.0531 64.9369L50.4513 60.6084L51.8682 66.1311L49.0531 64.9369Z" fill="#2A2F96"/>
<path d="M50.446 60.6064L51.9257 56.9242L48.8601 58.1983L50.446 60.6064ZM72.3211 61.5895L71.3429 66.6208L75.883 66.0837L72.3211 61.5895Z" fill="#2636A5"/>
<path d="M83.6714 66.3867V66.3787L83.4918 60.6444V60.6244L82.6024 57.7632V57.7572L80.0578 53.103L77.1253 50.0988H77.1192L74.0298 47.9617H74.0174L71.3346 46.9416H71.3161L68.0967 45.8315H68.0751L62.7745 45.5045H62.7518L59.4086 46.0895H59.3962L56.6711 46.9016H56.6536L51.8143 49.6298L48.791 52.8989L46.005 57.2882V57.2992L44.9071 61.0354V61.0494L44.7007 66.7188V66.7458L45.746 70.608V70.621L48.0522 75.0212V75.0282L49.6474 77.2064V77.2114L51.8968 79.2115H51.903L54.7127 81.0536H54.7189L58.1838 82.5137H58.2055L64.0034 83.1727H64.0117L67.0391 83.2547H67.0628L71.5431 82.0307H71.5586L75.5621 79.9005L75.5693 79.8955H75.5745L78.1541 77.7654L80.1517 75.4543L80.159 75.4443L82.9841 70.084V70.063L83.6033 66.3977V66.3887L83.6714 66.3867ZM52.0248 79.0975L51.4418 78.5795L52.7522 79.5745L52.0248 79.0975ZM60.5292 81.2506L58.481 80.3226L63.3307 80.7456L60.5292 81.2506ZM61.2752 64.3496L55.8993 64.8977L59.2146 59.4973L61.2752 64.3496ZM59.3993 59.4863L65.968 62.6755L61.4496 64.3096L59.3993 59.4863ZM61.3247 64.5146L61.95 69.3149L55.9654 65.0577L61.3247 64.5146ZM61.8716 69.4729L55.371 71.455L55.8075 65.1547L61.8716 69.4729ZM61.5105 64.5946L66.5469 67.8358L62.1347 69.3879L61.5105 64.5946ZM61.591 64.4426L66.1104 62.8045L66.6336 67.6888L61.591 64.4426ZM68.5342 58.8013L72.7225 56.8852L72.2499 61.4445L68.5342 58.8013ZM72.1065 61.5525L66.3488 62.5725L68.3939 58.9093L72.1065 61.5525ZM66.1847 62.5095L62.4391 55.8341L68.2494 58.8203L66.1847 62.5095ZM65.9784 62.4905L59.3663 59.2803L62.208 55.7801L65.9784 62.4905ZM55.7683 64.7826L54.9253 61.6645L58.9938 59.5303L55.7683 64.7826ZM55.2111 71.301L51.9959 66.1897L55.6383 65.1167L55.2111 71.301ZM61.7726 69.6819L58.5037 73.0661L55.5114 71.592L61.7726 69.6819ZM66.6129 67.9948L65.447 72.0651L62.2328 69.5329L66.6129 67.9948ZM66.2972 62.8785L71.1572 66.5938L66.8234 67.7508L66.2972 62.8785ZM66.3942 62.7365L72.2148 61.7065L71.2862 66.4777L66.3942 62.7365ZM72.4253 61.4815L72.8917 56.9722L75.5807 60.5124L72.4253 61.4815ZM75.6395 60.6714L75.7881 65.8347L72.4697 61.6455L75.6395 60.6714ZM68.4589 58.6503L68.5703 54.8181L72.6265 56.7432L68.4589 58.6503ZM68.2835 58.6503L62.4949 55.6741L68.396 54.7861L68.2835 58.6503ZM59.2693 59.1273L58.1849 55.3011L62.0553 55.7011L59.2693 59.1273ZM59.128 59.2703L55.0202 61.4215L58.0414 55.4401L59.128 59.2703ZM55.629 64.9427L52.064 65.9927L54.7891 61.8315L55.629 64.9427ZM54.9841 71.266L50.5307 68.2098L51.8586 66.2987L54.9841 71.266ZM55.3432 71.7001L58.3355 73.1741L54.656 75.1443L55.3432 71.7001ZM62.0718 69.6199L65.285 72.1561L58.7555 73.0561L62.0718 69.6199ZM66.7873 68.0198L71.5338 72.4641L65.6121 72.1351L66.7873 68.0198ZM66.9132 67.9018L71.2655 66.7418L71.6566 72.3481L66.9132 67.9018ZM72.3737 61.8015L75.72 66.0267L71.4543 66.5267L72.3737 61.8015ZM75.8149 60.7014L78.6391 62.2525L75.9563 65.8417L75.8149 60.7014ZM75.8448 60.5234L77.599 57.7322L78.6391 62.0565L75.8448 60.5234ZM75.7159 60.4014L73.0248 56.8592L77.4896 57.5742L75.7159 60.4014ZM68.6405 54.6591L71.801 51.8859L72.708 56.5912L68.6405 54.6591ZM62.3855 55.5131L64.3914 52.0639L68.2546 54.6301L62.3855 55.5131ZM58.1983 55.1291L60.4683 50.6488L62.0924 55.5291L58.1983 55.1291ZM54.8138 61.4445L52.0588 56.9862L57.898 55.3361L54.8138 61.4445ZM51.8978 65.9277L50.5647 60.7324L54.6818 61.6775L51.8978 65.9277ZM50.4295 68.0498L49.2078 65.1097L51.7307 66.1797L50.4295 68.0498ZM55.1812 71.61L54.494 75.0632L50.6761 68.5189L55.1812 71.61ZM58.4676 73.2951L59.5128 76.7173L54.754 75.2833L58.4676 73.2951ZM65.3809 72.3121L64.3439 76.7603L58.7627 73.2221L65.3809 72.3121ZM71.5451 72.6331L68.8624 74.9882L65.741 72.3101L71.5451 72.6331ZM71.4482 66.8518L75.5755 70.898L71.833 72.4361L71.4482 66.8518ZM71.5328 66.6938L75.7912 66.1937L75.6467 70.728L71.5328 66.6938ZM78.735 62.4145L80.4355 67.9658L76.0151 66.0597L78.735 62.4145ZM77.7703 57.7222L80.5449 59.7614L78.8103 62.0275L77.7703 57.7222ZM72.9949 56.6852L75.5745 53.826L77.4762 57.4022L72.9949 56.6852ZM72.8783 56.5562L71.9775 51.8829L75.4507 53.7L72.8783 56.5562ZM68.4775 54.576L64.6308 52.0219L71.6225 51.8159L68.4775 54.576ZM62.2421 55.4161L60.6293 50.5698L64.2356 51.9869L62.2421 55.4161ZM58.0487 55.0381L56.1821 52.5839L60.296 50.6088L58.0487 55.0381ZM57.9197 55.1541L52.1991 56.7702L56.0417 52.6869L57.9197 55.1541ZM54.6394 61.4935L50.5637 60.5574L51.9422 57.1282L54.6394 61.4935ZM51.7338 65.9937L49.1542 64.8987L50.4368 60.9314L51.7338 65.9937ZM50.2954 68.1808L48.0759 68.9679L49.0654 65.2177L50.2954 68.1808ZM54.2876 75.0592L49.4049 72.1261L50.4368 68.4519L54.2876 75.0592ZM59.26 76.8194L54.6405 77.5294L54.6209 75.4213L59.26 76.8194ZM58.6719 73.3682L64.1035 76.8104L59.7089 76.7624L58.6719 73.3682ZM65.547 72.3681L68.6993 75.0743L64.5245 76.7544L65.547 72.3681ZM71.7257 72.7101L73.3921 77.1864L69.0213 75.0862L71.7257 72.7101ZM71.8743 72.6101L75.5889 71.082L73.5397 77.0974L71.8743 72.6101ZM75.9707 66.2257L80.3901 68.1318L75.8304 70.778L75.9707 66.2257ZM78.929 62.4395L81.8182 64.4326L80.58 67.8458L78.929 62.4395ZM78.897 62.2085L80.6336 59.9404L81.7779 64.1966L78.897 62.2085ZM77.7372 57.4842L78.5359 55.0591L80.4561 59.4873L77.7372 57.4842ZM77.6165 57.2952L75.7736 53.839L78.4193 54.8641L77.6165 57.2952ZM72.1715 51.7949L76.0192 51.5509L75.5342 53.551L72.1715 51.7949ZM64.5534 51.8599L67.262 48.6027L71.604 51.6519L64.5534 51.8599ZM64.3935 51.7819L62.9984 48.2407L67.0742 48.5587L64.3935 51.7819ZM64.2118 51.7979L60.6489 50.3978L62.8333 48.2977L64.2118 51.7979ZM56.2068 52.3909L57.7391 48.1067L60.3404 50.4068L56.2068 52.3909ZM52.097 56.6382L53.2186 52.1869L55.8818 52.6159L52.097 56.6382ZM50.4316 60.4384L48.9932 58.2493L51.773 57.0992L50.4316 60.4384ZM50.3552 60.6384L49.1253 64.4386L48.9602 58.5123L50.3552 60.6384ZM48.9385 65.0387L47.9356 68.8389L46.362 65.0387H48.9385ZM46.3218 64.8727L46.4053 61.1434L48.8911 64.8697L46.3218 64.8727ZM50.2861 68.3729L49.2842 71.9101L48.0666 69.1529L50.2861 68.3729ZM54.2855 75.2613L51.2591 75.6763L49.5298 72.4041L54.2855 75.2613ZM54.4506 75.4093L54.4702 77.4874L51.4779 75.8183L54.4506 75.4093ZM59.4974 76.9614L57.9609 80.0635L54.7684 77.6814L59.4974 76.9614ZM59.6769 76.9924L63.7197 80.6106L58.126 80.1225L59.6769 76.9924ZM59.875 76.9394L64.3119 76.9884L63.9075 80.5456L59.875 76.9394ZM68.785 75.2393L68.9542 79.2575L64.606 76.9104L68.785 75.2393ZM68.9614 75.2543L73.3467 77.3644L69.1306 79.2745L68.9614 75.2543ZM75.7633 71.136L77.9405 74.4362L73.71 77.1604L75.7633 71.136ZM75.915 71.05L80.1063 71.6501L78.0602 74.3002L75.915 71.05ZM75.9924 70.89L80.4768 68.2899L80.1848 71.49L75.9924 70.89ZM81.9152 64.6896L82.7066 67.3748L80.7203 67.9968L81.9152 64.6896ZM80.8565 60.1094L83.1265 62.8815L81.9606 64.2156L80.8565 60.1094ZM78.7309 55.0601L81.6809 57.1542L80.6666 59.5213L78.7309 55.0601ZM75.6911 53.621L76.1668 51.6559L78.2903 54.6281L75.6911 53.621ZM71.9321 51.6349L71.4162 48.6347L75.8531 51.3889L71.9321 51.6349ZM71.7371 51.5349L67.5065 48.5657L71.2211 48.5427L71.7371 51.5349ZM63.1367 48.0767L65.8968 46.4346L67.0824 48.3847L63.1367 48.0767ZM60.4859 50.3088L57.93 48.0487L62.6569 48.2207L60.4859 50.3088ZM55.9901 52.4579L53.3362 52.0299L57.4956 48.2497L55.9901 52.4579ZM51.8731 56.7852L49.1573 54.6481L53.0112 52.2699L51.8731 56.7852ZM51.7575 56.9132L48.9519 58.0733L49.0881 54.8121L51.7575 56.9132ZM48.9509 64.6456L46.4301 60.8664L48.7765 58.4143L48.9509 64.6456ZM47.8582 69.1099L47.3804 71.422L46.4363 65.6807L47.8582 69.1099ZM47.9799 69.3859L49.1614 72.0591L47.4774 71.8311L47.9799 69.3859ZM51.0445 75.6453L49.2636 75.3103L49.3771 72.4881L51.0445 75.6453ZM54.4093 77.6454L53.1443 78.8245L51.4449 75.9933L54.4093 77.6454ZM54.56 77.7394L57.5988 80.0105L53.297 78.9205L54.56 77.7394ZM64.4739 77.0334L68.8077 79.3655L64.0612 80.6006L64.4739 77.0334ZM73.4437 77.4924L73.2064 80.4256L69.2947 79.3725L73.4437 77.4924ZM77.796 74.7172L75.3877 78.8105L73.6862 77.3644L77.796 74.7172ZM80.1693 71.8271L80.1817 73.9672L78.2552 74.3242L80.1693 71.8271ZM80.6522 68.1818L82.6127 67.5678L80.3798 71.21L80.6522 68.1818ZM82.0111 64.4176L83.1234 63.1466L82.7664 66.9598L82.0111 64.4176ZM80.7636 59.7313L81.7624 57.4002L83.0564 62.5295L80.7636 59.7313ZM78.6391 54.7911L79.3407 53.604L81.455 56.7902L78.6391 54.7911ZM78.5173 54.6561L76.4412 51.7559L79.219 53.472L78.5173 54.6561ZM71.5534 48.5167L73.6542 48.2997L75.7798 51.1408L71.5534 48.5167ZM67.2867 48.3967L66.13 46.4916L70.86 48.3757L67.2867 48.3967ZM62.889 48.0227L61.9604 46.4406L65.611 46.4046L62.889 48.0227ZM62.7033 48.0497L58.1054 47.8827L61.7695 46.4636L62.7033 48.0497ZM53.4167 51.7259L55.0677 48.2707L57.4553 48.0597L53.4167 51.7259ZM53.1206 51.9419L51.6161 50.5418L54.7922 48.4357L53.1206 51.9419ZM53.0081 52.0719L49.2656 54.381L51.5016 50.6658L53.0081 52.0719ZM48.7776 58.0653L46.8996 57.0862L48.9117 54.8751L48.7776 58.0653ZM48.7187 58.2263L46.4363 60.6094L46.8325 57.2442L48.7187 58.2263ZM46.136 64.9097L45.1713 65.6737L46.2103 61.6185L46.136 64.9097ZM46.1598 65.1097L47.1441 71.096L45.1269 65.9297L46.1598 65.1097ZM49.2078 72.2391L49.0954 75.0522L47.5228 72.0101L49.2078 72.2391ZM51.1446 75.8393L52.7501 78.5105L49.4544 75.5263L51.1446 75.8393ZM57.899 80.2596L57.8299 81.8046L53.6282 79.1775L57.899 80.2596ZM58.0714 80.3256L60.2527 81.3136L58.0033 81.8466L58.0714 80.3256ZM63.8796 80.8176L63.9477 82.9847L60.7789 81.3776L63.8796 80.8176ZM68.8892 79.5175L67.6035 82.4507L64.2046 80.7376L68.8892 79.5175ZM69.0956 79.4915L73.0052 80.5436L67.813 82.4207L69.0956 79.4915ZM73.6191 77.5264L75.2753 78.9265L73.388 80.3506L73.6191 77.5264ZM78.1138 74.5212L80.0228 74.1672L75.8376 78.3834L78.1138 74.5212ZM80.3622 73.7032L80.3488 71.616L82.1102 70.573L80.3622 73.7032ZM80.517 71.318L82.6529 67.8398L82.2598 70.289L80.517 71.318ZM83.2431 63.7976L83.4928 66.3577L82.9274 67.1148L83.2431 63.7976ZM81.941 57.3862L82.429 57.8302L82.9181 61.2604L81.941 57.3862ZM79.4645 53.474L79.9237 53.25L81.2527 56.1691L79.4645 53.474ZM76.2483 51.4299L77.0552 50.3108L79.0301 53.15L76.2483 51.4299ZM76.1224 51.3079L74.0195 48.4957L76.9314 50.1868L76.1224 51.3079ZM71.3852 48.3637L71.3718 47.1416L73.3983 48.1557L71.3852 48.3637ZM71.2098 48.3307L66.5779 46.4866L71.1964 47.0756L71.2098 48.3307ZM62.0481 46.2696L62.7858 45.6565L65.2303 46.2396L62.0481 46.2696ZM58.0239 47.7336L59.4571 46.2336L61.4403 46.4066L58.0239 47.7336ZM57.6535 47.8717L55.4866 48.0627L59.0516 46.4166L57.6535 47.8717ZM51.6832 50.2898L51.9226 49.7688L53.9151 48.8097L51.6832 50.2898ZM49.0675 54.372L48.922 53.009L51.0889 51.0088L49.0675 54.372ZM48.9169 54.6121L47.1194 56.5872L48.7755 53.287L48.9169 54.6121ZM46.2392 60.7844L45.0918 60.9914L46.6076 57.6562L46.2392 60.7844ZM46.201 60.9644L45.1042 65.2497L45.034 61.1744L46.201 60.9644ZM47.1679 71.635L45.8636 70.595L45.2383 66.6948L47.1679 71.635ZM48.9963 75.2353L48.1636 74.9702L47.6064 72.5511L48.9963 75.2353ZM52.5572 78.5635L49.7939 77.1114L49.3492 75.6633L52.5572 78.5635ZM53.0628 79.0235L54.2608 80.5036L50.5977 77.7224L53.0628 79.0235ZM53.5106 79.3025L57.3212 81.6856L54.8272 80.9296L53.5106 79.3025ZM60.5013 81.4246L63.4627 82.9247L58.3149 81.9417L60.5013 81.4246ZM64.056 80.8536L67.3703 82.5247L64.1231 83.0247L64.056 80.8536ZM72.8556 80.7756L71.5142 81.9017L68.4857 82.3567L72.8556 80.7756ZM75.3423 79.0895L75.4548 79.7895L73.7151 80.3106L75.3423 79.0895ZM79.8566 74.5732L78.0716 77.6594L75.7943 78.6745L79.8566 74.5732ZM80.356 74.0592L81.554 71.9141L80.2735 74.8572L80.356 74.0592ZM82.8882 67.4488L83.3401 66.8428L82.6178 69.1609L82.8882 67.4488ZM83.3236 62.8765L83.3174 62.8315L83.3628 62.2575L83.4082 63.7446L83.3236 62.8765ZM83.2029 62.0315L82.7509 58.8533L83.3112 60.6534L83.2029 62.0315ZM81.8615 57.0752L81.036 55.2601L82.1917 57.3752L81.8615 57.0752ZM79.3706 53.327L77.7197 50.9558L79.8246 53.106L79.3706 53.327ZM73.8585 48.2097L73.9689 48.1327L75.234 49.0097L73.8585 48.2097ZM73.6914 48.1167L72.8339 47.6876L73.7873 48.0507L73.6914 48.1167ZM66.452 46.2996L68.0596 45.9795L70.4782 46.8136L66.452 46.2996ZM65.9278 46.2316L63.7393 45.7095L67.4085 45.9355L65.9278 46.2316ZM61.7819 46.2706L60.0752 46.1216L62.4639 45.7035L61.7819 46.2706ZM55.759 47.7486L56.7351 47.0396L58.3097 46.5696L55.759 47.7486ZM54.9573 48.1187L54.1101 48.5267L55.4123 47.7887L54.9573 48.1187ZM51.4036 50.4808L50.3986 51.4109L51.547 50.1688L51.4036 50.4808ZM46.6963 57.0442L46.2495 57.2042L47.9861 54.471L46.6963 57.0442ZM46.1144 57.4332L46.5962 57.2602L45.3776 59.9434L46.1144 57.4332ZM44.9143 64.3966L44.9391 65.8897L44.8504 66.1617L44.9143 64.3966ZM44.9979 66.2717L45.4375 69.0169L44.8318 66.7768L44.9979 66.2717ZM47.2917 71.9501L47.8561 74.4002L46.0535 70.963L47.2917 71.9501ZM49.1026 75.4503L49.4947 76.7283L48.3277 75.2033L49.1026 75.4503ZM57.8567 82.0277L58.0198 82.2807L56.3069 81.5586L57.8567 82.0277ZM58.2963 82.3877L58.0899 82.0777L61.8159 82.7887L58.2963 82.3877ZM67.424 82.6877L67.0319 83.1177L64.9868 83.0627L67.424 82.6877ZM67.6953 82.6467L70.1336 82.2797L67.3332 83.0437L67.6953 82.6467ZM73.3292 80.6056L74.7593 80.1775L72.2416 81.5246L73.3292 80.6056ZM75.6199 79.6865L75.5074 78.9865L77.5969 78.0554L75.6199 79.6865ZM80.1455 74.4282L80.0475 75.3733L78.6731 76.9624L80.1455 74.4282ZM82.4084 70.398L82.7613 70.233L81.1444 73.3111L82.4084 70.398ZM82.8779 69.99L82.4816 70.176L83.2782 67.6358L82.8779 69.99Z" fill="url(#paint1_radial_166_13)"/>
<path d="M83.6714 66.3867V66.3787L83.4918 60.6444V60.6244L82.6024 57.7632V57.7572L80.0578 53.103L77.1253 50.0988H77.1192L74.0298 47.9617H74.0174L71.3346 46.9416H71.3161L68.0967 45.8315H68.0751L62.7745 45.5045H62.7518L59.4086 46.0895H59.3962L56.6711 46.9016H56.6536L51.8143 49.6298L48.791 52.8989L46.005 57.2882V57.2992L44.9071 61.0354V61.0494L44.7007 66.7188V66.7458L45.746 70.608V70.621L48.0522 75.0212V75.0282L49.6474 77.2064V77.2114L51.8968 79.2115H51.903L54.7127 81.0536H54.7189L58.1838 82.5137H58.2055L64.0034 83.1727H64.0117L67.0391 83.2547H67.0628L71.5431 82.0307H71.5586L75.5621 79.9005L75.5693 79.8955H75.5745L78.1541 77.7654L80.1517 75.4543L80.159 75.4443L82.9841 70.084V70.063L83.6033 66.3977V66.3887L83.6714 66.3867ZM52.0248 79.0975L51.4418 78.5795L52.7522 79.5745L52.0248 79.0975ZM60.5292 81.2506L58.481 80.3226L63.3307 80.7456L60.5292 81.2506ZM61.2752 64.3496L55.8993 64.8977L59.2146 59.4973L61.2752 64.3496ZM59.3993 59.4863L65.968 62.6755L61.4496 64.3096L59.3993 59.4863ZM61.3247 64.5146L61.95 69.3149L55.9654 65.0577L61.3247 64.5146ZM61.8716 69.4729L55.371 71.455L55.8075 65.1547L61.8716 69.4729ZM61.5105 64.5946L66.5469 67.8358L62.1347 69.3879L61.5105 64.5946ZM61.591 64.4426L66.1104 62.8045L66.6336 67.6888L61.591 64.4426ZM68.5342 58.8013L72.7225 56.8852L72.2499 61.4445L68.5342 58.8013ZM72.1065 61.5525L66.3488 62.5725L68.3939 58.9093L72.1065 61.5525ZM66.1847 62.5095L62.4391 55.8341L68.2494 58.8203L66.1847 62.5095ZM65.9784 62.4905L59.3663 59.2803L62.208 55.7801L65.9784 62.4905ZM55.7683 64.7826L54.9253 61.6645L58.9938 59.5303L55.7683 64.7826ZM55.2111 71.301L51.9959 66.1897L55.6383 65.1167L55.2111 71.301ZM61.7726 69.6819L58.5037 73.0661L55.5114 71.592L61.7726 69.6819ZM66.6129 67.9948L65.447 72.0651L62.2328 69.5329L66.6129 67.9948ZM66.2972 62.8785L71.1572 66.5938L66.8234 67.7508L66.2972 62.8785ZM66.3942 62.7365L72.2148 61.7065L71.2862 66.4777L66.3942 62.7365ZM72.4253 61.4815L72.8917 56.9722L75.5807 60.5124L72.4253 61.4815ZM75.6395 60.6714L75.7881 65.8347L72.4697 61.6455L75.6395 60.6714ZM68.4589 58.6503L68.5703 54.8181L72.6265 56.7432L68.4589 58.6503ZM68.2835 58.6503L62.4949 55.6741L68.396 54.7861L68.2835 58.6503ZM59.2693 59.1273L58.1849 55.3011L62.0553 55.7011L59.2693 59.1273ZM59.128 59.2703L55.0202 61.4215L58.0414 55.4401L59.128 59.2703ZM55.629 64.9427L52.064 65.9927L54.7891 61.8315L55.629 64.9427ZM54.9841 71.266L50.5307 68.2098L51.8586 66.2987L54.9841 71.266ZM55.3432 71.7001L58.3355 73.1741L54.656 75.1443L55.3432 71.7001ZM62.0718 69.6199L65.285 72.1561L58.7555 73.0561L62.0718 69.6199ZM66.7873 68.0198L71.5338 72.4641L65.6121 72.1351L66.7873 68.0198ZM66.9132 67.9018L71.2655 66.7418L71.6566 72.3481L66.9132 67.9018ZM72.3737 61.8015L75.72 66.0267L71.4543 66.5267L72.3737 61.8015ZM75.8149 60.7014L78.6391 62.2525L75.9563 65.8417L75.8149 60.7014ZM75.8448 60.5234L77.599 57.7322L78.6391 62.0565L75.8448 60.5234ZM75.7159 60.4014L73.0248 56.8592L77.4896 57.5742L75.7159 60.4014ZM68.6405 54.6591L71.801 51.8859L72.708 56.5912L68.6405 54.6591ZM62.3855 55.5131L64.3914 52.0639L68.2546 54.6301L62.3855 55.5131ZM58.1983 55.1291L60.4683 50.6488L62.0924 55.5291L58.1983 55.1291ZM54.8138 61.4445L52.0588 56.9862L57.898 55.3361L54.8138 61.4445ZM51.8978 65.9277L50.5647 60.7324L54.6818 61.6775L51.8978 65.9277ZM50.4295 68.0498L49.2078 65.1097L51.7307 66.1797L50.4295 68.0498ZM55.1812 71.61L54.494 75.0632L50.6761 68.5189L55.1812 71.61ZM58.4676 73.2951L59.5128 76.7173L54.754 75.2833L58.4676 73.2951ZM65.3809 72.3121L64.3439 76.7603L58.7627 73.2221L65.3809 72.3121ZM71.5451 72.6331L68.8624 74.9882L65.741 72.3101L71.5451 72.6331ZM71.4482 66.8518L75.5755 70.898L71.833 72.4361L71.4482 66.8518ZM71.5328 66.6938L75.7912 66.1937L75.6467 70.728L71.5328 66.6938ZM78.735 62.4145L80.4355 67.9658L76.0151 66.0597L78.735 62.4145ZM77.7703 57.7222L80.5449 59.7614L78.8103 62.0275L77.7703 57.7222ZM72.9949 56.6852L75.5745 53.826L77.4762 57.4022L72.9949 56.6852ZM72.8783 56.5562L71.9775 51.8829L75.4507 53.7L72.8783 56.5562ZM68.4775 54.576L64.6308 52.0219L71.6225 51.8159L68.4775 54.576ZM62.2421 55.4161L60.6293 50.5698L64.2356 51.9869L62.2421 55.4161ZM58.0487 55.0381L56.1821 52.5839L60.296 50.6088L58.0487 55.0381ZM57.9197 55.1541L52.1991 56.7702L56.0417 52.6869L57.9197 55.1541ZM54.6394 61.4935L50.5637 60.5574L51.9422 57.1282L54.6394 61.4935ZM51.7338 65.9937L49.1542 64.8987L50.4368 60.9314L51.7338 65.9937ZM50.2954 68.1808L48.0759 68.9679L49.0654 65.2177L50.2954 68.1808ZM54.2876 75.0592L49.4049 72.1261L50.4368 68.4519L54.2876 75.0592ZM59.26 76.8194L54.6405 77.5294L54.6209 75.4213L59.26 76.8194ZM58.6719 73.3682L64.1035 76.8104L59.7089 76.7624L58.6719 73.3682ZM65.547 72.3681L68.6993 75.0743L64.5245 76.7544L65.547 72.3681ZM71.7257 72.7101L73.3921 77.1864L69.0213 75.0862L71.7257 72.7101ZM71.8743 72.6101L75.5889 71.082L73.5397 77.0974L71.8743 72.6101ZM75.9707 66.2257L80.3901 68.1318L75.8304 70.778L75.9707 66.2257ZM78.929 62.4395L81.8182 64.4326L80.58 67.8458L78.929 62.4395ZM78.897 62.2085L80.6336 59.9404L81.7779 64.1966L78.897 62.2085ZM77.7372 57.4842L78.5359 55.0591L80.4561 59.4873L77.7372 57.4842ZM77.6165 57.2952L75.7736 53.839L78.4193 54.8641L77.6165 57.2952ZM72.1715 51.7949L76.0192 51.5509L75.5342 53.551L72.1715 51.7949ZM64.5534 51.8599L67.262 48.6027L71.604 51.6519L64.5534 51.8599ZM64.3935 51.7819L62.9984 48.2407L67.0742 48.5587L64.3935 51.7819ZM64.2118 51.7979L60.6489 50.3978L62.8333 48.2977L64.2118 51.7979ZM56.2068 52.3909L57.7391 48.1067L60.3404 50.4068L56.2068 52.3909ZM52.097 56.6382L53.2186 52.1869L55.8818 52.6159L52.097 56.6382ZM50.4316 60.4384L48.9932 58.2493L51.773 57.0992L50.4316 60.4384ZM50.3552 60.6384L49.1253 64.4386L48.9602 58.5123L50.3552 60.6384ZM48.9385 65.0387L47.9356 68.8389L46.362 65.0387H48.9385ZM46.3218 64.8727L46.4053 61.1434L48.8911 64.8697L46.3218 64.8727ZM50.2861 68.3729L49.2842 71.9101L48.0666 69.1529L50.2861 68.3729ZM54.2855 75.2613L51.2591 75.6763L49.5298 72.4041L54.2855 75.2613ZM54.4506 75.4093L54.4702 77.4874L51.4779 75.8183L54.4506 75.4093ZM59.4974 76.9614L57.9609 80.0635L54.7684 77.6814L59.4974 76.9614ZM59.6769 76.9924L63.7197 80.6106L58.126 80.1225L59.6769 76.9924ZM59.875 76.9394L64.3119 76.9884L63.9075 80.5456L59.875 76.9394ZM68.785 75.2393L68.9542 79.2575L64.606 76.9104L68.785 75.2393ZM68.9614 75.2543L73.3467 77.3644L69.1306 79.2745L68.9614 75.2543ZM75.7633 71.136L77.9405 74.4362L73.71 77.1604L75.7633 71.136ZM75.915 71.05L80.1063 71.6501L78.0602 74.3002L75.915 71.05ZM75.9924 70.89L80.4768 68.2899L80.1848 71.49L75.9924 70.89ZM81.9152 64.6896L82.7066 67.3748L80.7203 67.9968L81.9152 64.6896ZM80.8565 60.1094L83.1265 62.8815L81.9606 64.2156L80.8565 60.1094ZM78.7309 55.0601L81.6809 57.1542L80.6666 59.5213L78.7309 55.0601ZM75.6911 53.621L76.1668 51.6559L78.2903 54.6281L75.6911 53.621ZM71.9321 51.6349L71.4162 48.6347L75.8531 51.3889L71.9321 51.6349ZM71.7371 51.5349L67.5065 48.5657L71.2211 48.5427L71.7371 51.5349ZM63.1367 48.0767L65.8968 46.4346L67.0824 48.3847L63.1367 48.0767ZM60.4859 50.3088L57.93 48.0487L62.6569 48.2207L60.4859 50.3088ZM55.9901 52.4579L53.3362 52.0299L57.4956 48.2497L55.9901 52.4579ZM51.8731 56.7852L49.1573 54.6481L53.0112 52.2699L51.8731 56.7852ZM51.7575 56.9132L48.9519 58.0733L49.0881 54.8121L51.7575 56.9132ZM48.9509 64.6456L46.4301 60.8664L48.7765 58.4143L48.9509 64.6456ZM47.8582 69.1099L47.3804 71.422L46.4363 65.6807L47.8582 69.1099ZM47.9799 69.3859L49.1614 72.0591L47.4774 71.8311L47.9799 69.3859ZM51.0445 75.6453L49.2636 75.3103L49.3771 72.4881L51.0445 75.6453ZM54.4093 77.6454L53.1443 78.8245L51.4449 75.9933L54.4093 77.6454ZM54.56 77.7394L57.5988 80.0105L53.297 78.9205L54.56 77.7394ZM64.4739 77.0334L68.8077 79.3655L64.0612 80.6006L64.4739 77.0334ZM73.4437 77.4924L73.2064 80.4256L69.2947 79.3725L73.4437 77.4924ZM77.796 74.7172L75.3877 78.8105L73.6862 77.3644L77.796 74.7172ZM80.1693 71.8271L80.1817 73.9672L78.2552 74.3242L80.1693 71.8271ZM80.6522 68.1818L82.6127 67.5678L80.3798 71.21L80.6522 68.1818ZM82.0111 64.4176L83.1234 63.1466L82.7664 66.9598L82.0111 64.4176ZM80.7636 59.7313L81.7624 57.4002L83.0564 62.5295L80.7636 59.7313ZM78.6391 54.7911L79.3407 53.604L81.455 56.7902L78.6391 54.7911ZM78.5173 54.6561L76.4412 51.7559L79.219 53.472L78.5173 54.6561ZM71.5534 48.5167L73.6542 48.2997L75.7798 51.1408L71.5534 48.5167ZM67.2867 48.3967L66.13 46.4916L70.86 48.3757L67.2867 48.3967ZM62.889 48.0227L61.9604 46.4406L65.611 46.4046L62.889 48.0227ZM62.7033 48.0497L58.1054 47.8827L61.7695 46.4636L62.7033 48.0497ZM53.4167 51.7259L55.0677 48.2707L57.4553 48.0597L53.4167 51.7259ZM53.1206 51.9419L51.6161 50.5418L54.7922 48.4357L53.1206 51.9419ZM53.0081 52.0719L49.2656 54.381L51.5016 50.6658L53.0081 52.0719ZM48.7776 58.0653L46.8996 57.0862L48.9117 54.8751L48.7776 58.0653ZM48.7187 58.2263L46.4363 60.6094L46.8325 57.2442L48.7187 58.2263ZM46.136 64.9097L45.1713 65.6737L46.2103 61.6185L46.136 64.9097ZM46.1598 65.1097L47.1441 71.096L45.1269 65.9297L46.1598 65.1097ZM49.2078 72.2391L49.0954 75.0522L47.5228 72.0101L49.2078 72.2391ZM51.1446 75.8393L52.7501 78.5105L49.4544 75.5263L51.1446 75.8393ZM57.899 80.2596L57.8299 81.8046L53.6282 79.1775L57.899 80.2596ZM58.0714 80.3256L60.2527 81.3136L58.0033 81.8466L58.0714 80.3256ZM63.8796 80.8176L63.9477 82.9847L60.7789 81.3776L63.8796 80.8176ZM68.8892 79.5175L67.6035 82.4507L64.2046 80.7376L68.8892 79.5175ZM69.0956 79.4915L73.0052 80.5436L67.813 82.4207L69.0956 79.4915ZM73.6191 77.5264L75.2753 78.9265L73.388 80.3506L73.6191 77.5264ZM78.1138 74.5212L80.0228 74.1672L75.8376 78.3834L78.1138 74.5212ZM80.3622 73.7032L80.3488 71.616L82.1102 70.573L80.3622 73.7032ZM80.517 71.318L82.6529 67.8398L82.2598 70.289L80.517 71.318ZM83.2431 63.7976L83.4928 66.3577L82.9274 67.1148L83.2431 63.7976ZM81.941 57.3862L82.429 57.8302L82.9181 61.2604L81.941 57.3862ZM79.4645 53.474L79.9237 53.25L81.2527 56.1691L79.4645 53.474ZM76.2483 51.4299L77.0552 50.3108L79.0301 53.15L76.2483 51.4299ZM76.1224 51.3079L74.0195 48.4957L76.9314 50.1868L76.1224 51.3079ZM71.3852 48.3637L71.3718 47.1416L73.3983 48.1557L71.3852 48.3637ZM71.2098 48.3307L66.5779 46.4866L71.1964 47.0756L71.2098 48.3307ZM62.0481 46.2696L62.7858 45.6565L65.2303 46.2396L62.0481 46.2696ZM58.0239 47.7336L59.4571 46.2336L61.4403 46.4066L58.0239 47.7336ZM57.6535 47.8717L55.4866 48.0627L59.0516 46.4166L57.6535 47.8717ZM51.6832 50.2898L51.9226 49.7688L53.9151 48.8097L51.6832 50.2898ZM49.0675 54.372L48.922 53.009L51.0889 51.0088L49.0675 54.372ZM48.9169 54.6121L47.1194 56.5872L48.7755 53.287L48.9169 54.6121ZM46.2392 60.7844L45.0918 60.9914L46.6076 57.6562L46.2392 60.7844ZM46.201 60.9644L45.1042 65.2497L45.034 61.1744L46.201 60.9644ZM47.1679 71.635L45.8636 70.595L45.2383 66.6948L47.1679 71.635ZM48.9963 75.2353L48.1636 74.9702L47.6064 72.5511L48.9963 75.2353ZM52.5572 78.5635L49.7939 77.1114L49.3492 75.6633L52.5572 78.5635ZM53.0628 79.0235L54.2608 80.5036L50.5977 77.7224L53.0628 79.0235ZM53.5106 79.3025L57.3212 81.6856L54.8272 80.9296L53.5106 79.3025ZM60.5013 81.4246L63.4627 82.9247L58.3149 81.9417L60.5013 81.4246ZM64.056 80.8536L67.3703 82.5247L64.1231 83.0247L64.056 80.8536ZM72.8556 80.7756L71.5142 81.9017L68.4857 82.3567L72.8556 80.7756ZM75.3423 79.0895L75.4548 79.7895L73.7151 80.3106L75.3423 79.0895ZM79.8566 74.5732L78.0716 77.6594L75.7943 78.6745L79.8566 74.5732ZM80.356 74.0592L81.554 71.9141L80.2735 74.8572L80.356 74.0592ZM82.8882 67.4488L83.3401 66.8428L82.6178 69.1609L82.8882 67.4488ZM83.3236 62.8765L83.3174 62.8315L83.3628 62.2575L83.4082 63.7446L83.3236 62.8765ZM83.2029 62.0315L82.7509 58.8533L83.3112 60.6534L83.2029 62.0315ZM81.8615 57.0752L81.036 55.2601L82.1917 57.3752L81.8615 57.0752ZM79.3706 53.327L77.7197 50.9558L79.8246 53.106L79.3706 53.327ZM73.8585 48.2097L73.9689 48.1327L75.234 49.0097L73.8585 48.2097ZM73.6914 48.1167L72.8339 47.6876L73.7873 48.0507L73.6914 48.1167ZM66.452 46.2996L68.0596 45.9795L70.4782 46.8136L66.452 46.2996ZM65.9278 46.2316L63.7393 45.7095L67.4085 45.9355L65.9278 46.2316ZM61.7819 46.2706L60.0752 46.1216L62.4639 45.7035L61.7819 46.2706ZM55.759 47.7486L56.7351 47.0396L58.3097 46.5696L55.759 47.7486ZM54.9573 48.1187L54.1101 48.5267L55.4123 47.7887L54.9573 48.1187ZM51.4036 50.4808L50.3986 51.4109L51.547 50.1688L51.4036 50.4808ZM46.6963 57.0442L46.2495 57.2042L47.9861 54.471L46.6963 57.0442ZM46.1144 57.4332L46.5962 57.2602L45.3776 59.9434L46.1144 57.4332ZM44.9143 64.3966L44.9391 65.8897L44.8504 66.1617L44.9143 64.3966ZM44.9979 66.2717L45.4375 69.0169L44.8318 66.7768L44.9979 66.2717ZM47.2917 71.9501L47.8561 74.4002L46.0535 70.963L47.2917 71.9501ZM49.1026 75.4503L49.4947 76.7283L48.3277 75.2033L49.1026 75.4503ZM57.8567 82.0277L58.0198 82.2807L56.3069 81.5586L57.8567 82.0277ZM58.2963 82.3877L58.0899 82.0777L61.8159 82.7887L58.2963 82.3877ZM67.424 82.6877L67.0319 83.1177L64.9868 83.0627L67.424 82.6877ZM67.6953 82.6467L70.1336 82.2797L67.3332 83.0437L67.6953 82.6467ZM73.3292 80.6056L74.7593 80.1775L72.2416 81.5246L73.3292 80.6056ZM75.6199 79.6865L75.5074 78.9865L77.5969 78.0554L75.6199 79.6865ZM80.1455 74.4282L80.0475 75.3733L78.6731 76.9624L80.1455 74.4282ZM82.4084 70.398L82.7613 70.233L81.1444 73.3111L82.4084 70.398ZM82.8779 69.99L82.4816 70.176L83.2782 67.6358L82.8779 69.99Z" fill="url(#paint2_radial_166_13)"/>
<path d="M101.099 50.8358C99.3595 46.7836 95.8368 42.4083 93.0673 41.0262C95.0373 44.7197 96.4035 48.6872 97.1173 52.7869C97.1173 52.7779 97.1173 52.7949 97.1235 52.8239L97.1307 52.8649C100.218 61.414 99.7717 70.7896 95.8842 79.0265C91.2967 88.559 80.1899 98.3276 62.8034 97.8476C44.0239 97.3325 27.4731 83.8368 24.3879 66.1657C23.8256 63.3786 24.3879 61.9655 24.6706 59.7003C24.2833 61.4593 24.0663 63.2495 24.0226 65.0477V65.2477C24.056 74.9494 27.8371 84.2873 34.621 91.4214C41.4049 98.5555 50.6995 102.969 60.6737 103.791C70.6478 104.613 80.578 101.785 88.5078 95.8645C96.4376 89.9436 101.792 81.3589 103.516 71.802C103.583 71.302 103.637 70.807 103.697 70.307C104.523 63.7082 103.629 57.0142 101.099 50.8358Z" fill="url(#paint3_radial_166_13)"/>
<path d="M101.099 50.8358C99.3595 46.7836 95.8368 42.4083 93.0673 41.0262C95.0373 44.7197 96.4035 48.6872 97.1173 52.7869C97.1173 52.7779 97.1173 52.7949 97.1235 52.8239L97.1307 52.8649C100.218 61.414 99.7717 70.7896 95.8842 79.0265C91.2967 88.559 80.1899 98.3276 62.8034 97.8476C44.0239 97.3325 27.4731 83.8368 24.3879 66.1657C23.8256 63.3786 24.3879 61.9655 24.6706 59.7003C24.2833 61.4593 24.0663 63.2495 24.0226 65.0477V65.2477C24.056 74.9494 27.8371 84.2873 34.621 91.4214C41.4049 98.5555 50.6995 102.969 60.6737 103.791C70.6478 104.613 80.578 101.785 88.5078 95.8645C96.4376 89.9436 101.792 81.3589 103.516 71.802C103.583 71.302 103.637 70.807 103.697 70.307C104.523 63.7082 103.629 57.0142 101.099 50.8358Z" fill="url(#paint4_radial_166_13)"/>
<path d="M24.3797 66.1668C27.469 83.8378 44.0156 97.3386 62.8055 97.8486C80.192 98.3247 91.305 88.5551 95.8863 79.0275C99.7738 70.7907 100.221 61.4151 97.1328 52.866V52.829C97.1328 52.8 97.1266 52.783 97.1266 52.792L97.1349 52.857C98.5547 61.8345 93.8381 70.528 86.4656 76.4184L86.4429 76.4684C72.0694 87.7891 58.3149 83.2978 55.5289 81.4597C55.3334 81.3681 55.139 81.2741 54.9459 81.1777C46.5694 77.3024 43.1107 69.917 43.8536 63.5766C41.8657 63.6057 39.9117 63.0755 38.2283 62.0503C36.5449 61.0251 35.2044 59.5488 34.3689 57.8003C36.5691 56.4955 39.0772 55.758 41.6545 55.6581C44.2318 55.5581 46.7926 56.099 49.0933 57.2293C53.8357 59.3137 59.2309 59.519 64.1273 57.8013C64.1128 57.4863 57.1448 54.8011 54.428 52.211C52.9762 50.8259 52.2869 50.1589 51.6771 49.6578C51.3473 49.3875 51.0028 49.1345 50.6452 48.8998C50.4069 48.7428 50.1396 48.5728 49.8197 48.3687C46.8996 46.5306 41.0924 46.6326 40.9005 46.6366H40.8819C39.2939 44.6895 39.4064 38.2692 39.4972 36.9291C39.0263 37.1112 38.5767 37.3412 38.1558 37.6151C36.7554 38.583 35.4461 39.6689 34.2431 40.8603C32.8731 42.2057 31.6212 43.6595 30.5006 45.2066C27.9263 48.7373 26.1001 52.7279 25.1278 56.9473C25.1092 57.0313 23.6873 63.0516 24.3879 66.1738L24.3797 66.1668Z" fill="url(#paint5_radial_166_13)"/>
<path d="M78.1716 50.8758C79.632 52.2652 80.8826 53.8476 81.8863 55.5761C82.0945 55.7254 82.2952 55.8843 82.4878 56.0521C91.568 64.1526 86.8081 75.6033 86.4542 76.4133C93.8278 70.532 98.5474 61.8325 97.1235 52.8519C92.5958 41.9313 84.9168 37.521 78.6535 27.9305C78.3299 27.441 78.0154 26.9459 77.7104 26.4454C77.553 26.1843 77.406 25.9174 77.2698 25.6453C77.0089 25.1568 76.808 24.6402 76.6713 24.1063C76.6715 24.0817 76.6624 24.0579 76.6456 24.0395C76.6289 24.021 76.6057 24.0092 76.5805 24.0062C76.5559 23.9992 76.5298 23.9992 76.5052 24.0062L76.4856 24.0162L76.4557 24.0282C74.9079 24.7433 65.7245 38.8191 78.1706 50.8698L78.1716 50.8758Z" fill="url(#paint6_linear_166_13)"/>
<path d="M62.7662 45.5555L68.0668 45.8825L71.2861 46.9926L73.9689 48.0126L77.0593 50.1518L79.9701 53.1259L80.9813 54.975C81.2017 55.1093 81.4198 55.247 81.6355 55.3881C81.7232 55.4471 81.8027 55.5061 81.8842 55.5651C80.8801 53.8384 79.6296 52.2577 78.1696 50.8698C65.7255 38.8191 74.9048 24.7483 76.4526 24.0282L76.4732 24.0062C66.4159 29.7066 63.0077 40.2572 62.6878 45.5375V45.5675L62.7662 45.5555Z" fill="url(#paint7_linear_166_13)"/>
<path d="M49.8069 48.3663C50.0859 48.5377 50.3611 48.7148 50.6324 48.8974C49.7194 45.8065 49.6806 42.5346 50.5199 39.4242C46.8274 41.1556 43.5455 43.6106 40.8819 46.6341C41.079 46.6301 46.8866 46.5281 49.8069 48.3663Z" fill="url(#paint8_radial_166_13)"/>
<path d="M46.071 68.7569C46.071 68.7569 47.919 62.0895 59.2992 62.0895C60.5302 62.0895 64.0457 58.7643 64.1138 57.8002C59.2174 59.5179 53.8222 59.3126 49.0799 57.2282C46.7792 56.0979 44.2183 55.557 41.641 55.657C39.0637 55.7569 36.5556 56.4944 34.3555 57.7992C35.1909 59.5478 36.5315 61.024 38.2149 62.0492C39.8983 63.0745 41.8522 63.6046 43.8402 63.5756C43.0983 69.9119 46.5591 77.2964 54.9325 81.1766C55.1203 81.2636 55.2957 81.3586 55.4876 81.4416C50.5987 78.9945 46.5611 74.3712 46.0566 68.7609L46.071 68.7569Z" fill="url(#paint9_radial_166_13)"/>
<path d="M82.4848 56.0461C82.2922 55.8782 82.0915 55.7194 81.8832 55.5701C81.8017 55.5111 81.7223 55.4521 81.6346 55.3931C78.8173 53.5046 75.3775 52.6961 71.9806 53.1239C86.3852 60.0943 82.5157 84.0958 62.561 83.1857C60.7839 83.1156 59.0278 82.7876 57.3512 82.2126C56.9548 82.068 56.5626 81.9129 56.1749 81.7476C55.9499 81.6476 55.724 81.5476 55.5001 81.4356L55.5279 81.4526C58.3139 83.2907 72.058 87.784 86.4316 76.4573L86.4543 76.4073C86.8082 75.5913 91.564 64.1366 82.4879 56.0461H82.4848Z" fill="url(#paint10_radial_166_13)"/>
<path d="M101.089 50.8359C99.3492 46.7826 95.8265 42.4084 93.0571 41.0253C95.0276 44.7187 96.3949 48.6862 97.1101 52.786L97.1184 52.85C92.5917 41.9294 84.9117 37.5191 78.6484 27.9285C78.3243 27.4397 78.0098 26.945 77.7053 26.4445C77.5484 26.1829 77.4011 25.9161 77.2637 25.6444C77.004 25.1569 76.8038 24.6418 76.6673 24.1093C76.6675 24.0847 76.6583 24.061 76.6415 24.0425C76.6248 24.0241 76.6016 24.0123 76.5765 24.0093C76.5518 24.0028 76.5258 24.0028 76.5011 24.0093C76.495 24.0093 76.4867 24.0183 76.4805 24.0203C76.4743 24.0223 76.4609 24.0313 76.4516 24.0353L76.4681 24.0133C66.4108 29.7136 63.0026 40.2943 62.6827 45.5746L62.7642 45.5606L68.0648 45.8876L71.0479 46.9157L73.9669 48.0157L77.0573 50.1548L79.965 53.127C79.965 53.127 80.9659 54.9471 80.9793 54.9781C78.2892 53.3712 75.1087 52.7148 71.9765 53.12C86.381 60.0904 82.5116 84.0918 62.5568 83.1818C60.7799 83.1115 59.0239 82.7839 57.3471 82.2097C56.9577 82.0684 56.5656 81.9124 56.1708 81.7417C55.9432 81.6432 55.7182 81.5391 55.4959 81.4297L55.5238 81.4467C55.3281 81.3556 55.1338 81.2619 54.9408 81.1657C55.1276 81.2517 55.304 81.3467 55.4959 81.4297C50.6071 78.9835 46.5695 74.3593 46.0649 68.7489C46.0649 68.7489 47.9129 62.0815 59.2931 62.0815C60.5241 62.0815 64.0396 58.7563 64.1077 57.7923C64.0932 57.4773 57.1242 54.7921 54.4084 52.202C52.9566 50.8179 52.2673 50.1498 51.6565 49.6488C51.3254 49.3782 50.9792 49.1254 50.6195 48.8918C49.7068 45.8007 49.668 42.5288 50.507 39.4182C46.8146 41.1498 43.5329 43.605 40.8696 46.6286H40.851C39.264 44.6825 39.3765 38.2621 39.4663 36.9211C38.9957 37.1038 38.5461 37.3337 38.1249 37.6071C36.7243 38.575 35.4149 39.6613 34.2121 40.8533C32.8432 42.1966 31.5924 43.6484 30.4727 45.1936C27.9011 48.725 26.0771 52.7155 25.1061 56.9342C25.0865 57.0182 25.0711 57.1053 25.0525 57.1893C24.9772 57.5313 24.6397 59.2624 24.5902 59.6344C24.2814 61.424 24.0843 63.2301 24 65.0427V65.2427C24.0185 74.9544 27.793 84.3066 34.5783 91.4529C41.3637 98.5992 50.6668 103.02 60.6511 103.844C70.6354 104.667 80.5754 101.832 88.5088 95.8996C96.4422 89.967 101.792 81.3672 103.503 71.7981C103.572 71.2981 103.626 70.7981 103.686 70.298C104.51 63.6989 103.615 57.005 101.085 50.8269L101.089 50.8359Z" fill="url(#paint11_linear_166_13)"/>
<path d="M64.118 57.7963C64.118 57.7963 63.9488 57.8643 63.6351 57.9683C62.853 59.2494 60.0721 61.6955 59.0094 61.6905C47.6281 61.6425 45.7502 68.2369 45.7502 68.2369C45.9582 70.491 46.7234 72.6634 47.981 74.5702C46.9176 72.7881 46.2669 70.8031 46.0742 68.7529C46.0742 68.7529 47.9222 62.0855 59.3024 62.0855C60.5334 62.0855 64.0499 58.7603 64.118 57.7963Z" fill="url(#paint12_linear_166_13)"/>
<path d="M97.1265 52.866V52.829C97.1265 52.8 97.1204 52.783 97.1265 52.792C97.1327 52.801 97.1265 52.814 97.1338 52.857C96.8648 52.2095 96.5779 51.5693 96.2732 50.9369C96.17 50.7248 96.0668 50.5268 95.9585 50.3198C95.7573 49.9198 95.5581 49.5198 95.3497 49.1437C95.2207 48.9087 95.0856 48.6857 94.9535 48.4577C94.7595 48.1227 94.5676 47.7857 94.3684 47.4576C94.2219 47.2216 94.0713 46.9956 93.9227 46.7656C93.7277 46.4656 93.5337 46.1656 93.3345 45.8736C93.1767 45.6425 93.0147 45.4195 92.8547 45.1945C92.6556 44.9165 92.4575 44.6385 92.2542 44.3675C92.087 44.1435 91.9168 43.9244 91.7465 43.7054C91.5402 43.4444 91.341 43.1834 91.1357 42.9274C90.9596 42.7093 90.7821 42.4923 90.6032 42.2763C90.3969 42.0273 90.1905 41.7763 89.979 41.5313C89.7967 41.3173 89.6134 41.1043 89.429 40.8923C89.3258 40.7773 89.2299 40.6592 89.1287 40.5442L89.2567 40.6962C85.7753 36.73 82.0101 33.0748 78.6494 27.9255C78.3256 27.4361 78.0111 26.941 77.7062 26.4404C77.5488 26.1793 77.4018 25.9124 77.2657 25.6404C77.0392 25.2037 76.8547 24.7478 76.7146 24.2783C76.7074 24.2533 76.695 24.2153 76.6909 24.1953C76.683 24.1654 76.6755 24.1354 76.6682 24.1053C76.6684 24.0807 76.6592 24.0569 76.6425 24.0385C76.6257 24.02 76.6026 24.0082 76.5774 24.0053C76.5528 23.9982 76.5267 23.9982 76.5021 24.0053L76.4825 24.0163C76.4722 24.0207 76.4622 24.0257 76.4526 24.0313C76.3644 24.0786 76.2829 24.1368 76.2101 24.2043C76.1903 24.2204 76.171 24.2371 76.1523 24.2543C76.0401 24.3564 75.9343 24.4649 75.8355 24.5793L75.8242 24.5903C73.4293 27.3185 67.3032 39.2012 77.1748 49.8518C67.9326 39.3112 73.7574 27.9205 76.2885 24.9403C76.4233 25.3422 76.5885 25.734 76.7827 26.1124C76.9187 26.3846 77.0657 26.6515 77.2233 26.9124C77.5329 27.4255 77.8497 27.9125 78.1664 28.3965C84.4359 37.9891 92.117 42.3973 96.6364 53.318C96.6364 53.276 96.6292 53.26 96.6292 53.254C96.6292 53.248 96.6292 53.262 96.6344 53.291L96.6405 53.328C99.7296 61.8765 99.2843 71.2521 95.3982 79.4895C93.8062 82.7615 91.656 85.7496 89.0379 88.328C91.8732 85.6457 94.1907 82.4935 95.8811 79.0205C99.7675 70.7834 100.214 61.4082 97.1276 52.859L97.1265 52.866Z" fill="url(#paint13_linear_166_13)"/>
<path d="M76.4588 24.0332L76.4794 24.0112C67.4199 29.1485 63.7568 38.2221 62.8901 43.8224C64.3397 36.4971 68.6777 30.0076 74.9833 25.7313C75.3498 25.0712 75.8532 24.4917 76.4619 24.0292L76.4588 24.0332Z" fill="url(#paint14_linear_166_13)"/>
<path d="M86.4367 76.4574L86.4594 76.4073C86.8133 75.5913 91.5691 64.1366 82.493 56.0462C82.3004 55.8783 82.0997 55.7194 81.8914 55.5701C81.8099 55.5111 81.7305 55.4521 81.6428 55.3931C78.9273 53.5802 75.6378 52.7566 72.3562 53.068H72.3531C72.2313 53.0839 72.1099 53.1022 71.9888 53.123C86.2283 60.0154 82.6065 83.5548 63.2378 83.2047L63.3957 83.2137C83.0316 83.9618 86.901 60.6224 73.258 53.302C75.9395 53.316 78.5645 54.0506 80.841 55.4241C80.927 55.4789 81.012 55.5353 81.0959 55.5931C81.31 55.7335 81.5166 55.8844 81.715 56.0452C91.112 63.7926 86.8226 75.4163 86.5007 76.2463L86.48 76.2983" fill="url(#paint15_linear_166_13)"/>
<path d="M49.1975 57.6163C53.8092 59.4802 58.9737 59.6033 63.6743 57.9614C58.8925 59.5056 53.6856 59.2438 49.0943 57.2283C46.8264 56.1221 44.3088 55.5837 41.7711 55.6623C39.2334 55.7409 36.7564 56.434 34.566 57.6783L34.5134 57.7113H34.5082L34.4649 57.7393L34.4319 57.7613L34.4112 57.7753H34.405L34.3906 57.7853H34.3854L34.404 57.8283V57.8343L34.4267 57.8843V57.8943L34.4608 57.9663V57.9723C34.5427 58.1376 34.6304 58.3 34.7239 58.4594C35.6263 60.0322 36.9529 61.3376 38.5617 62.236C40.1706 63.1344 42.0012 63.5919 43.8577 63.5597C43.1355 69.706 46.3734 76.8405 54.2174 80.8007C46.7242 76.6154 43.5791 69.02 44.4511 62.9796C38.6655 62.8316 36.0787 59.4704 35.3389 58.0454C37.4647 56.9569 39.8186 56.3525 42.2216 56.278C44.6246 56.2035 47.0135 56.6608 49.2068 57.6153L49.1975 57.6163Z" fill="url(#paint16_linear_166_13)"/>
<path d="M50.6324 48.8764L50.4364 48.7654L50.6427 48.8974L50.6324 48.8764ZM50.5912 48.7344C49.7256 45.6904 49.7032 42.4792 50.5261 39.4242C46.997 41.0692 43.8456 43.3858 41.2596 46.236C43.7124 43.8514 46.571 41.8945 49.7099 40.4513C49.3386 43.2412 49.6402 46.0766 50.5912 48.7344Z" fill="url(#paint17_linear_166_13)"/>
<path d="M25.3455 70.227L25.3135 70.116C24.9274 68.8169 24.6174 67.4977 24.3849 66.1647C24.1269 64.5073 24.1269 62.8218 24.3849 61.1644C24.184 62.4497 24.0617 63.7454 24.0186 65.0447V65.2447C24.0208 73.2957 26.609 81.1465 31.4238 87.7072C36.2386 94.2679 43.0413 99.2133 50.8877 101.857C44.0845 99.3047 38.1196 95.0177 33.6241 89.4495C29.1285 83.8813 26.2696 77.2388 25.3496 70.225L25.3455 70.227Z" fill="url(#paint18_linear_166_13)"/>
<path d="M25.0246 66.3267C24.324 63.2045 25.7469 57.1852 25.7644 57.1002C26.7367 52.8808 28.5629 48.8902 31.1372 45.3595C32.2568 43.8143 33.5073 42.3622 34.8756 41.0182C36.0786 39.8269 37.3879 38.7409 38.7883 37.773C38.8437 37.7381 38.9002 37.7048 38.9576 37.673C38.9431 40.6212 39.1165 45.5965 40.5249 47.2276H40.5435C40.7364 47.2176 46.5643 46.9686 49.5453 48.7277C49.8765 48.9277 50.1489 49.0867 50.3924 49.2377C50.7594 49.4631 51.1138 49.7071 51.4542 49.9688C52.0795 50.4548 52.7894 51.1038 54.2845 52.4509C56.4514 54.402 61.1659 56.3421 63.2038 57.2662C61.2185 56.2971 56.5339 54.226 54.4218 52.2109C52.97 50.8258 52.2807 50.1588 51.6709 49.6577C51.3411 49.3874 50.9967 49.1344 50.639 48.8997C50.4007 48.7427 50.1334 48.5727 49.8136 48.3687C46.8934 46.5306 41.0862 46.6326 40.8943 46.6366H40.8757C39.425 44.8575 39.394 39.3431 39.4683 37.384C39.4683 37.308 39.4683 37.239 39.4766 37.174V37.047C39.4766 37.005 39.4766 36.964 39.4838 36.929C39.4838 36.929 39.4766 36.922 39.4673 36.922H39.4312L39.4085 36.93L39.3754 36.942L39.3435 36.955L39.3053 36.972L39.264 36.991L39.2227 37.011L39.1722 37.035L39.1319 37.056L39.0721 37.086L39.038 37.104C38.7365 37.2632 38.4392 37.4299 38.1465 37.604C36.7461 38.5719 35.4368 39.6578 34.2338 40.8492C32.8636 42.1985 31.6121 43.6563 30.4923 45.2075C27.918 48.7382 26.0918 52.7288 25.1195 56.9482C25.1009 57.0322 23.6749 63.0485 24.3797 66.1747C27.0088 81.2156 39.3827 93.2263 54.592 96.7865C39.6819 93.0393 27.6197 81.1556 25.0194 66.3247L25.0246 66.3267Z" fill="url(#paint19_linear_166_13)"/>
<path d="M101.099 50.8359C99.5655 47.2599 97.1532 44.1014 94.0724 41.6354L94.0012 41.5864C93.9226 41.5329 93.8435 41.4803 93.7638 41.4284C93.7343 41.4084 93.7043 41.3894 93.6741 41.3714C93.5984 41.3247 93.5241 41.2797 93.4512 41.2364L93.3645 41.1864C93.2666 41.1313 93.1675 41.0783 93.0674 41.0273C93.1747 41.2314 93.2799 41.4364 93.3831 41.6424C93.4479 41.7697 93.5119 41.8973 93.575 42.0254C95.2784 45.4305 96.4712 49.054 97.1173 52.786L97.1256 52.851C98.5454 61.8286 93.8289 70.5221 86.4563 76.4124L86.4336 76.4624C77.2678 83.6878 68.3558 84.4759 62.3814 83.6218C68.3362 84.6999 77.7249 84.2449 87.4036 76.6214L87.4252 76.5714C94.7988 70.6901 99.5184 61.9906 98.0945 53.01L98.0862 52.945C97.5301 49.6894 96.5492 46.5154 95.1671 43.4995C96.9198 45.3001 98.3945 47.337 99.5453 49.5468C102.421 55.474 103.694 62.0126 103.245 68.548C103.214 69.043 103.189 69.537 103.149 70.028C101.987 79.043 97.5828 87.3724 90.7118 93.5525C83.8409 99.7327 74.9424 103.368 65.5801 103.82C62.9409 103.964 60.2936 103.859 57.6752 103.508C68.0843 105.129 78.7332 102.709 87.3145 96.7735C95.8957 90.8377 101.718 81.8637 103.52 71.7962C103.587 71.2961 103.642 70.8011 103.702 70.3011C104.527 63.7023 103.634 57.0083 101.104 50.8299L101.099 50.8359Z" fill="url(#paint20_linear_166_13)"/>
</g>
<defs>
<filter id="filter0_d_166_13" x="8" y="12" width="112" height="112" filterUnits="userSpaceOnUse" color-interpolation-filters="sRGB">
<feFlood flood-opacity="0" result="BackgroundImageFix"/>
<feColorMatrix in="SourceAlpha" type="matrix" values="0 0 0 0 0 0 0 0 0 0 0 0 0 0 0 0 0 0 127 0" result="hardAlpha"/>
<feOffset dy="4"/>
<feGaussianBlur stdDeviation="8"/>
<feComposite in2="hardAlpha" operator="out"/>
<feColorMatrix type="matrix" values="0 0 0 0 0 0 0 0 0 0 0 0 0 0 0 0 0 0 0.5 0"/>
<feBlend mode="normal" in2="BackgroundImageFix" result="effect1_dropShadow_166_13"/>
<feBlend mode="normal" in="SourceGraphic" in2="effect1_dropShadow_166_13" result="shape"/>
</filter>
<linearGradient id="paint0_linear_166_13" x1="64" y1="0" x2="64" y2="128" gradientUnits="userSpaceOnUse">
<stop offset="0.00961538" stop-color="#364E82"/>
<stop offset="1" stop-color="#1B1B38"/>
</linearGradient>
<radialGradient id="paint1_radial_166_13" cx="0" cy="0" r="1" gradientUnits="userSpaceOnUse" gradientTransform="translate(66.1269 54.9427) scale(23.3712 22.6445)">
<stop offset="0.1" stop-color="#00DDFF" stop-opacity="0.4"/>
<stop offset="0.9" stop-color="#7542E5" stop-opacity="0.25"/>
</radialGradient>
<radialGradient id="paint2_radial_166_13" cx="0" cy="0" r="1" gradientUnits="userSpaceOnUse" gradientTransform="translate(63.8775 65.3902) scale(19.8733 19.2554)">
<stop offset="0.91" stop-color="#7542E5" stop-opacity="0"/>
<stop offset="1" stop-color="#00DDFF" stop-opacity="0.4"/>
</radialGradient>
<radialGradient id="paint3_radial_166_13" cx="0" cy="0" r="1" gradientUnits="userSpaceOnUse" gradientTransform="translate(92.8125 32.8405) scale(102.394 80.5631)">
<stop stop-color="#80EBFF"/>
<stop offset="0.26" stop-color="#00DDFF"/>
<stop offset="0.53" stop-color="#0090ED"/>
<stop offset="0.86" stop-color="#0060DF"/>
</radialGradient>
<radialGradient id="paint4_radial_166_13" cx="0" cy="0" r="1" gradientUnits="userSpaceOnUse" gradientTransform="translate(62.1974 66.2011) scale(102.394 80.5631)">
<stop offset="0.3" stop-color="#321C64" stop-opacity="0.8"/>
<stop offset="0.37" stop-color="#212F83" stop-opacity="0.5"/>
<stop offset="0.48" stop-color="#0A47AC" stop-opacity="0.14"/>
<stop offset="0.53" stop-color="#0250BB" stop-opacity="0"/>
</radialGradient>
<radialGradient id="paint5_radial_166_13" cx="0" cy="0" r="1" gradientUnits="userSpaceOnUse" gradientTransform="translate(91.6645 6.45247) scale(157.41 127.945)">
<stop stop-color="#80EBFF"/>
<stop offset="0.47" stop-color="#00B3F4"/>
<stop offset="0.84" stop-color="#0060DF"/>
<stop offset="1" stop-color="#592ACB"/>
</radialGradient>
<linearGradient id="paint6_linear_166_13" x1="82.5066" y1="18.7668" x2="101.482" y2="79.3197" gradientUnits="userSpaceOnUse">
<stop stop-color="#AAF2FF"/>
<stop offset="0.29" stop-color="#00DDFF"/>
<stop offset="0.61" stop-color="#0090ED"/>
<stop offset="0.89" stop-color="#0250BB"/>
</linearGradient>
<linearGradient id="paint7_linear_166_13" x1="69.9908" y1="24.0111" x2="82.1327" y2="60.6952" gradientUnits="userSpaceOnUse">
<stop stop-color="#AAF2FF"/>
<stop offset="0.29" stop-color="#00DDFF"/>
<stop offset="0.74" stop-color="#0090ED"/>
<stop offset="1" stop-color="#0250BB"/>
</linearGradient>
<radialGradient id="paint8_radial_166_13" cx="0" cy="0" r="1" gradientUnits="userSpaceOnUse" gradientTransform="translate(61.1602 29.5684) scale(29.2505 28.4119)">
<stop stop-color="#00DDFF"/>
<stop offset="0.82" stop-color="#0090ED"/>
</radialGradient>
<radialGradient id="paint9_radial_166_13" cx="0" cy="0" r="1" gradientUnits="userSpaceOnUse" gradientTransform="translate(80.4676 44.0334) scale(93.0985 80.7382)">
<stop offset="0.29" stop-color="#80EBFF"/>
<stop offset="1" stop-color="#00B3F4"/>
</radialGradient>
<radialGradient id="paint10_radial_166_13" cx="0" cy="0" r="1" gradientUnits="userSpaceOnUse" gradientTransform="translate(60.3811 39.7239) scale(74.775 71.0438)">
<stop offset="0.18" stop-color="#AAF2FF"/>
<stop offset="0.43" stop-color="#00DDFF"/>
<stop offset="0.69" stop-color="#0060DF"/>
</radialGradient>
<linearGradient id="paint11_linear_166_13" x1="92.7937" y1="36.01" x2="39.9883" y2="91.1962" gradientUnits="userSpaceOnUse">
<stop offset="0.24" stop-color="#80EBFF" stop-opacity="0.5"/>
<stop offset="0.7" stop-color="#00DDFF" stop-opacity="0"/>
</linearGradient>
<linearGradient id="paint12_linear_166_13" x1="56.9501" y1="56.1192" x2="50.599" y2="83.0719" gradientUnits="userSpaceOnUse">
<stop stop-color="#BFF3FF" stop-opacity="0.9"/>
<stop offset="1" stop-color="#80EBFF" stop-opacity="0.5"/>
</linearGradient>
<linearGradient id="paint13_linear_166_13" x1="85.7246" y1="22.7183" x2="81.2062" y2="113.244" gradientUnits="userSpaceOnUse">
<stop stop-color="#BFF3FF"/>
<stop offset="1" stop-color="#00DDFF" stop-opacity="0"/>
</linearGradient>
<linearGradient id="paint14_linear_166_13" x1="69.9515" y1="23.2189" x2="68.5062" y2="52.2968" gradientUnits="userSpaceOnUse">
<stop stop-color="#BFF3FF"/>
<stop offset="1" stop-color="#AAF2FF" stop-opacity="0.5"/>
</linearGradient>
<linearGradient id="paint15_linear_166_13" x1="76.3623" y1="52.3997" x2="74.1601" y2="95.8993" gradientUnits="userSpaceOnUse">
<stop stop-color="#BFF3FF"/>
<stop offset="1" stop-color="#00DDFF" stop-opacity="0"/>
</linearGradient>
<linearGradient id="paint16_linear_166_13" x1="48.7456" y1="55.1464" x2="50.476" y2="86.6182" gradientUnits="userSpaceOnUse">
<stop stop-color="#BFF3FF" stop-opacity="0.8"/>
<stop offset="1" stop-color="#80EBFF" stop-opacity="0.2"/>
</linearGradient>
<linearGradient id="paint17_linear_166_13" x1="52.2292" y1="37.2432" x2="43.3778" y2="51.4812" gradientUnits="userSpaceOnUse">
<stop stop-color="#BFF3FF" stop-opacity="0.8"/>
<stop offset="1" stop-color="#80EBFF" stop-opacity="0.2"/>
</linearGradient>
<linearGradient id="paint18_linear_166_13" x1="37.9887" y1="60.7648" x2="34.9082" y2="116.81" gradientUnits="userSpaceOnUse">
<stop stop-color="#00DDFF" stop-opacity="0.4"/>
<stop offset="1" stop-color="#00DDFF" stop-opacity="0"/>
</linearGradient>
<linearGradient id="paint19_linear_166_13" x1="43.6958" y1="29.7307" x2="43.6958" y2="96.1758" gradientUnits="userSpaceOnUse">
<stop stop-color="#BFF3FF"/>
<stop offset="1" stop-color="#00DDFF" stop-opacity="0"/>
</linearGradient>
<linearGradient id="paint20_linear_166_13" x1="82.2193" y1="39.1327" x2="77.0929" y2="130.292" gradientUnits="userSpaceOnUse">
<stop stop-color="#BFF3FF" stop-opacity="0.8"/>
<stop offset="1" stop-color="#00DDFF" stop-opacity="0"/>
</linearGradient>
</defs>
</svg>
