<svg width="128" height="128" viewBox="0 0 128 128" fill="none" xmlns="http://www.w3.org/2000/svg">
<rect width="128" height="128" rx="24" fill="url(#paint0_linear_166_179)"/>
<rect x="4" y="4" width="120" height="120" rx="20" stroke="black" stroke-opacity="0.25" stroke-width="8"/>
<g filter="url(#filter0_f_166_179)">
<path d="M64 24C86.8568 24.0001 96 42.824 96 49.8828V94.5879C96 99.2938 91.4281 104 85.7139 104C79.9998 104 81.1424 96.9418 75.4287 96.9414C70.6012 96.9414 69.714 104 64 104C58.2858 104 57.1427 96.9414 52.5713 96.9414C47.3665 96.9414 49.1423 104 42.2852 104C35.4284 104 32 96.9411 32 92.2354V49.8828C32 42.824 41.143 24 64 24ZM46.5303 44.126C44.6509 42.9654 42.1863 43.5485 41.0254 45.4277C39.8648 47.3072 40.4477 49.7718 42.3271 50.9326L48.2451 54.5879L42.3271 58.2441C40.4476 59.405 39.8645 61.8695 41.0254 63.749C42.1863 65.6285 44.6508 66.2106 46.5303 65.0498L57.6152 58.2041C60.3034 56.5433 60.3033 52.6336 57.6152 50.9727L46.5303 44.126ZM68.5713 50.5879C66.3623 50.5879 64.5715 52.3789 64.5713 54.5879C64.5713 56.797 66.3622 58.5879 68.5713 58.5879H84.5713C86.7803 58.5878 88.5713 56.7969 88.5713 54.5879C88.5711 52.379 86.7802 50.588 84.5713 50.5879H68.5713Z" fill="url(#paint1_linear_166_179)" fill-opacity="0.5"/>
</g>
<g filter="url(#filter1_dd_166_179)">
<path d="M64 24C86.8568 24.0001 96 42.824 96 49.8828V94.5879C96 99.2938 91.4281 104 85.7139 104C79.9998 104 81.1424 96.9418 75.4287 96.9414C70.6012 96.9414 69.714 104 64 104C58.2858 104 57.1427 96.9414 52.5713 96.9414C47.3665 96.9414 49.1423 104 42.2852 104C35.4284 104 32 96.9411 32 92.2354V49.8828C32 42.824 41.143 24 64 24ZM46.9404 45.4082C45.5093 44.5735 43.6718 45.0572 42.8369 46.4883C42.0022 47.9194 42.4859 49.757 43.917 50.5918L51.4746 55L43.917 59.4082C42.4859 60.243 42.0022 62.0806 42.8369 63.5117C43.6718 64.9428 45.5093 65.4265 46.9404 64.5918L58.5703 57.8076C60.72 56.5535 60.72 53.4465 58.5703 52.1924L46.9404 45.4082ZM69 52C67.3431 52 66 53.3431 66 55C66 56.6569 67.3431 58 69 58H85C86.6568 57.9999 88 56.6568 88 55C88 53.3432 86.6568 52.0001 85 52H69Z" fill="url(#paint2_linear_166_179)"/>
</g>
<defs>
<filter id="filter0_f_166_179" x="16" y="8" width="96" height="112" filterUnits="userSpaceOnUse" color-interpolation-filters="sRGB">
<feFlood flood-opacity="0" result="BackgroundImageFix"/>
<feBlend mode="normal" in="SourceGraphic" in2="BackgroundImageFix" result="shape"/>
<feGaussianBlur stdDeviation="8" result="effect1_foregroundBlur_166_179"/>
</filter>
<filter id="filter1_dd_166_179" x="16" y="12" width="96" height="112" filterUnits="userSpaceOnUse" color-interpolation-filters="sRGB">
<feFlood flood-opacity="0" result="BackgroundImageFix"/>
<feColorMatrix in="SourceAlpha" type="matrix" values="0 0 0 0 0 0 0 0 0 0 0 0 0 0 0 0 0 0 127 0" result="hardAlpha"/>
<feOffset dy="4"/>
<feGaussianBlur stdDeviation="8"/>
<feComposite in2="hardAlpha" operator="out"/>
<feColorMatrix type="matrix" values="0 0 0 0 0 0 0 0 0 0 0 0 0 0 0 0 0 0 0.5 0"/>
<feBlend mode="normal" in2="BackgroundImageFix" result="effect1_dropShadow_166_179"/>
<feColorMatrix in="SourceAlpha" type="matrix" values="0 0 0 0 0 0 0 0 0 0 0 0 0 0 0 0 0 0 127 0" result="hardAlpha"/>
<feOffset dy="4"/>
<feGaussianBlur stdDeviation="8"/>
<feComposite in2="hardAlpha" operator="out"/>
<feColorMatrix type="matrix" values="0 0 0 0 0 0 0 0 0 0 0 0 0 0 0 0 0 0 0.5 0"/>
<feBlend mode="normal" in2="effect1_dropShadow_166_179" result="effect2_dropShadow_166_179"/>
<feBlend mode="normal" in="SourceGraphic" in2="effect2_dropShadow_166_179" result="shape"/>
</filter>
<linearGradient id="paint0_linear_166_179" x1="64" y1="0" x2="64" y2="128" gradientUnits="userSpaceOnUse">
<stop stop-color="#507593"/>
<stop offset="1" stop-color="#152137"/>
</linearGradient>
<linearGradient id="paint1_linear_166_179" x1="64" y1="24" x2="64" y2="104" gradientUnits="userSpaceOnUse">
<stop stop-color="white"/>
<stop offset="1" stop-color="#98C8FF"/>
</linearGradient>
<linearGradient id="paint2_linear_166_179" x1="64" y1="24" x2="64" y2="104" gradientUnits="userSpaceOnUse">
<stop stop-color="white"/>
<stop offset="1" stop-color="#98C8FF"/>
</linearGradient>
</defs>
</svg>
