<svg width="128" height="128" viewBox="0 0 128 128" fill="none" xmlns="http://www.w3.org/2000/svg">
<rect width="128" height="128" rx="24" fill="url(#paint0_linear_165_58)"/>
<rect x="4" y="4" width="120" height="120" rx="20" stroke="black" stroke-opacity="0.25" stroke-width="8"/>
<g filter="url(#filter0_d_165_58)">
<path d="M57.5615 53.6296C58.9104 53.6296 60.246 53.9069 61.4922 54.446C62.7383 54.9851 63.8706 55.7752 64.8242 56.7712C65.7779 57.7674 66.5349 58.9502 67.0508 60.2517C67.5667 61.5532 67.8314 62.9486 67.8311 64.3572C67.8314 65.7656 67.5666 67.1604 67.0508 68.4617C66.5349 69.7632 65.7779 70.946 64.8242 71.9421C63.8706 72.9383 62.7383 73.7282 61.4922 74.2673C60.246 74.8065 58.9104 75.0847 57.5615 75.0847C56.2126 75.0847 54.877 74.8065 53.6309 74.2673C52.3847 73.7282 51.2525 72.9383 50.2988 71.9421C49.3452 70.946 48.5882 69.7632 48.0723 68.4617C47.5565 67.1603 47.2916 65.7656 47.292 64.3572C47.2916 62.9486 47.5563 61.5532 48.0723 60.2517C48.5882 58.9502 49.3452 57.7674 50.2988 56.7712C51.2524 55.7752 52.3848 54.9851 53.6309 54.446C54.877 53.9069 56.2127 53.6296 57.5615 53.6296ZM57.1875 67.7703C56.8552 67.7703 56.5637 67.8723 56.3154 68.0759L56.2119 68.1697C55.946 68.4356 55.8147 68.7562 55.8184 69.1287L55.8232 69.2673C55.8496 69.585 55.9793 69.8624 56.2119 70.0984L56.3154 70.1921C56.5638 70.396 56.8549 70.4978 57.1875 70.4978C57.4308 70.4978 57.6558 70.437 57.8613 70.3152L58.0078 70.2136C58.1465 70.1047 58.2626 69.9727 58.3564 69.8191L58.3574 69.8201C58.4544 69.6631 58.5156 69.4936 58.542 69.3132L58.5566 69.1287C58.5527 68.7561 58.4138 68.4354 58.1406 68.1697C57.8676 67.9043 57.5491 67.7703 57.1875 67.7703ZM57.416 58.7C56.739 58.7 56.1188 58.8217 55.5566 59.0652C55.0637 59.2755 54.6546 59.5829 54.3311 59.9861L54.1982 60.1648C53.8555 60.6545 53.675 61.2755 53.6562 62.0242V62.0535H55.9922L55.9932 62.0251C56.0043 61.7243 56.0779 61.4743 56.2119 61.2751C56.3468 61.0711 56.5197 60.918 56.7305 60.8162H56.7314C56.9432 60.7104 57.1679 60.657 57.4053 60.657C57.6504 60.657 57.873 60.7084 58.0732 60.8103C58.277 60.9122 58.4396 61.0579 58.5596 61.2468C58.679 61.4351 58.7392 61.6552 58.7393 61.907C58.7393 62.0849 58.7086 62.2504 58.6494 62.4031L58.5801 62.5525C58.474 62.7426 58.3312 62.9171 58.1514 63.075C58.0609 63.1543 57.9639 63.2326 57.8613 63.3093L57.5352 63.5359C57.2245 63.7305 56.9578 63.9481 56.7363 64.1882C56.5689 64.3698 56.4314 64.5941 56.3242 64.8591L56.2266 65.1384C56.1138 65.5292 56.0565 66.0522 56.0527 66.7048V66.9236H58.2275V66.7048C58.2313 66.3426 58.2775 66.039 58.3652 65.7937C58.4569 65.5482 58.5941 65.3312 58.7773 65.1443L58.9277 65.0046C59.0881 64.8665 59.2788 64.7318 59.498 64.6013C59.8495 64.3918 60.1554 64.1578 60.4141 63.8992L60.5977 63.6941C60.7701 63.4828 60.9105 63.2503 61.0176 62.9968C61.1645 62.6539 61.2373 62.2617 61.2373 61.823C61.2372 61.1668 61.0738 60.6036 60.7461 60.1365C60.4188 59.6702 59.9675 59.3149 59.3936 59.071C58.8197 58.8236 58.16 58.7 57.416 58.7Z" fill="url(#paint1_linear_165_58)"/>
<path d="M62.5347 42.7346C62.4062 42.7346 62.3984 42.9383 62.5251 42.9599C71.2888 44.4572 78.0199 53.3042 78.0199 63.9975C78.0199 75.2687 70.5417 84.4918 61.0872 85.2157C61.5665 85.246 62.0475 85.2636 62.5347 85.2636C74.6677 85.2636 84.5047 75.7409 84.5047 63.9972C84.5047 52.2536 74.6677 42.7346 62.5347 42.7346Z" fill="url(#paint2_linear_165_58)"/>
<path d="M58.02 28.002C76.8141 28.2511 91.9751 44.272 91.9751 63.9991C91.9751 83.7263 76.8141 99.7472 58.02 99.9963C81.2459 99.794 100 83.7557 100 63.9991C100 44.2425 81.2459 28.2043 58.02 28.002Z" fill="url(#paint3_linear_165_58)"/>
<rect x="28" y="28" width="12" height="72" rx="4" fill="url(#paint4_linear_165_58)"/>
</g>
<defs>
<filter id="filter0_d_165_58" x="12" y="16" width="104" height="104" filterUnits="userSpaceOnUse" color-interpolation-filters="sRGB">
<feFlood flood-opacity="0" result="BackgroundImageFix"/>
<feColorMatrix in="SourceAlpha" type="matrix" values="0 0 0 0 0 0 0 0 0 0 0 0 0 0 0 0 0 0 127 0" result="hardAlpha"/>
<feOffset dy="4"/>
<feGaussianBlur stdDeviation="8"/>
<feComposite in2="hardAlpha" operator="out"/>
<feColorMatrix type="matrix" values="0 0 0 0 0 0 0 0 0 0 0 0 0 0 0 0 0 0 0.5 0"/>
<feBlend mode="normal" in2="BackgroundImageFix" result="effect1_dropShadow_165_58"/>
<feBlend mode="normal" in="SourceGraphic" in2="effect1_dropShadow_165_58" result="shape"/>
</filter>
<linearGradient id="paint0_linear_165_58" x1="64" y1="0" x2="64" y2="128" gradientUnits="userSpaceOnUse">
<stop stop-color="#57E389"/>
<stop offset="1" stop-color="#22415E"/>
</linearGradient>
<linearGradient id="paint1_linear_165_58" x1="57.5615" y1="53.6296" x2="57.5615" y2="75.0847" gradientUnits="userSpaceOnUse">
<stop stop-color="white"/>
<stop offset="1" stop-color="#93BCC5"/>
</linearGradient>
<linearGradient id="paint2_linear_165_58" x1="72.796" y1="42.734" x2="72.796" y2="85.2636" gradientUnits="userSpaceOnUse">
<stop stop-color="white"/>
<stop offset="1" stop-color="#93BCC5"/>
</linearGradient>
<linearGradient id="paint3_linear_165_58" x1="79.01" y1="28.002" x2="79.01" y2="99.9963" gradientUnits="userSpaceOnUse">
<stop stop-color="white"/>
<stop offset="1" stop-color="#93BCC5"/>
</linearGradient>
<linearGradient id="paint4_linear_165_58" x1="34" y1="28" x2="34" y2="100" gradientUnits="userSpaceOnUse">
<stop stop-color="white"/>
<stop offset="1" stop-color="#93BCC5"/>
</linearGradient>
</defs>
</svg>
