<svg width="128" height="128" viewBox="0 0 128 128" fill="none" xmlns="http://www.w3.org/2000/svg">
<rect width="128" height="128" rx="24" fill="url(#paint0_linear_162_20)"/>
<rect x="4" y="4" width="120" height="120" rx="20" stroke="black" stroke-opacity="0.25" stroke-width="8"/>
<g filter="url(#filter0_d_162_20)">
<path d="M64 24C86.0914 24 104 41.9086 104 64C104 86.0914 86.0914 104 64 104C41.9086 104 24 86.0914 24 64C24 41.9086 41.9086 24 64 24ZM65.041 25.6377C44.5293 25.6377 27.9014 42.2657 27.9014 62.7773C27.9014 83.289 44.5294 99.917 65.041 99.917C85.5525 99.9168 102.181 83.2889 102.181 62.7773C102.181 42.2658 85.5525 25.6379 65.041 25.6377Z" fill="url(#paint1_linear_162_20)"/>
</g>
<g filter="url(#filter1_d_162_20)">
<path d="M65.041 25.6377C85.5525 25.6379 102.181 42.2658 102.181 62.7773C102.181 83.2889 85.5525 99.9168 65.041 99.917C44.5293 99.917 27.9014 83.289 27.9014 62.7773C27.9014 42.2657 44.5293 25.6377 65.041 25.6377ZM67.1836 31.7031C51.3753 31.7031 38.5605 44.5189 38.5605 60.3271C38.5607 76.1353 51.3754 88.9502 67.1836 88.9502C82.9917 88.9501 95.8065 76.1352 95.8066 60.3271C95.8066 44.519 82.9918 31.7032 67.1836 31.7031ZM63.4746 45.7803C65.8894 45.7803 68.2808 46.2556 70.5117 47.1797C72.7427 48.1038 74.77 49.4585 76.4775 51.166C78.185 52.8735 79.5397 54.901 80.4639 57.1318C81.3879 59.3627 81.8632 61.7543 81.8633 64.1689C81.8633 66.5836 81.3878 68.9752 80.4639 71.2061C79.5398 73.4369 78.1849 75.4644 76.4775 77.1719C74.7701 78.8793 72.7426 80.2341 70.5117 81.1582C68.2807 82.0823 65.8894 82.5586 63.4746 82.5586C61.0598 82.5586 58.6685 82.0823 56.4375 81.1582C54.2065 80.2341 52.1792 78.8794 50.4717 77.1719C48.7642 75.4644 47.4094 73.437 46.4854 71.2061C45.5614 68.9751 45.0859 66.5836 45.0859 64.1689C45.086 61.7543 45.5613 59.3627 46.4854 57.1318C47.4095 54.901 48.7643 52.8734 50.4717 51.166C52.1792 49.4586 54.2066 48.1037 56.4375 47.1797C58.6684 46.2557 61.0599 45.7803 63.4746 45.7803ZM58.8105 72.2959L72.001 63.9023L58.8105 55.9092V72.2959Z" fill="white"/>
<path d="M65.041 25.6377C85.5525 25.6379 102.181 42.2658 102.181 62.7773C102.181 83.2889 85.5525 99.9168 65.041 99.917C44.5293 99.917 27.9014 83.289 27.9014 62.7773C27.9014 42.2657 44.5293 25.6377 65.041 25.6377ZM67.1836 31.7031C51.3753 31.7031 38.5605 44.5189 38.5605 60.3271C38.5607 76.1353 51.3754 88.9502 67.1836 88.9502C82.9917 88.9501 95.8065 76.1352 95.8066 60.3271C95.8066 44.519 82.9918 31.7032 67.1836 31.7031ZM63.4746 45.7803C65.8894 45.7803 68.2808 46.2556 70.5117 47.1797C72.7427 48.1038 74.77 49.4585 76.4775 51.166C78.185 52.8735 79.5397 54.901 80.4639 57.1318C81.3879 59.3627 81.8632 61.7543 81.8633 64.1689C81.8633 66.5836 81.3878 68.9752 80.4639 71.2061C79.5398 73.4369 78.1849 75.4644 76.4775 77.1719C74.7701 78.8793 72.7426 80.2341 70.5117 81.1582C68.2807 82.0823 65.8894 82.5586 63.4746 82.5586C61.0598 82.5586 58.6685 82.0823 56.4375 81.1582C54.2065 80.2341 52.1792 78.8794 50.4717 77.1719C48.7642 75.4644 47.4094 73.437 46.4854 71.2061C45.5614 68.9751 45.0859 66.5836 45.0859 64.1689C45.086 61.7543 45.5613 59.3627 46.4854 57.1318C47.4095 54.901 48.7643 52.8734 50.4717 51.166C52.1792 49.4586 54.2066 48.1037 56.4375 47.1797C58.6684 46.2557 61.0599 45.7803 63.4746 45.7803ZM58.8105 72.2959L72.001 63.9023L58.8105 55.9092V72.2959Z" fill="url(#paint2_linear_162_20)"/>
</g>
<defs>
<filter id="filter0_d_162_20" x="8" y="12" width="112" height="112" filterUnits="userSpaceOnUse" color-interpolation-filters="sRGB">
<feFlood flood-opacity="0" result="BackgroundImageFix"/>
<feColorMatrix in="SourceAlpha" type="matrix" values="0 0 0 0 0 0 0 0 0 0 0 0 0 0 0 0 0 0 127 0" result="hardAlpha"/>
<feOffset dy="4"/>
<feGaussianBlur stdDeviation="8"/>
<feComposite in2="hardAlpha" operator="out"/>
<feColorMatrix type="matrix" values="0 0 0 0 0 0 0 0 0 0 0 0 0 0 0 0 0 0 0.5 0"/>
<feBlend mode="normal" in2="BackgroundImageFix" result="effect1_dropShadow_162_20"/>
<feBlend mode="normal" in="SourceGraphic" in2="effect1_dropShadow_162_20" result="shape"/>
</filter>
<filter id="filter1_d_162_20" x="11.9014" y="13.6377" width="106.279" height="106.279" filterUnits="userSpaceOnUse" color-interpolation-filters="sRGB">
<feFlood flood-opacity="0" result="BackgroundImageFix"/>
<feColorMatrix in="SourceAlpha" type="matrix" values="0 0 0 0 0 0 0 0 0 0 0 0 0 0 0 0 0 0 127 0" result="hardAlpha"/>
<feOffset dy="4"/>
<feGaussianBlur stdDeviation="8"/>
<feComposite in2="hardAlpha" operator="out"/>
<feColorMatrix type="matrix" values="0 0 0 0 0 0 0 0 0 0 0 0 0 0 0 0 0 0 0.5 0"/>
<feBlend mode="normal" in2="BackgroundImageFix" result="effect1_dropShadow_162_20"/>
<feBlend mode="normal" in="SourceGraphic" in2="effect1_dropShadow_162_20" result="shape"/>
</filter>
<linearGradient id="paint0_linear_162_20" x1="64" y1="0" x2="64" y2="128" gradientUnits="userSpaceOnUse">
<stop stop-color="#BF55C0"/>
<stop offset="1" stop-color="#2F1630"/>
</linearGradient>
<linearGradient id="paint1_linear_162_20" x1="64" y1="24" x2="64" y2="104" gradientUnits="userSpaceOnUse">
<stop stop-color="white"/>
<stop offset="1" stop-color="#936593"/>
</linearGradient>
<linearGradient id="paint2_linear_162_20" x1="65.041" y1="25.6377" x2="65.041" y2="99.917" gradientUnits="userSpaceOnUse">
<stop stop-color="white"/>
<stop offset="1" stop-color="#BE9EBE"/>
</linearGradient>
</defs>
</svg>
