<svg width="128" height="128" viewBox="0 0 128 128" fill="none" xmlns="http://www.w3.org/2000/svg">
<rect width="128" height="128" rx="24" fill="url(#paint0_linear_168_245)"/>
<rect x="4" y="4" width="120" height="120" rx="20" stroke="black" stroke-opacity="0.25" stroke-width="8"/>
<g filter="url(#filter0_d_168_245)">
<path fill-rule="evenodd" clip-rule="evenodd" d="M27.264 49.5713L24.1166 55.589L28.3723 49.9892C28.3723 50.031 28.1063 58.0545 28.1063 58.0545L29.3032 51.9951C32.495 57.7202 39.5436 66.5377 49.4293 73.0986C50.1829 73.6001 51.1581 74.4777 51.4684 74.812C51.4684 74.812 60.9108 79.3252 75.4512 68.8779C75.5842 68.7943 75.7615 68.7108 75.8945 68.6272L76.1162 68.7526L79.308 70.7584C78.1997 70.4659 76.0718 69.9644 76.0718 69.9644C69.0676 77.5701 57.6747 78.8237 51.5571 74.9791C51.2911 74.812 49.7839 75.397 49.5179 76.2328C49.3406 76.6925 49.5179 77.194 49.7396 77.5701C50.9808 79.7431 52.8427 79.5342 51.9561 82.0833C51.3355 83.4623 50.4488 84.7996 49.4736 86.0533C47.4344 88.6442 44.2426 90.9426 44.5529 92.3216C59.0046 109.121 91.5875 106.781 104 91.7784C103.823 89.6054 100.188 88.5606 97.6608 83.2534C98.37 83.4623 99.434 83.7549 99.434 83.7131C99.434 83.6713 96.4195 79.0745 96.2865 78.6148L98.237 78.7402C98.237 78.7402 95.6659 75.7313 95.5772 75.4388L98.1927 75.1045C98.1927 75.1045 94.9123 71.5524 94.8679 71.2599L98.1927 71.7614L94.5576 67.6243H96.2865L94.2473 64.8244L77.7121 58.6814C71.3728 54.9621 65.7428 50.4071 61.4871 46.8968L52.9314 42.9686C44.7302 42.3836 37.0611 42.5925 32.362 43.4701L35.3765 38.6226L30.9878 43.5537C30.7218 43.4701 30.4115 43.3865 30.4115 43.3865L30.7218 37.1182L29.2589 42.9686L27.264 49.5713Z" fill="url(#paint1_linear_168_245)"/>
<path fill-rule="evenodd" clip-rule="evenodd" d="M29.2589 42.9686C27.0867 42.0075 24.5599 43.3865 24.1166 45.267C23.5846 47.0639 24.9145 49.2788 27.264 49.5713C29.4806 48.2758 31.3868 44.9327 29.2589 42.9686Z" fill="url(#paint2_linear_168_245)"/>
<path d="M74.3428 25.041C84.0955 21.3636 98.4143 27.9247 102.094 36.9512C103.867 41.3388 103.335 46.1026 101.828 50.4902C100.587 54.084 96.065 59.266 97.749 63.1523C97.0792 62.9836 83.2077 58.5553 79.2188 56.5498C72.9684 52.8724 67.3832 48.359 63.1719 44.8906L63.0391 44.7656L48.8525 38.4131C48.6754 38.3296 48.4981 38.2466 48.3652 38.1631C50.3158 38.2467 58.0735 39.1235 61.5312 38.4131C60.8665 36.6998 61.0438 34.4848 61.9746 32.3955C63.3046 29.5122 65.8318 27.5898 68.2256 27.5898C68.7131 27.5899 69.1564 27.6737 69.5996 27.8408C70.9738 26.6708 72.5696 25.7096 74.3428 25.041ZM69.9102 28.4678C67.5606 27.5066 64.4129 29.3871 62.8613 32.6885C61.3098 35.9898 62.0196 39.416 64.3691 40.4189C66.7186 41.3799 69.8655 39.4995 71.417 36.1982C72.9683 32.8971 72.2594 29.4708 69.9102 28.4678ZM64.1025 33.1895C65.3438 30.557 67.6934 28.9692 69.3779 29.6377C71.0181 30.3481 71.373 33.0646 70.1318 35.6973C68.8906 38.33 66.5406 39.9177 64.9004 39.249C63.2161 38.5384 62.8614 35.8638 64.1025 33.1895Z" fill="url(#paint3_linear_168_245)"/>
<path d="M70.4041 35.8033C71.7383 32.9276 71.347 29.989 69.53 29.2399C67.7131 28.4909 65.1586 30.2149 63.8244 33.0907C62.4902 35.9664 62.8815 38.905 64.6984 39.6541C66.5154 40.4032 69.0699 38.6791 70.4041 35.8033Z" fill="url(#paint4_linear_168_245)"/>
</g>
<defs>
<filter id="filter0_d_168_245" x="8" y="12" width="112" height="112" filterUnits="userSpaceOnUse" color-interpolation-filters="sRGB">
<feFlood flood-opacity="0" result="BackgroundImageFix"/>
<feColorMatrix in="SourceAlpha" type="matrix" values="0 0 0 0 0 0 0 0 0 0 0 0 0 0 0 0 0 0 127 0" result="hardAlpha"/>
<feOffset dy="4"/>
<feGaussianBlur stdDeviation="8"/>
<feComposite in2="hardAlpha" operator="out"/>
<feColorMatrix type="matrix" values="0 0 0 0 0 0 0 0 0 0 0 0 0 0 0 0 0 0 0.5 0"/>
<feBlend mode="normal" in2="BackgroundImageFix" result="effect1_dropShadow_168_245"/>
<feBlend mode="normal" in="SourceGraphic" in2="effect1_dropShadow_168_245" result="shape"/>
</filter>
<linearGradient id="paint0_linear_168_245" x1="64" y1="0" x2="64" y2="128" gradientUnits="userSpaceOnUse">
<stop stop-color="#2B3B6A"/>
<stop offset="1" stop-color="#090E1F"/>
</linearGradient>
<linearGradient id="paint1_linear_168_245" x1="64.0583" y1="37.1182" x2="64.0583" y2="104" gradientUnits="userSpaceOnUse">
<stop stop-color="white"/>
<stop offset="1" stop-color="#8F9AB9"/>
</linearGradient>
<linearGradient id="paint2_linear_168_245" x1="27.0929" y1="42.6543" x2="27.0929" y2="49.5713" gradientUnits="userSpaceOnUse">
<stop stop-color="white"/>
<stop offset="1" stop-color="#8F9AB9"/>
</linearGradient>
<linearGradient id="paint3_linear_168_245" x1="75.7871" y1="24" x2="75.7871" y2="63.1523" gradientUnits="userSpaceOnUse">
<stop stop-color="white"/>
<stop offset="1" stop-color="#8F9AB9"/>
</linearGradient>
<linearGradient id="paint4_linear_168_245" x1="63.8244" y1="33.0907" x2="70.2743" y2="36.0831" gradientUnits="userSpaceOnUse">
<stop stop-color="white"/>
<stop offset="1" stop-color="#8F9AB9"/>
</linearGradient>
</defs>
</svg>
