<svg width="128" height="128" viewBox="0 0 128 128" fill="none" xmlns="http://www.w3.org/2000/svg">
<rect width="128" height="128" rx="24" fill="url(#paint0_linear_60_21)"/>
<rect x="4" y="4" width="120" height="120" rx="20" stroke="black" stroke-opacity="0.25" stroke-width="8"/>
<g filter="url(#filter0_d_60_21)">
<path d="M98.2182 39.7411C101.412 40.6251 103.284 43.9306 102.4 47.1241L88.2597 98.217C87.3759 101.411 84.0702 103.283 80.8767 102.399L73.11 100.25C73.1659 99.8837 73.2297 99.5004 73.3164 99.0869C73.6839 97.3439 74.109 95.9616 74.4524 94.5903C74.8458 93.0177 75.6009 90.8808 76.0209 89.9884C76.6811 88.5849 77.1857 87.8156 78.2075 86.8252C79.4068 85.9603 79.6368 85.8386 81.019 84.7874C82.3078 83.8088 82.8313 83.3884 84.1684 82.1177C85.9928 80.3848 86.7026 79.0975 88.982 74.6253C90.74 71.1741 92.2252 67.3509 93.4194 63.7833C94.0883 61.7835 94.7029 59.7656 95.2623 57.7324C95.3729 57.3332 95.4654 56.9919 95.5411 56.7142C95.3221 56.4822 95.0692 56.2837 94.792 56.1259C94.5154 55.971 94.2124 55.8688 93.8985 55.8249C93.7393 55.8031 93.5783 55.7937 93.4177 55.7972C93.2478 55.8012 93.0778 55.8162 92.9098 55.8421C92.5328 55.9035 92.1621 55.999 91.8024 56.1273C91.0148 56.4001 90.1631 56.8147 89.2608 57.2671C88.3095 57.7444 87.3515 58.2383 86.308 58.6882C85.2085 59.1622 84.0922 59.5536 82.9254 59.7948C81.6654 60.0647 80.3698 60.1267 79.0897 59.9795C77.6035 59.8032 76.1809 59.3384 74.8112 58.6374C74.5363 58.5111 74.1875 58.3327 73.8141 58.1395C73.3515 57.4452 72.6479 56.9069 71.7808 56.6668L60.5186 53.5499C58.9218 53.1081 57.269 54.0443 56.827 55.6411L53.5502 67.4811C53.1083 69.0778 54.0446 70.7306 55.6413 71.1726L67.9416 74.5768C67.9959 74.9195 68.0579 75.2644 68.098 75.5787C68.2892 77.0847 68.6118 78.5391 69.1066 79.8572C69.2662 80.2846 69.4505 80.6891 69.6476 81.084L69.5992 81.0098C70.0216 82.1915 70.4009 82.8548 70.7493 83.836C71.0886 84.7899 71.4131 87.4874 71.3424 88.6126C71.1919 91.0298 71.1614 90.9784 70.8686 92.7372C70.6266 94.19 70.1517 95.8682 69.3816 97.9746C69.2427 98.3517 69.093 98.7249 68.9349 99.0943L29.7827 88.2586C26.589 87.3747 24.7166 84.0692 25.6005 80.8756L39.7411 29.7826C40.625 26.589 43.9305 24.7165 47.1242 25.6004L98.2182 39.7411ZM87.3833 39.7042C86.7149 39.5048 86.0385 39.3315 85.3568 39.1839L82.7809 38.7233C82.116 38.6319 81.448 38.5611 80.7788 38.5107C80.2498 38.4704 79.7198 38.4452 79.1894 38.4356C78.8818 38.4306 78.6087 38.4326 78.3734 38.4367C77.9011 38.4459 77.3146 38.473 76.7234 38.5445C76.2781 38.5947 75.8372 38.6806 75.4058 38.802C75.0517 38.9067 74.7509 39.035 74.5323 39.1905C74.4416 39.2524 74.3597 39.3271 74.2905 39.4123C74.2361 39.4798 74.1956 39.5576 74.1715 39.6408C73.8406 40.8217 73.4735 42.2385 73.0968 43.7511C72.7342 45.2056 72.3733 46.7094 72.0473 48.0923C71.6802 49.6523 71.3207 51.2147 70.9692 52.7783C72.5226 54.3191 73.9772 55.419 75.3385 56.1832C76.7404 56.9699 78.046 57.4012 79.2667 57.5825C80.4998 57.7654 81.6578 57.6963 82.7512 57.4768C83.8613 57.2548 84.9112 56.8744 85.9066 56.4371C86.917 55.9946 87.8867 55.4862 88.8007 55.023C89.7402 54.5483 90.6315 54.1153 91.5003 53.8176C91.9272 53.6672 92.3667 53.5536 92.8131 53.4787C93.2438 53.4072 93.6821 53.3916 94.1169 53.4322C94.5615 53.4754 94.9968 53.5877 95.4069 53.7649C95.7087 53.8955 96.0022 54.0635 96.2908 54.2689L96.3521 54.1025C96.4327 53.8813 96.5285 53.6261 96.6349 53.3367C96.8876 52.6596 97.1278 51.9778 97.354 51.2913C97.8555 49.7604 98.4 47.8033 98.6927 45.6379C98.702 45.5628 98.6961 45.4863 98.6758 45.4134C98.6482 45.3155 98.6067 45.2217 98.5532 45.1352C98.4309 44.9307 98.2313 44.7026 97.9511 44.4549C97.671 44.2072 97.3193 43.9479 96.9046 43.6819C96.4438 43.3891 95.9699 43.1167 95.4847 42.8664C94.412 42.3068 93.1481 41.7474 91.7894 41.2185C90.3406 40.6579 88.8707 40.1523 87.3833 39.7042Z" fill="url(#paint1_linear_60_21)"/>
</g>
<defs>
<filter id="filter0_d_60_21" x="9.38159" y="13.3815" width="109.238" height="109.237" filterUnits="userSpaceOnUse" color-interpolation-filters="sRGB">
<feFlood flood-opacity="0" result="BackgroundImageFix"/>
<feColorMatrix in="SourceAlpha" type="matrix" values="0 0 0 0 0 0 0 0 0 0 0 0 0 0 0 0 0 0 127 0" result="hardAlpha"/>
<feOffset dy="4"/>
<feGaussianBlur stdDeviation="8"/>
<feComposite in2="hardAlpha" operator="out"/>
<feColorMatrix type="matrix" values="0 0 0 0 0 0 0 0 0 0 0 0 0 0 0 0 0 0 0.5 0"/>
<feBlend mode="normal" in2="BackgroundImageFix" result="effect1_dropShadow_60_21"/>
<feBlend mode="normal" in="SourceGraphic" in2="effect1_dropShadow_60_21" result="shape"/>
</filter>
<linearGradient id="paint0_linear_60_21" x1="65" y1="2.37632e-08" x2="64.9997" y2="128" gradientUnits="userSpaceOnUse">
<stop stop-color="#FF7BB0"/>
<stop offset="1" stop-color="#5C0002"/>
</linearGradient>
<linearGradient id="paint1_linear_60_21" x1="64.0529" y1="30.2856" x2="63.9477" y2="97.7141" gradientUnits="userSpaceOnUse">
<stop stop-color="white"/>
<stop offset="1" stop-color="#EF9C9E"/>
</linearGradient>
</defs>
</svg>
