<svg width="128" height="128" viewBox="0 0 128 128" fill="none" xmlns="http://www.w3.org/2000/svg">
<rect width="128" height="128" rx="24" fill="url(#paint0_linear_74_3)"/>
<rect x="4" y="4" width="120" height="120" rx="20" stroke="black" stroke-opacity="0.25" stroke-width="8"/>
<g filter="url(#filter0_d_74_3)">
<path d="M41.7578 29.293C46.5703 24.5649 60.8119 21.3849 65.96 23.8633C66.6645 24.2025 67.0606 24.9223 67.2549 25.6797C71.1281 40.7821 75.9432 58.1582 70.8623 66.957C69.901 68.6219 68.4031 72.3617 67.752 74.54C67.565 75.1657 67.5983 75.8199 67.7275 76.46C68.8225 81.8845 69.2336 95.0405 83.8828 95.1592C87.5919 95.1892 88.1511 96.5257 84.6553 97.7656C77.3515 100.356 67.7944 103.302 62.5 104.5C59.4328 105.194 61.5422 101.026 64.2832 99.4844C71.9207 95.1882 65.7043 83.3348 64.209 77.7275C64.0238 77.0332 63.7304 76.3736 63.2695 75.8223L63 75.5C60.353 72.3061 57.9232 71.7035 55.9736 69.8711C47.7181 62.1107 43.8549 43.0093 41.126 32.2275C40.8612 31.1814 40.9881 30.0492 41.7578 29.293ZM66.1645 38.0541C66.1642 38.0538 66.1639 38.0536 66.1635 38.0535C60.9698 35.6224 60.6177 43.7401 55.6396 45.8359C52.4416 47.1825 48.4581 49.8588 49.624 53.127C53.1005 62.8718 56.5109 65.76 60.8164 67.5615C62.1677 68.1269 63.7686 67.8381 64.7578 66.7578C67.6658 63.5809 71.8783 56.1295 66.1653 38.0555C66.1651 38.055 66.1648 38.0545 66.1645 38.0541Z" fill="url(#paint1_linear_74_3)"/>
</g>
<defs>
<filter id="filter0_d_74_3" x="25.0001" y="10.9998" width="77.9938" height="113.577" filterUnits="userSpaceOnUse" color-interpolation-filters="sRGB">
<feFlood flood-opacity="0" result="BackgroundImageFix"/>
<feColorMatrix in="SourceAlpha" type="matrix" values="0 0 0 0 0 0 0 0 0 0 0 0 0 0 0 0 0 0 127 0" result="hardAlpha"/>
<feOffset dy="4"/>
<feGaussianBlur stdDeviation="8"/>
<feComposite in2="hardAlpha" operator="out"/>
<feColorMatrix type="matrix" values="0 0 0 0 0 0 0 0 0 0 0 0 0 0 0 0 0 0 0.5 0"/>
<feBlend mode="normal" in2="BackgroundImageFix" result="effect1_dropShadow_74_3"/>
<feBlend mode="normal" in="SourceGraphic" in2="effect1_dropShadow_74_3" result="shape"/>
</filter>
<linearGradient id="paint0_linear_74_3" x1="65" y1="2.37632e-08" x2="64.9997" y2="128" gradientUnits="userSpaceOnUse">
<stop stop-color="#FF5787"/>
<stop offset="1" stop-color="#580D0E"/>
</linearGradient>
<linearGradient id="paint1_linear_74_3" x1="63.9969" y1="23" x2="63.9969" y2="104.578" gradientUnits="userSpaceOnUse">
<stop stop-color="white"/>
<stop offset="1" stop-color="#F2748C"/>
</linearGradient>
</defs>
</svg>
