<svg width="128" height="128" viewBox="0 0 128 128" fill="none" xmlns="http://www.w3.org/2000/svg">
<rect width="128" height="128" rx="24" fill="url(#paint0_linear_117_20)"/>
<rect x="4" y="4" width="120" height="120" rx="20" stroke="black" stroke-opacity="0.25" stroke-width="8"/>
<g filter="url(#filter0_d_117_20)">
<path d="M56.9316 26.7201C60.4307 23.0932 66.6438 23.0933 70.4286 26.7201L100.922 58.4213C112.776 70.4632 87.0677 73.0028 80.0693 78.0082C77.1423 80.1118 88.1388 82.4333 86.8535 85.6976C84.4967 91.7906 78.7834 88.1638 72.3564 94.765C69.7863 97.4488 77.5696 97.4493 74.7138 99.9154C70.1434 103.76 59.931 106.009 59.1454 101.511C58.0741 95.4179 52.0755 97.9568 49.5761 95.2728C47.0054 92.5888 54.7892 89.7596 52.2187 87.0756C49.6479 84.4641 36.7227 81.9978 34.1513 79.3138C31.5091 76.6298 44.434 74.0178 41.3642 71.9867C34.7228 67.7067 16.3695 68.6499 27.5097 57.3334L56.9316 26.7201ZM41.0781 93.7494C37.1193 90.352 45.6211 86.8882 48.6252 89.5656C48.885 89.7972 48.9316 90.1764 48.7793 90.4893C47.3012 93.5256 43.5809 95.9483 41.0781 93.7494ZM88.9225 89.2531C89.1356 89.015 89.4694 88.9213 89.7783 89.0027C93.0767 89.8712 93.8837 92.4703 93.0663 93.0238C89.9807 95.0438 86.3024 92.1813 88.9225 89.2531ZM90.7398 85.8306C90.7026 85.748 90.7218 85.652 90.7489 85.5655C92.1627 81.0485 100.787 80.7363 101.707 85.3344C102.331 88.0095 91.3876 87.2689 90.7398 85.8306ZM49.9872 70.8949C47.7013 70.8949 46.2638 72.0374 50.2891 73.5454C50.3742 73.5772 50.4654 73.5975 50.5559 73.6051C55.4624 74.0143 62.1999 75.8034 64.8887 76.7138C65.3723 76.8775 65.9632 76.6814 65.9965 76.172C66.266 72.051 50.5293 70.8949 49.9872 70.8949ZM68.9052 28.434C66.3059 25.8076 61.7565 25.7346 59.1572 28.434C56.6298 31.1335 48.6155 38.9394 44.4999 43.5355C42.4062 45.6511 42.1174 47.7666 44.1386 47.767L53.9601 47.8357C54.3545 47.8384 54.7136 47.6092 54.8771 47.2503L57.6029 41.2681C57.9961 40.405 59.2577 40.5231 59.484 41.4441L61.0631 47.8697C61.2266 48.5351 61.9958 48.8427 62.573 48.4735L68.7693 44.5107C69.0761 44.3146 69.4652 44.3006 69.7852 44.4743L72.8662 46.147C73.4712 46.4755 74.2194 46.1087 74.3303 45.4293L74.9786 41.4585C75.1029 40.6973 76.0056 40.3574 76.6011 40.8475L80.4029 43.9771C80.802 44.3056 81.3771 44.2442 81.4813 43.738C81.6799 42.7733 81.4679 41.3457 80.6747 40.5443L68.9052 28.434Z" fill="url(#paint1_linear_117_20)"/>
</g>
<defs>
<filter id="filter0_d_117_20" x="7.99995" y="12" width="112.001" height="112.001" filterUnits="userSpaceOnUse" color-interpolation-filters="sRGB">
<feFlood flood-opacity="0" result="BackgroundImageFix"/>
<feColorMatrix in="SourceAlpha" type="matrix" values="0 0 0 0 0 0 0 0 0 0 0 0 0 0 0 0 0 0 127 0" result="hardAlpha"/>
<feOffset dy="4"/>
<feGaussianBlur stdDeviation="8"/>
<feComposite in2="hardAlpha" operator="out"/>
<feColorMatrix type="matrix" values="0 0 0 0 0 0 0 0 0 0 0 0 0 0 0 0 0 0 0.5 0"/>
<feBlend mode="normal" in2="BackgroundImageFix" result="effect1_dropShadow_117_20"/>
<feBlend mode="normal" in="SourceGraphic" in2="effect1_dropShadow_117_20" result="shape"/>
</filter>
<linearGradient id="paint0_linear_117_20" x1="64" y1="0" x2="64" y2="128" gradientUnits="userSpaceOnUse">
<stop stop-color="#688094"/>
<stop offset="1" stop-color="#19181A"/>
</linearGradient>
<linearGradient id="paint1_linear_117_20" x1="64.0004" y1="24.0004" x2="64.0004" y2="104.001" gradientUnits="userSpaceOnUse">
<stop stop-color="white"/>
<stop offset="1" stop-color="#505F70"/>
</linearGradient>
</defs>
</svg>
