<svg width="128" height="128" viewBox="0 0 128 128" fill="none" xmlns="http://www.w3.org/2000/svg">
<rect width="128" height="128" rx="24" fill="url(#paint0_linear_117_20)"/>
<rect x="4" y="4" width="120" height="120" rx="20" stroke="black" stroke-opacity="0.25" stroke-width="8"/>
<g filter="url(#filter0_d_117_20)">
<path d="M56.9316 26.7206C60.4308 23.0935 66.6438 23.0935 70.4286 26.7206L100.922 58.4218C112.776 70.4636 87.0677 73.0024 80.0693 78.0078C77.1416 80.1115 88.1389 82.4328 86.8535 85.6972C84.4968 91.7907 78.7835 88.1633 72.3564 94.7646C69.7857 97.4485 77.5691 97.4489 74.7138 99.915C70.1435 103.76 59.9314 106.009 59.1454 101.512C58.0743 95.4181 52.0756 97.9565 49.5761 95.2724C47.0059 92.5884 54.7895 89.7591 52.2187 87.0751C49.6477 84.4637 36.7223 81.9974 34.1513 79.3134C31.5091 76.6294 44.4346 74.0174 41.3642 71.9863C34.7228 67.7063 16.3693 68.6495 27.5097 57.3329L56.9316 26.7206ZM41.0781 93.749C37.1197 90.3516 45.6214 86.8884 48.6253 89.5662C48.8851 89.7977 48.9316 90.1769 48.7793 90.4898C47.3011 93.5259 43.5808 95.9478 41.0781 93.749ZM88.9225 89.2526C89.1356 89.0145 89.4694 88.9209 89.7783 89.0023C93.0767 89.8708 93.8837 92.4708 93.0663 93.0244C89.9807 95.044 86.3022 92.1809 88.9225 89.2526ZM90.7394 85.8296C90.7026 85.7472 90.7217 85.6518 90.7487 85.5657C92.1619 81.048 100.787 80.7364 101.707 85.3349C102.33 88.0102 91.3826 87.2685 90.7394 85.8296ZM49.9872 70.8945C47.7013 70.8945 46.2638 72.0379 50.2891 73.5459C50.3742 73.5778 50.4654 73.5981 50.5559 73.6056C55.4625 74.0149 62.2001 75.804 64.8888 76.7144C65.3723 76.8781 65.9632 76.682 65.9966 76.1726C66.2665 72.0514 50.5293 70.8945 49.9872 70.8945ZM68.9052 28.4335C66.3058 25.8073 61.7565 25.7342 59.1572 28.4335C56.63 31.1329 48.6156 38.9399 44.4999 43.5361C42.4064 45.6516 42.1175 47.7672 44.1386 47.7675L53.9602 47.8353C54.3545 47.838 54.7136 47.6088 54.8771 47.25L57.6027 41.2681C57.996 40.405 59.2576 40.5231 59.4838 41.4442L61.0622 47.87C61.2257 48.5355 61.9949 48.8431 62.5722 48.4739L68.7692 44.5104C69.076 44.3142 69.4653 44.3002 69.7853 44.4741L72.8661 46.1473C73.4711 46.4758 74.2194 46.1091 74.3303 45.4296L74.9786 41.4583C75.1028 40.697 76.0057 40.3571 76.6011 40.8474L80.4029 43.9775C80.8019 44.3061 81.3771 44.2447 81.4813 43.7384C81.6798 42.7738 81.4677 41.3463 80.6747 40.5449L68.9052 28.4335Z" fill="url(#paint1_linear_117_20)"/>
</g>
<defs>
<filter id="filter0_d_117_20" x="7.99991" y="12.0003" width="112.001" height="112" filterUnits="userSpaceOnUse" color-interpolation-filters="sRGB">
<feFlood flood-opacity="0" result="BackgroundImageFix"/>
<feColorMatrix in="SourceAlpha" type="matrix" values="0 0 0 0 0 0 0 0 0 0 0 0 0 0 0 0 0 0 127 0" result="hardAlpha"/>
<feOffset dy="4"/>
<feGaussianBlur stdDeviation="8"/>
<feComposite in2="hardAlpha" operator="out"/>
<feColorMatrix type="matrix" values="0 0 0 0 0 0 0 0 0 0 0 0 0 0 0 0 0 0 0.5 0"/>
<feBlend mode="normal" in2="BackgroundImageFix" result="effect1_dropShadow_117_20"/>
<feBlend mode="normal" in="SourceGraphic" in2="effect1_dropShadow_117_20" result="shape"/>
</filter>
<linearGradient id="paint0_linear_117_20" x1="64" y1="0" x2="64" y2="128" gradientUnits="userSpaceOnUse">
<stop stop-color="#688094"/>
<stop offset="1" stop-color="#19181A"/>
</linearGradient>
<linearGradient id="paint1_linear_117_20" x1="64.0004" y1="23.9999" x2="64.0004" y2="104.001" gradientUnits="userSpaceOnUse">
<stop stop-color="white"/>
<stop offset="1" stop-color="#505F70"/>
</linearGradient>
</defs>
</svg>
