<svg width="128" height="128" viewBox="0 0 128 128" fill="none" xmlns="http://www.w3.org/2000/svg">
<rect width="128" height="128" rx="24" fill="url(#paint0_linear_155_21)"/>
<rect x="4" y="4" width="120" height="120" rx="20" stroke="black" stroke-opacity="0.25" stroke-width="8"/>
<g filter="url(#filter0_d_155_21)">
<path d="M75.9536 26.9157C74.2726 29.3442 73.9187 31.1432 73.9187 36.7199C73.9187 40.4976 73.5648 44.6352 73.034 45.9844C72.1492 48.233 72.0607 48.323 64.8943 48.0532L62.9622 47.9822C59.8754 47.8687 57.3609 45.4651 57.1086 42.3865C56.4008 33.3019 51.8001 29.4342 47.4649 34.2014C45.8723 35.9103 45.5184 37.1696 45.6954 41.487C45.9608 46.9738 44.6337 49.1325 41.0947 49.1325C38.9713 49.1325 33.4859 52.4605 32.8666 54.1695C32.2473 55.8785 33.7513 59.9261 35.1669 60.0161C35.7862 60.106 38.2635 60.106 40.5639 59.9261C43.3066 59.8362 45.6069 60.2859 47.0225 61.2753C49.0574 62.5346 49.2343 63.2541 48.9689 67.8414C48.8183 70.7506 46.4851 73.0709 43.5751 73.2054L38.9713 73.4181C26.1425 74.0477 22.6036 75.9366 24.4615 81.4234C24.6284 81.9042 24.7954 82.3673 24.9458 82.7762C25.3174 83.7864 26.0685 84.385 27.1418 84.4658C29.1793 84.6191 32.9322 84.8404 37.2018 85.0212L41.7615 85.2352C45.7432 85.422 48.9799 88.5115 49.3517 92.4802L49.4113 93.1164C50.1191 101.032 51.5347 104 54.4543 104C56.6662 104 57.1086 102.201 57.1086 93.836C57.1086 81.9631 57.197 81.8731 66.0445 80.8837C73.2109 80.1641 73.9187 80.8837 73.9187 89.6085C73.9187 95.2752 74.2726 96.9842 75.7767 98.963C78.1655 102.021 79.758 101.931 81.439 98.5133C82.6777 96.0847 82.7661 94.9154 81.7929 89.5186C80.3773 81.4234 80.9967 80.6139 88.6939 80.6139C95.3295 80.6139 101.346 78.0954 101.346 75.2171C101.346 73.1483 98.5146 71.3493 96.5682 72.1589C95.7719 72.5187 92.9407 72.4287 90.3749 72.1589C83.8278 71.2594 80.9967 68.6509 80.9967 63.2541C80.9967 57.7674 82.5007 53.7198 84.8011 53.1801C85.8627 52.9103 90.1095 52.3706 94.1793 51.8309C102.054 50.9314 104 49.942 104 47.2436C104 45.6246 103.204 45.5346 93.8254 45.5346C84.1817 45.5346 83.6509 45.4447 82.3238 43.3759C81.1736 41.6669 81.0851 40.2278 81.7929 35.2807C83.2085 25.0268 80.1119 20.6194 75.9536 26.9157ZM73.3879 57.7674C74.0957 59.5663 74.0957 69.2806 73.3879 71.0795C72.9455 72.1589 71.5299 72.5187 66.9292 72.5187C59.4089 72.5187 57.9048 71.4393 57.374 65.5928C56.9316 61.4552 57.1086 61.0055 59.7628 58.7568C62.0631 56.688 63.3902 56.3282 67.7255 56.3282C71.6184 56.3282 72.9455 56.688 73.3879 57.7674Z" fill="url(#paint1_linear_155_21)"/>
</g>
<defs>
<filter id="filter0_d_155_21" x="8" y="12" width="112" height="112" filterUnits="userSpaceOnUse" color-interpolation-filters="sRGB">
<feFlood flood-opacity="0" result="BackgroundImageFix"/>
<feColorMatrix in="SourceAlpha" type="matrix" values="0 0 0 0 0 0 0 0 0 0 0 0 0 0 0 0 0 0 127 0" result="hardAlpha"/>
<feOffset dy="4"/>
<feGaussianBlur stdDeviation="8"/>
<feComposite in2="hardAlpha" operator="out"/>
<feColorMatrix type="matrix" values="0 0 0 0 0 0 0 0 0 0 0 0 0 0 0 0 0 0 0.5 0"/>
<feBlend mode="normal" in2="BackgroundImageFix" result="effect1_dropShadow_155_21"/>
<feBlend mode="normal" in="SourceGraphic" in2="effect1_dropShadow_155_21" result="shape"/>
</filter>
<linearGradient id="paint0_linear_155_21" x1="64" y1="0" x2="64" y2="128" gradientUnits="userSpaceOnUse">
<stop stop-color="#696969"/>
<stop offset="1" stop-color="#1C1C1C"/>
</linearGradient>
<linearGradient id="paint1_linear_155_21" x1="64" y1="24" x2="64" y2="104" gradientUnits="userSpaceOnUse">
<stop stop-color="white"/>
<stop offset="1" stop-color="#999999"/>
</linearGradient>
</defs>
</svg>
