<svg width="128" height="128" viewBox="0 0 128 128" fill="none" xmlns="http://www.w3.org/2000/svg">
<rect width="128" height="128" rx="24" fill="url(#paint0_linear_163_79)"/>
<rect x="4" y="4" width="120" height="120" rx="20" stroke="black" stroke-opacity="0.25" stroke-width="8"/>
<g filter="url(#filter0_d_163_79)">
<path fill-rule="evenodd" clip-rule="evenodd" d="M77.3331 32.5331C77.3331 30.9784 75.6368 30.0182 74.3038 30.8183L66.1826 35.6931C65.5804 36.0546 65.2119 36.7055 65.2119 37.4079V51.3513C65.2119 52.906 66.9082 53.8662 68.2412 53.0661L76.3624 48.1913C76.9646 47.8298 77.3331 47.1789 77.3331 46.4765V32.5331ZM56.262 30.6278C45.1479 30.5664 24.0937 33.7967 24.0004 57.783C23.8873 86.8805 45.554 80.2374 50.4647 77.3009C59.9067 71.6895 69.6344 65.7528 78.5453 60.4985C83.398 57.6417 92.4844 55.7819 92.4844 69.2005C92.4844 81.1454 84.6664 85.7541 79.221 86.4195C78.1665 86.5484 77.3331 85.6603 77.3331 84.598V67.3446C77.3331 65.794 75.6449 64.8332 74.3117 65.625L66.1906 70.4487C65.5838 70.8091 65.2119 71.4626 65.2119 72.1683V95.2621C65.2119 96.2108 65.8814 97.0151 66.8248 97.1149C68.0036 97.2395 69.7043 97.361 71.7379 97.3722C82.852 97.4336 103.906 94.2033 104 70.217C104.113 41.1195 82.4459 47.7626 77.5352 50.6991C68.0933 56.3105 58.3656 62.2472 49.4547 67.5015C44.602 70.3583 35.5156 72.2181 35.5156 58.7995C35.5156 46.8546 43.3335 42.2459 48.7789 41.5805C49.8334 41.4516 50.6669 42.3397 50.6669 43.402V60.6554C50.6669 62.206 52.355 63.1668 53.6882 62.375L61.8094 57.5513C62.4161 57.1909 62.788 56.5374 62.788 55.8317V32.7379C62.788 31.7892 62.1185 30.9849 61.1751 30.8851C59.9964 30.7604 58.2956 30.639 56.262 30.6278ZM62.788 76.6487C62.788 75.094 61.0917 74.1338 59.7587 74.9339L51.6376 79.8087C51.0353 80.1702 50.6669 80.8211 50.6669 81.5235V95.4669C50.6669 97.0216 52.3631 97.9818 53.6962 97.1816L61.8173 92.3069C62.4196 91.9454 62.788 91.2945 62.788 90.5921V76.6487Z" fill="url(#paint1_linear_163_79)"/>
</g>
<defs>
<filter id="filter0_d_163_79" x="8" y="18.53" width="112" height="98.9399" filterUnits="userSpaceOnUse" color-interpolation-filters="sRGB">
<feFlood flood-opacity="0" result="BackgroundImageFix"/>
<feColorMatrix in="SourceAlpha" type="matrix" values="0 0 0 0 0 0 0 0 0 0 0 0 0 0 0 0 0 0 127 0" result="hardAlpha"/>
<feOffset dy="4"/>
<feGaussianBlur stdDeviation="8"/>
<feComposite in2="hardAlpha" operator="out"/>
<feColorMatrix type="matrix" values="0 0 0 0 0 0 0 0 0 0 0 0 0 0 0 0 0 0 0.5 0"/>
<feBlend mode="normal" in2="BackgroundImageFix" result="effect1_dropShadow_163_79"/>
<feBlend mode="normal" in="SourceGraphic" in2="effect1_dropShadow_163_79" result="shape"/>
</filter>
<linearGradient id="paint0_linear_163_79" x1="64" y1="0" x2="64" y2="128" gradientUnits="userSpaceOnUse">
<stop stop-color="#346DAD"/>
<stop offset="1" stop-color="#0D2847"/>
</linearGradient>
<linearGradient id="paint1_linear_163_79" x1="64" y1="29" x2="64" y2="99" gradientUnits="userSpaceOnUse">
<stop stop-color="white"/>
<stop offset="1" stop-color="#758BA4"/>
</linearGradient>
</defs>
</svg>
