<svg width="128" height="128" viewBox="0 0 128 128" fill="none" xmlns="http://www.w3.org/2000/svg">
<rect width="128" height="128" rx="24" fill="url(#paint0_linear_168_261)"/>
<rect x="4" y="4" width="120" height="120" rx="20" stroke="black" stroke-opacity="0.25" stroke-width="8"/>
<g filter="url(#filter0_d_168_261)">
<path fill-rule="evenodd" clip-rule="evenodd" d="M67.2927 28.0015C69.9686 28.0972 71.7845 30.1048 71.8801 34.12C71.9757 38.1353 70.2554 37.8485 73.6004 37.7529C76.9454 37.6573 86.2158 37.7529 89.4653 39.7605C92.7147 41.7681 100.456 45.9746 101.221 51.7107C101.985 57.4468 102.654 61.7489 100.838 66.5289C99.0224 71.3089 94.9129 76.089 93.4793 76.8539C92.0457 77.6187 96.8242 84.6932 97.4933 88.1349C98.1623 91.5765 98.2578 95.8786 94.8173 95.5918C91.3767 95.305 90.1343 90.7161 88.6051 85.936C87.076 81.1561 87.2671 79.1484 86.3114 79.0527C85.3557 78.9571 78.3789 82.8768 69.4908 83.068C60.6028 83.2592 56.971 82.3989 56.3019 83.4504C55.633 84.502 55.0595 90.4293 54.1994 92.5325C53.3392 94.6358 52.6702 100.276 50.0898 99.9895C47.5094 99.7027 44.7378 100.659 45.2157 96.739C45.6935 92.8193 48.7518 84.024 48.2739 83.068C47.7961 82.112 46.0758 80.7736 42.8264 81.4428C39.577 82.112 39.2902 91.2897 34.9895 93.1062C30.6888 94.9226 28.1084 92.7237 28.9685 90.2381C29.8287 87.7525 32.3135 84.5976 33.1737 82.7812C34.0338 80.9648 36.4231 79.0527 35.4674 77.9055C34.5116 76.7583 30.4021 74.3683 29.3508 70.831C28.2995 67.2938 26.6748 64.0433 27.0571 61.3665C27.3626 59.2271 28.393 54.9381 28.8714 53.0549C28.8724 53.051 28.8738 53.0475 28.8757 53.0439C30.2154 50.6197 33.4045 45.3807 35.4674 43.7758C38.0478 41.7681 39.0035 32.8772 42.6352 31.6344C46.2669 30.3916 48.6562 29.6268 49.6119 34.12C50.5677 38.6133 49.3252 38.9957 53.4348 38.5177C57.5443 38.0397 55.7285 39.7605 59.1691 36.0321C62.6096 32.3036 64.6167 27.9059 67.2927 28.0015ZM52.6702 56.4908C50.295 56.4908 48.3695 58.3741 48.3695 60.6972C48.3695 63.0204 50.295 64.9037 52.6702 64.9037C55.0454 64.9037 56.9709 63.0204 56.9709 60.6972C56.9709 58.3741 55.0454 56.4908 52.6702 56.4908ZM36.0408 50.3723C33.6656 50.3723 31.7401 52.2556 31.7401 54.5787C31.7401 56.9019 33.6656 58.7852 36.0408 58.7852C38.416 58.7852 40.3415 56.9019 40.3415 54.5787C40.3415 52.2556 38.416 50.3723 36.0408 50.3723Z" fill="url(#paint1_linear_168_261)"/>
<path d="M76.4041 83.5337C78.4862 82.7352 82.6816 81.3706 83.062 82.2076C83.5398 83.2592 85.1645 88.326 84.0177 90.2381C82.8708 92.1501 81.2461 93.2973 79.5258 92.3413C77.8086 91.387 76.8531 90.4327 76.3744 83.5822C76.3729 83.5613 76.3845 83.5412 76.4041 83.5337Z" fill="url(#paint2_linear_168_261)"/>
</g>
<defs>
<filter id="filter0_d_168_261" x="11" y="16" width="107" height="104" filterUnits="userSpaceOnUse" color-interpolation-filters="sRGB">
<feFlood flood-opacity="0" result="BackgroundImageFix"/>
<feColorMatrix in="SourceAlpha" type="matrix" values="0 0 0 0 0 0 0 0 0 0 0 0 0 0 0 0 0 0 127 0" result="hardAlpha"/>
<feOffset dy="4"/>
<feGaussianBlur stdDeviation="8"/>
<feComposite in2="hardAlpha" operator="out"/>
<feColorMatrix type="matrix" values="0 0 0 0 0 0 0 0 0 0 0 0 0 0 0 0 0 0 0.5 0"/>
<feBlend mode="normal" in2="BackgroundImageFix" result="effect1_dropShadow_168_261"/>
<feBlend mode="normal" in="SourceGraphic" in2="effect1_dropShadow_168_261" result="shape"/>
</filter>
<linearGradient id="paint0_linear_168_261" x1="64" y1="0" x2="64" y2="128" gradientUnits="userSpaceOnUse">
<stop stop-color="#FF71BF"/>
<stop offset="1" stop-color="#6B1E72"/>
</linearGradient>
<linearGradient id="paint1_linear_168_261" x1="64.5" y1="28" x2="64.5" y2="100" gradientUnits="userSpaceOnUse">
<stop stop-color="white"/>
<stop offset="1" stop-color="#CCA4C7"/>
</linearGradient>
<linearGradient id="paint2_linear_168_261" x1="64.5" y1="28" x2="64.5" y2="100" gradientUnits="userSpaceOnUse">
<stop stop-color="white"/>
<stop offset="1" stop-color="#CCA4C7"/>
</linearGradient>
</defs>
</svg>
