<svg width="128" height="128" viewBox="0 0 128 128" fill="none" xmlns="http://www.w3.org/2000/svg">
<rect width="128" height="128" rx="24" fill="url(#paint0_linear_150_2)"/>
<rect x="4" y="4" width="120" height="120" rx="20" stroke="black" stroke-opacity="0.25" stroke-width="8"/>
<g filter="url(#filter0_i_150_2)">
<rect x="16" y="16" width="96" height="96" rx="16" fill="url(#paint1_linear_150_2)"/>
</g>
<g opacity="0.5" filter="url(#filter1_f_150_2)">
<path d="M34.8727 52H28L37.8182 76H44.6909L55.1636 52H48.2909C48.16 52 43.7636 62.5263 41.5818 67.7895L34.8727 52Z" fill="url(#paint2_linear_150_2)"/>
<path d="M58.7636 76H44.6909L55.1636 52L62.0364 68.1053L58.7636 76Z" fill="url(#paint3_linear_150_2)"/>
<path d="M65.3091 76L55.1636 52H68.9091L79.3818 76H65.3091Z" fill="url(#paint4_linear_150_2)"/>
<path d="M79.3818 76L72.1818 59.8947L75.7818 52L82.6545 68.4211L79.3818 76Z" fill="url(#paint5_linear_150_2)"/>
<path d="M100 76H85.6L75.7819 52H89.5273L100 76Z" fill="#D9D9D9"/>
<path d="M100 76H85.6L75.7819 52H89.5273L100 76Z" fill="url(#paint6_linear_150_2)"/>
</g>
<path d="M34.8727 52H28L37.8182 76H44.6909L55.1636 52H48.2909C48.16 52 43.7636 62.5263 41.5818 67.7895L34.8727 52Z" fill="url(#paint7_linear_150_2)"/>
<path d="M58.7636 76H44.6909L55.1636 52L62.0364 68.1053L58.7636 76Z" fill="url(#paint8_linear_150_2)"/>
<path d="M65.3091 76L55.1636 52H68.9091L79.3818 76H65.3091Z" fill="url(#paint9_linear_150_2)"/>
<path d="M79.3818 76L72.1818 59.8947L75.7818 52L82.6545 68.4211L79.3818 76Z" fill="url(#paint10_linear_150_2)"/>
<path d="M100 76H85.6L75.7819 52H89.5273L100 76Z" fill="#D9D9D9"/>
<path d="M100 76H85.6L75.7819 52H89.5273L100 76Z" fill="url(#paint11_linear_150_2)"/>
<defs>
<filter id="filter0_i_150_2" x="16" y="16" width="96" height="96" filterUnits="userSpaceOnUse" color-interpolation-filters="sRGB">
<feFlood flood-opacity="0" result="BackgroundImageFix"/>
<feBlend mode="normal" in="SourceGraphic" in2="BackgroundImageFix" result="shape"/>
<feColorMatrix in="SourceAlpha" type="matrix" values="0 0 0 0 0 0 0 0 0 0 0 0 0 0 0 0 0 0 127 0" result="hardAlpha"/>
<feOffset/>
<feGaussianBlur stdDeviation="8"/>
<feComposite in2="hardAlpha" operator="arithmetic" k2="-1" k3="1"/>
<feColorMatrix type="matrix" values="0 0 0 0 0 0 0 0 0 0 0 0 0 0 0 0 0 0 0.5 0"/>
<feBlend mode="normal" in2="shape" result="effect1_innerShadow_150_2"/>
</filter>
<filter id="filter1_f_150_2" x="20" y="44" width="88" height="40" filterUnits="userSpaceOnUse" color-interpolation-filters="sRGB">
<feFlood flood-opacity="0" result="BackgroundImageFix"/>
<feBlend mode="normal" in="SourceGraphic" in2="BackgroundImageFix" result="shape"/>
<feGaussianBlur stdDeviation="4" result="effect1_foregroundBlur_150_2"/>
</filter>
<linearGradient id="paint0_linear_150_2" x1="64" y1="0" x2="64" y2="128" gradientUnits="userSpaceOnUse">
<stop stop-color="white"/>
<stop offset="1" stop-color="#818181"/>
</linearGradient>
<linearGradient id="paint1_linear_150_2" x1="64" y1="16" x2="64" y2="112" gradientUnits="userSpaceOnUse">
<stop stop-color="#31323D"/>
<stop offset="1" stop-color="#10161F"/>
</linearGradient>
<linearGradient id="paint2_linear_150_2" x1="41.5818" y1="52" x2="41.5818" y2="76" gradientUnits="userSpaceOnUse">
<stop stop-color="#FF3647"/>
<stop offset="1" stop-color="#4A0006"/>
</linearGradient>
<linearGradient id="paint3_linear_150_2" x1="44.6909" y1="76" x2="58.7636" y2="76" gradientUnits="userSpaceOnUse">
<stop stop-color="#FFD4DD"/>
<stop offset="1" stop-color="#8B575C"/>
</linearGradient>
<linearGradient id="paint4_linear_150_2" x1="67.2727" y1="52" x2="67.2727" y2="76" gradientUnits="userSpaceOnUse">
<stop stop-color="white"/>
<stop offset="1" stop-color="#EFC3C7"/>
</linearGradient>
<linearGradient id="paint5_linear_150_2" x1="72.1818" y1="76" x2="80.6785" y2="76" gradientUnits="userSpaceOnUse">
<stop stop-color="#FFD4DD"/>
<stop offset="1" stop-color="#8B575C"/>
</linearGradient>
<linearGradient id="paint6_linear_150_2" x1="87.8909" y1="52" x2="87.8909" y2="76" gradientUnits="userSpaceOnUse">
<stop stop-color="white"/>
<stop offset="1" stop-color="#EFC3C7"/>
</linearGradient>
<linearGradient id="paint7_linear_150_2" x1="41.5818" y1="52" x2="41.5818" y2="76" gradientUnits="userSpaceOnUse">
<stop stop-color="#FF3647"/>
<stop offset="1" stop-color="#D22938"/>
</linearGradient>
<linearGradient id="paint8_linear_150_2" x1="44.6909" y1="76" x2="58.7636" y2="76" gradientUnits="userSpaceOnUse">
<stop stop-color="#FFD4DD"/>
<stop offset="1" stop-color="#8B575C"/>
</linearGradient>
<linearGradient id="paint9_linear_150_2" x1="67.2727" y1="52" x2="67.2727" y2="76" gradientUnits="userSpaceOnUse">
<stop stop-color="white"/>
<stop offset="1" stop-color="#EFC3C7"/>
</linearGradient>
<linearGradient id="paint10_linear_150_2" x1="72.1818" y1="76" x2="80.6785" y2="76" gradientUnits="userSpaceOnUse">
<stop stop-color="#FFD4DD"/>
<stop offset="1" stop-color="#8B575C"/>
</linearGradient>
<linearGradient id="paint11_linear_150_2" x1="87.8909" y1="52" x2="87.8909" y2="76" gradientUnits="userSpaceOnUse">
<stop stop-color="white"/>
<stop offset="1" stop-color="#EFC3C7"/>
</linearGradient>
</defs>
</svg>
