<svg width="64" height="64" viewBox="0 0 64 64" fill="none" xmlns="http://www.w3.org/2000/svg">
<path d="M28 0H4C1.79086 0 0 1.79086 0 4V60C0 62.2091 1.79086 64 4 64H60C62.2091 64 64 62.2091 64 60V12C64 9.79086 62.2091 8 60 8H36C33.7909 8 32 6.20914 32 4C32 1.79086 30.2091 0 28 0Z" fill="url(#paint0_linear_3_2)"/>
<rect y="16" width="64" height="48" rx="4" fill="url(#paint1_linear_3_2)"/>
<g filter="url(#filter0_i_3_2)">
<path d="M32 29.5C29.5332 29.5 27.5 31.5332 27.5 34V40.5098C26.8145 40.1875 26.0527 40 25.25 40C22.3672 40 20 42.3672 20 45.25C20 48.1328 22.3672 50.5 25.25 50.5C28.1211 50.5 30.4883 48.1445 30.5 45.2734C30.5 45.2676 30.5 45.2559 30.5 45.25V34C30.5 33.1562 31.1562 32.5 32 32.5H38C38.8438 32.5 39.5 33.1562 39.5 34V40.5098C38.8145 40.1875 38.0527 40 37.25 40C34.3672 40 32 42.3672 32 45.25C32 48.1328 34.3672 50.5 37.25 50.5C40.1328 50.5 42.5 48.1328 42.5 45.25V34C42.5 31.5332 40.4668 29.5 38 29.5H32ZM25.25 43C26.5098 43 27.5 43.9902 27.5 45.25V45.2734C27.4883 46.5215 26.5039 47.5 25.25 47.5C23.9902 47.5 23 46.5098 23 45.25C23 43.9902 23.9902 43 25.25 43ZM37.25 43C38.5098 43 39.5 43.9902 39.5 45.25C39.5 46.5098 38.5098 47.5 37.25 47.5C35.9902 47.5 35 46.5098 35 45.25C35 43.9902 35.9902 43 37.25 43Z" fill="#204C86"/>
</g>
<defs>
<filter id="filter0_i_3_2" x="20" y="29.5" width="22.5" height="25" filterUnits="userSpaceOnUse" color-interpolation-filters="sRGB">
<feFlood flood-opacity="0" result="BackgroundImageFix"/>
<feBlend mode="normal" in="SourceGraphic" in2="BackgroundImageFix" result="shape"/>
<feColorMatrix in="SourceAlpha" type="matrix" values="0 0 0 0 0 0 0 0 0 0 0 0 0 0 0 0 0 0 127 0" result="hardAlpha"/>
<feOffset dy="4"/>
<feGaussianBlur stdDeviation="2"/>
<feComposite in2="hardAlpha" operator="arithmetic" k2="-1" k3="1"/>
<feColorMatrix type="matrix" values="0 0 0 0 0 0 0 0 0 0 0 0 0 0 0 0 0 0 0.25 0"/>
<feBlend mode="normal" in2="shape" result="effect1_innerShadow_3_2"/>
</filter>
<linearGradient id="paint0_linear_3_2" x1="32" y1="0" x2="32" y2="16" gradientUnits="userSpaceOnUse">
<stop stop-color="#558ACF"/>
<stop offset="1" stop-color="#2E67B2"/>
</linearGradient>
<linearGradient id="paint1_linear_3_2" x1="32" y1="16" x2="32" y2="64" gradientUnits="userSpaceOnUse">
<stop stop-color="#78B3FF"/>
<stop offset="1" stop-color="#406EAC"/>
</linearGradient>
</defs>
</svg>
