<svg width="64" height="64" viewBox="0 0 64 64" fill="none" xmlns="http://www.w3.org/2000/svg">
<path d="M28 0H4C1.79086 0 0 1.79086 0 4V60C0 62.2091 1.79086 64 4 64H60C62.2091 64 64 62.2091 64 60V12C64 9.79086 62.2091 8 60 8H36C33.7909 8 32 6.20914 32 4C32 1.79086 30.2091 0 28 0Z" fill="url(#paint0_linear_2_9)"/>
<rect y="16" width="64" height="48" rx="4" fill="url(#paint1_linear_2_9)"/>
<g filter="url(#filter0_i_2_9)">
<path d="M38 52C40.4902 52 42.5 49.9902 42.5 47.5V38.5C42.5 37.1055 41.8789 35.7813 40.8066 34.8848L34.1152 29.3066C32.8906 28.2871 31.1094 28.2871 29.8848 29.3066L23.1934 34.8848C22.1211 35.7813 21.5 37.1055 21.5 38.5V47.5C21.5 49.9902 23.5098 52 26 52H38ZM24.5 47.5V38.5C24.5 37.9961 24.7227 37.5156 25.1152 37.1934L31.8066 31.6152C31.918 31.5215 32.082 31.5215 32.1934 31.6152L38.8848 37.1934C39.2773 37.5156 39.5 37.9961 39.5 38.5V47.5C39.5 48.3203 38.8203 49 38 49H26C25.1797 49 24.5 48.3203 24.5 47.5Z" fill="#204C86"/>
<path d="M30.5 40H33.5C34.3262 40 35 40.6738 35 41.5V49C35 49.8262 34.3262 50.5 33.5 50.5H30.5C29.6738 50.5 29 49.8262 29 49V41.5C29 40.6738 29.6738 40 30.5 40Z" fill="#204C86"/>
</g>
<defs>
<filter id="filter0_i_2_9" x="20" y="28" width="24" height="28" filterUnits="userSpaceOnUse" color-interpolation-filters="sRGB">
<feFlood flood-opacity="0" result="BackgroundImageFix"/>
<feBlend mode="normal" in="SourceGraphic" in2="BackgroundImageFix" result="shape"/>
<feColorMatrix in="SourceAlpha" type="matrix" values="0 0 0 0 0 0 0 0 0 0 0 0 0 0 0 0 0 0 127 0" result="hardAlpha"/>
<feOffset dy="4"/>
<feGaussianBlur stdDeviation="2"/>
<feComposite in2="hardAlpha" operator="arithmetic" k2="-1" k3="1"/>
<feColorMatrix type="matrix" values="0 0 0 0 0 0 0 0 0 0 0 0 0 0 0 0 0 0 0.25 0"/>
<feBlend mode="normal" in2="shape" result="effect1_innerShadow_2_9"/>
</filter>
<linearGradient id="paint0_linear_2_9" x1="32" y1="0" x2="32" y2="16" gradientUnits="userSpaceOnUse">
<stop stop-color="#558ACF"/>
<stop offset="1" stop-color="#2E67B2"/>
</linearGradient>
<linearGradient id="paint1_linear_2_9" x1="32" y1="16" x2="32" y2="64" gradientUnits="userSpaceOnUse">
<stop stop-color="#78B3FF"/>
<stop offset="1" stop-color="#406EAC"/>
</linearGradient>
</defs>
</svg>
