<svg width="64" height="64" viewBox="0 0 64 64" fill="none" xmlns="http://www.w3.org/2000/svg">
<path d="M28 0H4C1.79086 0 0 1.79086 0 4V60C0 62.2091 1.79086 64 4 64H60C62.2091 64 64 62.2091 64 60V12C64 9.79086 62.2091 8 60 8H36C33.7909 8 32 6.20914 32 4C32 1.79086 30.2091 0 28 0Z" fill="url(#paint0_linear_3_15)"/>
<rect y="16" width="64" height="48" rx="4" fill="url(#paint1_linear_3_15)"/>
<g filter="url(#filter0_i_3_15)">
<path d="M32 28C31.1738 28 30.5 28.6738 30.5 29.5V42.3789L27.0605 38.9395C26.7793 38.6582 26.3984 38.5 26 38.5C25.6016 38.5 25.2207 38.6582 24.9395 38.9395C24.3535 39.5254 24.3535 40.4746 24.9395 41.0605L30.9395 47.0605C31.5254 47.6465 32.4746 47.6465 33.0605 47.0605L39.0605 41.0605C39.6465 40.4746 39.6465 39.5254 39.0605 38.9395C38.4746 38.3535 37.5254 38.3535 36.9395 38.9395L33.5 42.3789V29.5C33.5 28.6738 32.8262 28 32 28ZM23 49V52H41V49H23Z" fill="#204C86"/>
</g>
<defs>
<filter id="filter0_i_3_15" x="23" y="28" width="18" height="28" filterUnits="userSpaceOnUse" color-interpolation-filters="sRGB">
<feFlood flood-opacity="0" result="BackgroundImageFix"/>
<feBlend mode="normal" in="SourceGraphic" in2="BackgroundImageFix" result="shape"/>
<feColorMatrix in="SourceAlpha" type="matrix" values="0 0 0 0 0 0 0 0 0 0 0 0 0 0 0 0 0 0 127 0" result="hardAlpha"/>
<feOffset dy="4"/>
<feGaussianBlur stdDeviation="2"/>
<feComposite in2="hardAlpha" operator="arithmetic" k2="-1" k3="1"/>
<feColorMatrix type="matrix" values="0 0 0 0 0 0 0 0 0 0 0 0 0 0 0 0 0 0 0.25 0"/>
<feBlend mode="normal" in2="shape" result="effect1_innerShadow_3_15"/>
</filter>
<linearGradient id="paint0_linear_3_15" x1="32" y1="0" x2="32" y2="16" gradientUnits="userSpaceOnUse">
<stop stop-color="#558ACF"/>
<stop offset="1" stop-color="#2E67B2"/>
</linearGradient>
<linearGradient id="paint1_linear_3_15" x1="32" y1="16" x2="32" y2="64" gradientUnits="userSpaceOnUse">
<stop stop-color="#78B3FF"/>
<stop offset="1" stop-color="#406EAC"/>
</linearGradient>
</defs>
</svg>
