<svg width="64" height="64" viewBox="0 0 64 64" fill="none" xmlns="http://www.w3.org/2000/svg">
<path d="M6.92308 14.7692H56.1539V60C56.1539 62.2091 54.363 64 52.1539 64H10.9231C8.71395 64 6.92308 62.2091 6.92308 60V14.7692Z" fill="url(#paint0_linear_3_74)"/>
<path d="M2 8.92307C2 6.71393 3.79086 4.92308 6 4.92308H57.0769C59.2861 4.92308 61.0769 6.71394 61.0769 8.92308V10.7692C61.0769 12.9784 59.2861 14.7692 57.0769 14.7692H6C3.79086 14.7692 2 12.9784 2 10.7692V8.92307Z" fill="url(#paint1_linear_3_74)"/>
<path d="M21.6923 4C21.6923 1.79086 23.4832 0 25.6923 0H37.3846C39.5938 0 41.3846 1.79086 41.3846 4V4.92308H21.6923V4Z" fill="url(#paint2_linear_3_74)"/>
<g filter="url(#filter0_i_3_74)">
<rect x="16.7692" y="19.6923" width="4.92308" height="39.3846" rx="2.46154" fill="#3C3C3C"/>
<rect x="29.0769" y="19.6923" width="4.92308" height="39.3846" rx="2.46154" fill="#3C3C3C"/>
<rect x="41.3846" y="19.6923" width="4.92308" height="39.3846" rx="2.46154" fill="#3C3C3C"/>
</g>
<defs>
<filter id="filter0_i_3_74" x="16.7692" y="19.6923" width="29.5385" height="43.3846" filterUnits="userSpaceOnUse" color-interpolation-filters="sRGB">
<feFlood flood-opacity="0" result="BackgroundImageFix"/>
<feBlend mode="normal" in="SourceGraphic" in2="BackgroundImageFix" result="shape"/>
<feColorMatrix in="SourceAlpha" type="matrix" values="0 0 0 0 0 0 0 0 0 0 0 0 0 0 0 0 0 0 127 0" result="hardAlpha"/>
<feOffset dy="4"/>
<feGaussianBlur stdDeviation="2"/>
<feComposite in2="hardAlpha" operator="arithmetic" k2="-1" k3="1"/>
<feColorMatrix type="matrix" values="0 0 0 0 0 0 0 0 0 0 0 0 0 0 0 0 0 0 0.25 0"/>
<feBlend mode="normal" in2="shape" result="effect1_innerShadow_3_74"/>
</filter>
<linearGradient id="paint0_linear_3_74" x1="31.5385" y1="14.7692" x2="31.5385" y2="64" gradientUnits="userSpaceOnUse">
<stop stop-color="#8F8F8F"/>
<stop offset="1" stop-color="#3C3C3C"/>
</linearGradient>
<linearGradient id="paint1_linear_3_74" x1="31.5385" y1="4.92308" x2="31.5385" y2="14.7692" gradientUnits="userSpaceOnUse">
<stop stop-color="#8F8F8F"/>
<stop offset="1" stop-color="#3C3C3C"/>
</linearGradient>
<linearGradient id="paint2_linear_3_74" x1="31.5385" y1="0" x2="31.5385" y2="4.92308" gradientUnits="userSpaceOnUse">
<stop stop-color="#8F8F8F"/>
<stop offset="1" stop-color="#8F8F8F"/>
</linearGradient>
</defs>
</svg>
