<svg width="128" height="128" viewBox="0 0 128 128" fill="none" xmlns="http://www.w3.org/2000/svg">
<rect width="128" height="128" rx="24" fill="url(#paint0_linear_25_115)"/>
<rect x="4" y="4" width="120" height="120" rx="20" stroke="black" stroke-opacity="0.25" stroke-width="8"/>
<g filter="url(#filter0_d_25_115)">
<rect x="16" y="16" width="96" height="96" rx="12" fill="url(#paint1_linear_25_115)"/>
<path d="M112 47.3043H16V48.3478H112V47.3043Z" fill="black" fill-opacity="0.1"/>
<path d="M112 79.6522H16V80.6957H112V79.6522Z" fill="black" fill-opacity="0.1"/>
<path fill-rule="evenodd" clip-rule="evenodd" d="M36.1774 90.7554C36.1476 90.7554 36.1169 90.75 36.0862 90.7391L31.0468 88.9371C30.8979 88.8836 30.7878 88.8002 30.7129 88.6842C30.6425 88.5754 30.6073 88.4403 30.6073 88.2835C30.6073 88.2183 30.6119 88.1621 30.6236 88.1113C30.6308 88.0787 30.6732 87.9763 30.6904 87.9491L30.9981 87.3952C31.0802 87.2593 31.1732 87.155 31.2797 87.0816C31.3961 86.9982 31.5306 86.9565 31.6686 86.9565C31.6921 86.9565 31.786 86.9674 31.8103 86.9737C31.8546 86.9846 31.9015 87.0018 31.9466 87.0254L36.5654 89.7356C36.6873 89.8073 36.7342 89.9632 36.671 90.091L36.4201 90.604C36.375 90.6965 36.2803 90.7554 36.1774 90.7554ZM34.6414 94.3612C34.5674 94.3621 34.5015 94.4092 34.4753 94.4799L33.2263 97.9045C33.2065 97.9588 33.2146 98.0214 33.248 98.0694C33.2823 98.1184 33.3373 98.1474 33.396 98.1474H36.0285C36.088 98.1474 36.1449 98.1175 36.1783 98.0667C36.2117 98.0178 36.218 97.9534 36.1963 97.8981L34.8119 94.4745C34.7849 94.4056 34.7181 94.3612 34.645 94.3612H34.6414ZM37.2784 103.652C36.7098 103.652 36.3705 103.59 36.1783 103.452C35.9662 103.298 35.8588 103.039 35.8588 102.682C35.8588 102.256 36.0483 102.042 36.2072 101.937C36.4057 101.806 36.7333 101.742 37.2107 101.742H37.4372C37.4968 101.742 37.5527 101.712 37.587 101.662C37.6204 101.613 37.6267 101.548 37.6042 101.493L37.0356 100.093C37.0076 100.026 36.9418 99.9802 36.8687 99.9802H32.5847C32.5088 99.9802 32.4403 100.027 32.415 100.1L31.9105 101.499C31.8907 101.555 31.8988 101.616 31.9322 101.665C31.9656 101.713 32.0215 101.742 32.0802 101.742H32.3744C32.8563 101.742 33.1875 101.805 33.3897 101.936C33.6252 102.089 33.7452 102.34 33.7452 102.682C33.7452 103.126 33.571 103.346 33.4248 103.452C33.2353 103.588 32.8951 103.652 32.3545 103.652H29.8159C29.3267 103.652 29.0244 103.59 28.8349 103.449C28.6264 103.296 28.5217 103.038 28.5217 102.682C28.5217 102.255 28.6932 102.042 28.8376 101.939C29.0046 101.818 29.2717 101.755 29.6534 101.744C29.7265 101.741 29.7915 101.695 29.8168 101.626L32.7588 93.8001C32.7796 93.7448 32.7724 93.6823 32.7381 93.6342C32.7047 93.5844 32.6496 93.5554 32.5901 93.5554H31.8338C31.3753 93.5554 31.0649 93.4901 30.8564 93.3496C30.6209 93.1901 30.5009 92.9317 30.5009 92.5864C30.5009 92.2356 30.6119 91.97 30.8212 91.8177C30.9584 91.718 31.2201 91.6165 32.1136 91.6165H34.8643C35.2875 91.6165 35.5673 91.679 35.7451 91.8105C35.913 91.9365 36.0537 92.1431 36.1774 92.4432L39.8405 101.631C39.8667 101.697 39.9298 101.742 40.0011 101.745C40.3396 101.758 40.5814 101.822 40.7421 101.942C40.9415 102.093 41.0435 102.341 41.0435 102.682C41.0435 103.032 40.9478 103.287 40.7601 103.441C40.5841 103.585 40.3125 103.652 39.9037 103.652H37.2784Z" fill="#E3450D"/>
<path fill-rule="evenodd" clip-rule="evenodd" d="M37.652 58.1327C36.9095 58.1327 36.2875 58.4699 35.8034 59.1332C35.1978 60.0354 34.9171 61.5858 34.9171 64.0183C34.9171 66.1155 35.2325 67.8228 35.8034 68.8244C36.2556 69.4917 36.9316 69.8674 37.6694 69.8674C39.5238 69.8674 40.3869 68.0031 40.3869 64C40.3869 61.5595 40.114 60.0091 39.5286 59.122C39.0387 58.4709 38.3926 58.1327 37.652 58.1327ZM37.6347 71.3044C34.3125 71.3044 32.3838 68.9449 32.2035 64.6603C32.1996 64.5519 32.1138 64.4659 32.0106 64.4659H30.6248C30.5188 64.4659 30.432 64.557 30.432 64.6694V68.5297C30.432 69.3439 30.4947 69.4826 30.5641 69.5646C30.649 69.6436 30.7676 69.7044 31.3973 69.7044C31.5574 69.7044 31.6866 69.8411 31.6866 70.0082V70.7302C31.6866 70.8973 31.5574 71.034 31.3973 71.034H26.7241C26.564 71.034 26.4348 70.8973 26.4348 70.7302V70.0082C26.4348 69.8411 26.564 69.7044 26.7241 69.7044C27.6865 69.7044 27.7752 69.6061 27.7752 68.5297V59.4714C27.7752 58.6542 27.7145 58.5205 27.6412 58.4395C27.5592 58.3585 27.4348 58.2947 26.7241 58.2947C26.564 58.2947 26.4348 58.159 26.4348 57.9909V57.2699C26.4348 57.1018 26.564 56.9661 26.7241 56.9661H31.3973C31.5574 56.9661 31.6866 57.1018 31.6866 57.2699V57.9909C31.6866 58.159 31.5574 58.2947 31.3973 58.2947C30.7743 58.2947 30.6538 58.3514 30.5843 58.4091C30.4908 58.5215 30.432 58.6623 30.432 59.4714V62.7727C30.432 62.8841 30.5188 62.9752 30.6248 62.9752H32.0473C32.1475 62.9752 32.2305 62.8942 32.2392 62.7899C32.5603 58.9165 34.5333 56.6957 37.652 56.6957C41.1333 56.6957 43.1304 59.357 43.1304 64C43.1304 66.4679 42.6155 68.3555 41.601 69.6092C40.6318 70.717 39.2596 71.3044 37.6347 71.3044Z" fill="#1595E0"/>
<path fill-rule="evenodd" clip-rule="evenodd" d="M33.9285 25.6072C33.9073 25.6072 33.887 25.611 33.8667 25.6178C33.4429 25.7615 32.9342 25.9138 32.2643 26.0961C32.1803 26.1192 32.1214 26.1954 32.1214 26.2822V28.8194C32.1214 28.9033 32.1774 28.9775 32.2575 29.0026C32.2769 29.0094 32.2962 29.0123 32.3155 29.0123C32.3772 29.0123 32.4371 28.9824 32.4738 28.9284L33.1427 27.965C33.1881 27.8994 33.2595 27.856 33.3377 27.8435H33.358C33.4545 27.8435 33.5115 27.8647 33.5607 27.9033L34.5839 28.7152C34.6187 28.7422 34.6612 28.7577 34.7036 28.7577C34.7326 28.7577 34.7606 28.7509 34.7876 28.7384C34.8542 28.7056 34.8967 28.6381 34.8967 28.5638V26.1713C34.8967 26.098 34.9237 26.0286 34.9739 25.9755C35.0309 25.9129 35.0415 25.8213 34.9981 25.748C34.9633 25.6872 34.8996 25.6515 34.832 25.6515C34.8175 25.6515 34.8031 25.6535 34.7886 25.6564C34.6988 25.6766 34.6013 25.6872 34.498 25.6872C34.3378 25.6872 34.1669 25.6631 33.9777 25.6139C33.9613 25.6091 33.9449 25.6072 33.9285 25.6072ZM32.3155 30.0518C32.2083 30.0518 32.1214 30.1386 32.1214 30.2447V31.3045C32.1214 31.3903 32.1784 31.4646 32.2595 31.4897C33.3126 31.8079 34.0868 32.2399 34.5588 32.7732C34.5965 32.8156 34.6496 32.8388 34.7036 32.8388C34.7268 32.8388 34.75 32.8349 34.7722 32.8262C34.8475 32.7983 34.8967 32.7259 34.8967 32.6459V30.209C34.8967 30.1521 34.8716 30.0981 34.8272 30.0615C34.7925 30.0325 34.749 30.0161 34.7036 30.0161C34.693 30.0161 34.6805 30.0181 34.6699 30.02C34.528 30.046 34.3822 30.0518 34.2403 30.0518H32.3155ZM37.4924 27.6284C37.3862 27.6284 37.2994 27.7152 37.2994 27.8213V36.566C37.2994 36.672 37.3862 36.7588 37.4924 36.7588H39.7783C39.8845 36.7588 39.9713 36.672 39.9713 36.566V27.8213C39.9713 27.7152 39.8845 27.6284 39.7783 27.6284H37.4924ZM30.0441 40C29.8839 40 29.7545 39.8708 29.7545 39.7107V34.9208C29.7545 34.8378 29.7004 34.7636 29.6213 34.7376C29.601 34.7308 29.5807 34.7279 29.5614 34.7279C29.5006 34.7279 29.4427 34.7568 29.4051 34.808C28.7458 35.7106 27.9764 36.538 27.1182 37.268C27.0661 37.3124 26.9995 37.3374 26.93 37.3374C26.8489 37.3374 26.7727 37.3037 26.7176 37.2439L26.5111 37.0211C26.4194 36.9208 26.4087 36.7685 26.4879 36.6576C27.6106 35.0683 28.5498 32.806 29.1328 30.2881C29.1464 30.2312 29.1328 30.1704 29.0962 30.1251C29.0595 30.0788 29.0035 30.0518 28.9446 30.0518H26.9126C26.7794 30.0518 26.6645 29.9621 26.6317 29.8329L26.5458 29.4886C26.5246 29.4019 26.5439 29.3112 26.5989 29.2408C26.6539 29.1704 26.7369 29.1299 26.8277 29.1299H29.5614C29.6676 29.1299 29.7545 29.0431 29.7545 28.937V26.909C29.7545 26.8521 29.7284 26.7972 29.685 26.7605C29.6493 26.7316 29.6058 26.7162 29.5614 26.7162C29.5489 26.7162 29.5383 26.7171 29.5257 26.7191C28.6714 26.8762 27.7669 27.0122 26.9117 27.1115H26.9068C26.7485 27.1115 26.6395 27.0296 26.6018 26.909L26.5323 26.6853C26.4869 26.5349 26.5671 26.3777 26.7157 26.3275C28.7593 25.6303 31.4081 24.3265 32.746 23.3593C32.7962 23.3236 32.8551 23.3043 32.9159 23.3043C32.9825 23.3043 33.0452 23.3265 33.0974 23.368L35.1612 25.017C35.2249 25.0681 35.2645 25.1453 35.2693 25.2272C35.2741 25.3092 35.2433 25.3892 35.1844 25.4471C35.1544 25.4779 35.1216 25.5059 35.0859 25.5291C35.0164 25.5773 34.9855 25.6641 35.0096 25.7451C35.0338 25.8251 35.1071 25.881 35.1921 25.882C35.2297 25.883 35.2664 25.8907 35.3012 25.9061L37.1188 26.6911L39.8458 26.7065C39.9067 26.7065 39.9646 26.6776 40.0013 26.6294L40.6133 25.8087C40.6683 25.7354 40.7532 25.693 40.8459 25.693C40.9077 25.693 40.9666 25.7123 41.0158 25.748L43.0121 27.2089C43.1375 27.3006 43.1675 27.4741 43.0816 27.6024C42.9773 27.7586 42.7871 27.8917 42.5149 27.9968C42.4396 28.0248 42.3904 28.0971 42.3904 28.1762V38.5429C42.3904 38.9141 41.4801 39.3298 40.2609 39.3298C40.1007 39.3298 39.9713 39.2005 39.9713 39.0414V37.8736C39.9713 37.7675 39.8845 37.6807 39.7783 37.6807H37.4924C37.3862 37.6807 37.2994 37.7675 37.2994 37.8736V38.646C37.2994 38.8592 36.9412 39.6567 35.1863 39.6567C35.027 39.6567 34.8967 39.5274 34.8967 39.3674V35.1329C34.8967 35.0596 34.8552 34.9931 34.7896 34.9603C34.7625 34.9468 34.7326 34.9401 34.7036 34.9401C34.6621 34.9401 34.6206 34.9536 34.5868 34.9806C34.3928 35.1281 34.1602 35.2062 33.914 35.2062C33.5984 35.2062 33.2895 35.0645 33.0211 34.7954C32.9767 34.7511 32.9477 34.6932 32.9391 34.6305C32.8869 34.2602 32.7305 33.8205 32.4854 33.3595C32.4516 33.2949 32.385 33.2563 32.3155 33.2563C32.3 33.2563 32.2836 33.2583 32.2682 33.2621C32.1823 33.2833 32.1214 33.3614 32.1214 33.4492V39.1957C32.0655 39.6123 31.2459 40 30.3704 40H30.0441Z" fill="#C057EA"/>
</g>
<defs>
<filter id="filter0_d_25_115" x="0" y="0" width="128" height="128" filterUnits="userSpaceOnUse" color-interpolation-filters="sRGB">
<feFlood flood-opacity="0" result="BackgroundImageFix"/>
<feColorMatrix in="SourceAlpha" type="matrix" values="0 0 0 0 0 0 0 0 0 0 0 0 0 0 0 0 0 0 127 0" result="hardAlpha"/>
<feOffset/>
<feGaussianBlur stdDeviation="8"/>
<feComposite in2="hardAlpha" operator="out"/>
<feColorMatrix type="matrix" values="0 0 0 0 0 0 0 0 0 0 0 0 0 0 0 0 0 0 0.5 0"/>
<feBlend mode="normal" in2="BackgroundImageFix" result="effect1_dropShadow_25_115"/>
<feBlend mode="normal" in="SourceGraphic" in2="effect1_dropShadow_25_115" result="shape"/>
</filter>
<linearGradient id="paint0_linear_25_115" x1="65" y1="-6.52726e-07" x2="65" y2="128" gradientUnits="userSpaceOnUse">
<stop stop-color="#FFDA48"/>
<stop offset="1" stop-color="#E88019"/>
</linearGradient>
<linearGradient id="paint1_linear_25_115" x1="64" y1="16" x2="64" y2="112" gradientUnits="userSpaceOnUse">
<stop stop-color="white"/>
<stop offset="1" stop-color="#BFBFBF"/>
</linearGradient>
</defs>
</svg>
