<svg width="128" height="128" viewBox="0 0 128 128" fill="none" xmlns="http://www.w3.org/2000/svg">
<rect width="128" height="128" rx="24" fill="url(#paint0_linear_25_115)"/>
<rect x="4" y="4" width="120" height="120" rx="20" stroke="black" stroke-opacity="0.25" stroke-width="8"/>
<g filter="url(#filter0_d_25_115)">
<rect x="16" y="16" width="96" height="96" rx="12" fill="url(#paint1_linear_25_115)"/>
<path d="M112 47.3043H16V48.3478H112V47.3043Z" fill="black" fill-opacity="0.1"/>
<path d="M112 79.6522H16V80.6957H112V79.6522Z" fill="black" fill-opacity="0.1"/>
<path fill-rule="evenodd" clip-rule="evenodd" d="M38.1774 90.7554C38.1476 90.7554 38.1169 90.75 38.0862 90.7391L33.0468 88.9371C32.8979 88.8836 32.7878 88.8002 32.7129 88.6842C32.6425 88.5754 32.6073 88.4403 32.6073 88.2835C32.6073 88.2183 32.6119 88.1621 32.6236 88.1113C32.6308 88.0787 32.6732 87.9763 32.6904 87.9491L32.9981 87.3952C33.0802 87.2593 33.1732 87.155 33.2797 87.0816C33.3961 86.9982 33.5306 86.9565 33.6686 86.9565C33.6921 86.9565 33.786 86.9674 33.8103 86.9737C33.8546 86.9846 33.9015 87.0018 33.9466 87.0254L38.5654 89.7356C38.6873 89.8073 38.7342 89.9632 38.671 90.091L38.4201 90.604C38.375 90.6965 38.2803 90.7554 38.1774 90.7554ZM36.6414 94.3612C36.5674 94.3621 36.5015 94.4092 36.4753 94.4799L35.2263 97.9045C35.2065 97.9588 35.2146 98.0214 35.248 98.0694C35.2823 98.1184 35.3373 98.1474 35.396 98.1474H38.0285C38.088 98.1474 38.1449 98.1175 38.1783 98.0667C38.2117 98.0178 38.218 97.9534 38.1963 97.8981L36.8119 94.4745C36.7849 94.4056 36.7181 94.3612 36.645 94.3612H36.6414ZM39.2784 103.652C38.7098 103.652 38.3705 103.59 38.1783 103.452C37.9662 103.298 37.8588 103.039 37.8588 102.682C37.8588 102.256 38.0483 102.042 38.2072 101.937C38.4057 101.806 38.7333 101.742 39.2107 101.742H39.4372C39.4968 101.742 39.5527 101.712 39.587 101.662C39.6204 101.613 39.6267 101.548 39.6042 101.493L39.0356 100.093C39.0076 100.026 38.9418 99.9802 38.8687 99.9802H34.5847C34.5088 99.9802 34.4403 100.027 34.415 100.1L33.9105 101.499C33.8907 101.555 33.8988 101.616 33.9322 101.665C33.9656 101.713 34.0215 101.742 34.0802 101.742H34.3744C34.8563 101.742 35.1875 101.805 35.3897 101.936C35.6252 102.089 35.7452 102.34 35.7452 102.682C35.7452 103.126 35.571 103.346 35.4248 103.452C35.2353 103.588 34.8951 103.652 34.3545 103.652H31.8159C31.3267 103.652 31.0244 103.59 30.8349 103.449C30.6264 103.296 30.5217 103.038 30.5217 102.682C30.5217 102.255 30.6932 102.042 30.8376 101.939C31.0046 101.818 31.2717 101.755 31.6534 101.744C31.7265 101.741 31.7915 101.695 31.8168 101.626L34.7588 93.8001C34.7796 93.7448 34.7724 93.6823 34.7381 93.6342C34.7047 93.5844 34.6496 93.5554 34.5901 93.5554H33.8338C33.3753 93.5554 33.0649 93.4901 32.8564 93.3496C32.6209 93.1901 32.5009 92.9317 32.5009 92.5864C32.5009 92.2356 32.6119 91.97 32.8212 91.8177C32.9584 91.718 33.2201 91.6165 34.1136 91.6165H36.8643C37.2875 91.6165 37.5673 91.679 37.7451 91.8105C37.913 91.9365 38.0537 92.1431 38.1774 92.4432L41.8405 101.631C41.8667 101.697 41.9298 101.742 42.0011 101.745C42.3396 101.758 42.5814 101.822 42.7421 101.942C42.9415 102.093 43.0435 102.341 43.0435 102.682C43.0435 103.032 42.9478 103.287 42.7601 103.441C42.5841 103.585 42.3125 103.652 41.9037 103.652H39.2784Z" fill="#E3450D"/>
<path fill-rule="evenodd" clip-rule="evenodd" d="M39.652 58.1327C38.9095 58.1327 38.2875 58.4699 37.8034 59.1332C37.1978 60.0354 36.9171 61.5858 36.9171 64.0183C36.9171 66.1155 37.2325 67.8228 37.8034 68.8244C38.2556 69.4917 38.9316 69.8674 39.6694 69.8674C41.5238 69.8674 42.3869 68.0031 42.3869 64C42.3869 61.5595 42.114 60.0091 41.5286 59.122C41.0387 58.4709 40.3926 58.1327 39.652 58.1327ZM39.6347 71.3044C36.3125 71.3044 34.3838 68.9449 34.2035 64.6603C34.1996 64.5519 34.1138 64.4659 34.0106 64.4659H32.6248C32.5188 64.4659 32.432 64.557 32.432 64.6694V68.5297C32.432 69.3439 32.4947 69.4826 32.5641 69.5646C32.649 69.6436 32.7676 69.7044 33.3973 69.7044C33.5574 69.7044 33.6866 69.8411 33.6866 70.0082V70.7302C33.6866 70.8973 33.5574 71.034 33.3973 71.034H28.7241C28.564 71.034 28.4348 70.8973 28.4348 70.7302V70.0082C28.4348 69.8411 28.564 69.7044 28.7241 69.7044C29.6865 69.7044 29.7752 69.6061 29.7752 68.5297V59.4714C29.7752 58.6542 29.7145 58.5205 29.6412 58.4395C29.5592 58.3585 29.4348 58.2947 28.7241 58.2947C28.564 58.2947 28.4348 58.159 28.4348 57.9909V57.2699C28.4348 57.1018 28.564 56.9661 28.7241 56.9661H33.3973C33.5574 56.9661 33.6866 57.1018 33.6866 57.2699V57.9909C33.6866 58.159 33.5574 58.2947 33.3973 58.2947C32.7743 58.2947 32.6538 58.3514 32.5843 58.4091C32.4908 58.5215 32.432 58.6623 32.432 59.4714V62.7727C32.432 62.8841 32.5188 62.9752 32.6248 62.9752H34.0473C34.1475 62.9752 34.2305 62.8942 34.2392 62.7899C34.5603 58.9165 36.5333 56.6957 39.652 56.6957C43.1333 56.6957 45.1304 59.357 45.1304 64C45.1304 66.4679 44.6155 68.3555 43.601 69.6092C42.6318 70.717 41.2596 71.3044 39.6347 71.3044Z" fill="#1595E0"/>
<path fill-rule="evenodd" clip-rule="evenodd" d="M35.9285 25.6072C35.9073 25.6072 35.887 25.611 35.8667 25.6178C35.4429 25.7615 34.9342 25.9138 34.2643 26.0961C34.1803 26.1192 34.1214 26.1954 34.1214 26.2822V28.8194C34.1214 28.9033 34.1774 28.9775 34.2575 29.0026C34.2769 29.0094 34.2962 29.0123 34.3155 29.0123C34.3772 29.0123 34.4371 28.9824 34.4738 28.9284L35.1427 27.965C35.1881 27.8994 35.2595 27.856 35.3377 27.8435H35.358C35.4545 27.8435 35.5115 27.8647 35.5607 27.9033L36.5839 28.7152C36.6187 28.7422 36.6612 28.7577 36.7036 28.7577C36.7326 28.7577 36.7606 28.7509 36.7876 28.7384C36.8542 28.7056 36.8967 28.6381 36.8967 28.5638V26.1713C36.8967 26.098 36.9237 26.0286 36.9739 25.9755C37.0309 25.9129 37.0415 25.8213 36.9981 25.748C36.9633 25.6872 36.8996 25.6515 36.832 25.6515C36.8175 25.6515 36.8031 25.6535 36.7886 25.6564C36.6988 25.6766 36.6013 25.6872 36.498 25.6872C36.3378 25.6872 36.1669 25.6631 35.9777 25.6139C35.9613 25.6091 35.9449 25.6072 35.9285 25.6072ZM34.3155 30.0518C34.2083 30.0518 34.1214 30.1386 34.1214 30.2447V31.3045C34.1214 31.3903 34.1784 31.4646 34.2595 31.4897C35.3126 31.8079 36.0868 32.2399 36.5588 32.7732C36.5965 32.8156 36.6496 32.8388 36.7036 32.8388C36.7268 32.8388 36.75 32.8349 36.7722 32.8262C36.8475 32.7983 36.8967 32.7259 36.8967 32.6459V30.209C36.8967 30.1521 36.8716 30.0981 36.8272 30.0615C36.7925 30.0325 36.749 30.0161 36.7036 30.0161C36.693 30.0161 36.6805 30.0181 36.6699 30.02C36.528 30.046 36.3822 30.0518 36.2403 30.0518H34.3155ZM39.4924 27.6284C39.3862 27.6284 39.2994 27.7152 39.2994 27.8213V36.566C39.2994 36.672 39.3862 36.7588 39.4924 36.7588H41.7783C41.8845 36.7588 41.9713 36.672 41.9713 36.566V27.8213C41.9713 27.7152 41.8845 27.6284 41.7783 27.6284H39.4924ZM32.0441 40C31.8839 40 31.7545 39.8708 31.7545 39.7107V34.9208C31.7545 34.8378 31.7004 34.7636 31.6213 34.7376C31.601 34.7308 31.5807 34.7279 31.5614 34.7279C31.5006 34.7279 31.4427 34.7568 31.4051 34.808C30.7458 35.7106 29.9764 36.538 29.1182 37.268C29.0661 37.3124 28.9995 37.3374 28.93 37.3374C28.8489 37.3374 28.7727 37.3037 28.7176 37.2439L28.5111 37.0211C28.4194 36.9208 28.4087 36.7685 28.4879 36.6576C29.6106 35.0683 30.5498 32.806 31.1328 30.2881C31.1464 30.2312 31.1328 30.1704 31.0962 30.1251C31.0595 30.0788 31.0035 30.0518 30.9446 30.0518H28.9126C28.7794 30.0518 28.6645 29.9621 28.6317 29.8329L28.5458 29.4886C28.5246 29.4019 28.5439 29.3112 28.5989 29.2408C28.6539 29.1704 28.7369 29.1299 28.8277 29.1299H31.5614C31.6676 29.1299 31.7545 29.0431 31.7545 28.937V26.909C31.7545 26.8521 31.7284 26.7972 31.685 26.7605C31.6493 26.7316 31.6058 26.7162 31.5614 26.7162C31.5489 26.7162 31.5383 26.7171 31.5257 26.7191C30.6714 26.8762 29.7669 27.0122 28.9117 27.1115H28.9068C28.7485 27.1115 28.6395 27.0296 28.6018 26.909L28.5323 26.6853C28.4869 26.5349 28.5671 26.3777 28.7157 26.3275C30.7593 25.6303 33.4081 24.3265 34.746 23.3593C34.7962 23.3236 34.8551 23.3043 34.9159 23.3043C34.9825 23.3043 35.0452 23.3265 35.0974 23.368L37.1612 25.017C37.2249 25.0681 37.2645 25.1453 37.2693 25.2272C37.2741 25.3092 37.2433 25.3892 37.1844 25.4471C37.1544 25.4779 37.1216 25.5059 37.0859 25.5291C37.0164 25.5773 36.9855 25.6641 37.0096 25.7451C37.0338 25.8251 37.1071 25.881 37.1921 25.882C37.2297 25.883 37.2664 25.8907 37.3012 25.9061L39.1188 26.6911L41.8458 26.7065C41.9067 26.7065 41.9646 26.6776 42.0013 26.6294L42.6133 25.8087C42.6683 25.7354 42.7532 25.693 42.8459 25.693C42.9077 25.693 42.9666 25.7123 43.0158 25.748L45.0121 27.2089C45.1375 27.3006 45.1675 27.4741 45.0816 27.6024C44.9773 27.7586 44.7871 27.8917 44.5149 27.9968C44.4396 28.0248 44.3904 28.0971 44.3904 28.1762V38.5429C44.3904 38.9141 43.4801 39.3298 42.2609 39.3298C42.1007 39.3298 41.9713 39.2005 41.9713 39.0414V37.8736C41.9713 37.7675 41.8845 37.6807 41.7783 37.6807H39.4924C39.3862 37.6807 39.2994 37.7675 39.2994 37.8736V38.646C39.2994 38.8592 38.9412 39.6567 37.1863 39.6567C37.027 39.6567 36.8967 39.5274 36.8967 39.3674V35.1329C36.8967 35.0596 36.8552 34.9931 36.7896 34.9603C36.7625 34.9468 36.7326 34.9401 36.7036 34.9401C36.6621 34.9401 36.6206 34.9536 36.5868 34.9806C36.3928 35.1281 36.1602 35.2062 35.914 35.2062C35.5984 35.2062 35.2895 35.0645 35.0211 34.7954C34.9767 34.7511 34.9477 34.6932 34.9391 34.6305C34.8869 34.2602 34.7305 33.8205 34.4854 33.3595C34.4516 33.2949 34.385 33.2563 34.3155 33.2563C34.3 33.2563 34.2836 33.2583 34.2682 33.2621C34.1823 33.2833 34.1214 33.3614 34.1214 33.4492V39.1957C34.0655 39.6123 33.2459 40 32.3704 40H32.0441Z" fill="#C057EA"/>
</g>
<defs>
<filter id="filter0_d_25_115" x="0" y="0" width="128" height="128" filterUnits="userSpaceOnUse" color-interpolation-filters="sRGB">
<feFlood flood-opacity="0" result="BackgroundImageFix"/>
<feColorMatrix in="SourceAlpha" type="matrix" values="0 0 0 0 0 0 0 0 0 0 0 0 0 0 0 0 0 0 127 0" result="hardAlpha"/>
<feOffset/>
<feGaussianBlur stdDeviation="8"/>
<feComposite in2="hardAlpha" operator="out"/>
<feColorMatrix type="matrix" values="0 0 0 0 0 0 0 0 0 0 0 0 0 0 0 0 0 0 0.5 0"/>
<feBlend mode="normal" in2="BackgroundImageFix" result="effect1_dropShadow_25_115"/>
<feBlend mode="normal" in="SourceGraphic" in2="effect1_dropShadow_25_115" result="shape"/>
</filter>
<linearGradient id="paint0_linear_25_115" x1="65" y1="-6.52726e-07" x2="65" y2="128" gradientUnits="userSpaceOnUse">
<stop stop-color="#FFDA48"/>
<stop offset="1" stop-color="#E88019"/>
</linearGradient>
<linearGradient id="paint1_linear_25_115" x1="64" y1="16" x2="64" y2="112" gradientUnits="userSpaceOnUse">
<stop stop-color="white"/>
<stop offset="1" stop-color="#BFBFBF"/>
</linearGradient>
</defs>
</svg>
