<svg width="128" height="128" viewBox="0 0 128 128" fill="none" xmlns="http://www.w3.org/2000/svg">
<rect width="128" height="128" rx="24" fill="url(#paint0_linear_58_6)"/>
<rect x="4" y="4" width="120" height="120" rx="20" stroke="black" stroke-opacity="0.25" stroke-width="8"/>
<g filter="url(#filter0_d_58_6)">
<path d="M85.1297 84.081C85.4112 84.8819 86.1676 85.4178 87.0165 85.4178H98C99.1046 85.4178 100 86.3132 100 87.4178V97.9842C100 99.0887 99.1046 99.9842 98 99.9842H30C28.8954 99.9842 28 99.0887 28 97.9842V87.4178C28 86.3132 28.8954 85.4178 30 85.4178H40.9835C41.8324 85.4178 42.5888 84.8819 42.8703 84.081L44.9705 78.1061C45.2521 77.3052 46.0085 76.7693 46.8574 76.7693H81.1426C81.9915 76.7693 82.7479 77.3052 83.0295 78.1061L85.1297 84.081ZM77.7836 63.1823C78.2409 64.4831 77.2756 65.8455 75.8968 65.8455H52.1032C50.7244 65.8455 49.7591 64.4831 50.2164 63.1823L54.5702 50.7956C54.8517 49.9947 55.6081 49.4588 56.457 49.4588H71.543C72.3919 49.4588 73.1483 49.9947 73.4298 50.7956L77.7836 63.1823ZM69.4634 39.5124C69.9206 40.8132 68.9553 42.1756 67.5765 42.1756H60.4235C59.0447 42.1756 58.0794 40.8132 58.5366 39.5124L62.1132 29.3368C62.7396 27.5544 65.2604 27.5544 65.8868 29.3368L69.4634 39.5124Z" fill="url(#paint1_linear_58_6)"/>
</g>
<defs>
<filter id="filter0_d_58_6" x="12" y="16" width="104" height="103.984" filterUnits="userSpaceOnUse" color-interpolation-filters="sRGB">
<feFlood flood-opacity="0" result="BackgroundImageFix"/>
<feColorMatrix in="SourceAlpha" type="matrix" values="0 0 0 0 0 0 0 0 0 0 0 0 0 0 0 0 0 0 127 0" result="hardAlpha"/>
<feOffset dy="4"/>
<feGaussianBlur stdDeviation="8"/>
<feComposite in2="hardAlpha" operator="out"/>
<feColorMatrix type="matrix" values="0 0 0 0 0 0 0 0 0 0 0 0 0 0 0 0 0 0 0.5 0"/>
<feBlend mode="normal" in2="BackgroundImageFix" result="effect1_dropShadow_58_6"/>
<feBlend mode="normal" in="SourceGraphic" in2="effect1_dropShadow_58_6" result="shape"/>
</filter>
<linearGradient id="paint0_linear_58_6" x1="64" y1="0" x2="64" y2="128" gradientUnits="userSpaceOnUse">
<stop stop-color="#FFD359"/>
<stop offset="1" stop-color="#D84E13"/>
</linearGradient>
<linearGradient id="paint1_linear_58_6" x1="64" y1="28" x2="64" y2="99.9842" gradientUnits="userSpaceOnUse">
<stop stop-color="white"/>
<stop offset="1" stop-color="#FFE1C3"/>
</linearGradient>
</defs>
</svg>
